<?xml version='1.0' encoding='UTF-8'?>
<svg xmlns="http://www.w3.org/2000/svg" width="1557.13pt" height="1087.01pt" viewBox="0 0 1557.13 1087.01">
  <g transform="translate(50, 50)"><g id="graph0" class="graph" transform="scale(1 1) rotate(0) translate(4 275)">
<title>Legend</title>
<polygon fill="#f5f5f5" stroke="transparent" points="-4,4 -4,-275 229,-275 229,4 -4,4"/>
<text text-anchor="middle" x="112.5" y="-7" font-family="Helvetica,Arial,sans-serif" font-size="10.00">Legend</text>
<g id="clust1" class="cluster">
<title>cluster_stations</title>
<path fill="#f5f5f5" stroke="black" d="M20,-86C20,-86 73,-86 73,-86 79,-86 85,-92 85,-98 85,-98 85,-251 85,-251 85,-257 79,-263 73,-263 73,-263 20,-263 20,-263 14,-263 8,-257 8,-251 8,-251 8,-98 8,-98 8,-92 14,-86 20,-86"/>
<text text-anchor="middle" x="46.5" y="-251" font-family="Helvetica,Arial,sans-serif" font-size="10.00">Station Types</text>
</g>
<g id="clust2" class="cluster">
<title>cluster_connections</title>
<path fill="#f5f5f5" stroke="black" d="M105,-27C105,-27 205,-27 205,-27 211,-27 217,-33 217,-39 217,-39 217,-233 217,-233 217,-239 211,-245 205,-245 205,-245 105,-245 105,-245 99,-245 93,-239 93,-233 93,-233 93,-39 93,-39 93,-33 99,-27 105,-27"/>
<text text-anchor="middle" x="155" y="-233" font-family="Helvetica,Arial,sans-serif" font-size="10.00">Connection Types</text>
</g>
<!-- Overworld_Key -->
<g id="node1" class="node">
<title>Overworld_Key</title>
<polygon fill="#a5d6a7" stroke="#2e7d32" points="73,-236 19,-236 19,-200 73,-200 73,-236"/>
<text text-anchor="middle" x="46" y="-216.1" font-family="Helvetica,Arial,sans-serif" font-size="8.00">Overworld</text>
</g>
<!-- Nether_Key -->
<g id="node2" class="node">
<title>Nether_Key</title>
<polygon fill="#ffcdd2" stroke="#c62828" points="73,-183 19,-183 19,-147 73,-147 73,-183"/>
<text text-anchor="middle" x="46" y="-163.1" font-family="Helvetica,Arial,sans-serif" font-size="8.00">Nether</text>
</g>
<!-- Overworld_Key&#45;&gt;Nether_Key -->
<!-- End_Key -->
<g id="node3" class="node">
<title>End_Key</title>
<polygon fill="#e1bee7" stroke="#4a148c" points="73,-130 19,-130 19,-94 73,-94 73,-130"/>
<text text-anchor="middle" x="46" y="-110.1" font-family="Helvetica,Arial,sans-serif" font-size="8.00">The End</text>
</g>
<!-- Nether_Key&#45;&gt;End_Key -->
<!-- Intercont_Start -->
<g id="node4" class="node">
<title>Intercont_Start</title>
<ellipse fill="black" stroke="black" cx="101" cy="-218" rx="0" ry="0"/>
</g>
<!-- Intercont_End -->
<g id="node5" class="node">
<title>Intercont_End</title>
<ellipse fill="black" stroke="black" cx="209" cy="-218" rx="0" ry="0"/>
</g>
<!-- Intercont_Start&#45;&gt;Intercont_End -->
<g id="edge8" class="edge">
<title>Intercont_Start-&gt;Intercont_End</title>
<path fill="none" stroke="#4285f4" stroke-width="2" d="M101.08,-218C104.3,-218 205.75,-218 208.92,-218"/>
<text text-anchor="middle" x="155" y="-223.6" font-family="Helvetica,Arial,sans-serif" font-size="8.00">Intercontinental Railroad</text>
</g>
<!-- Overworld_Rail_Start -->
<g id="node6" class="node">
<title>Overworld_Rail_Start</title>
<ellipse fill="black" stroke="black" cx="101" cy="-165" rx="0" ry="0"/>
</g>
<!-- Intercont_Start&#45;&gt;Overworld_Rail_Start -->
<!-- Overworld_Rail_End -->
<g id="node7" class="node">
<title>Overworld_Rail_End</title>
<ellipse fill="black" stroke="black" cx="209" cy="-165" rx="0" ry="0"/>
</g>
<!-- Overworld_Rail_Start&#45;&gt;Overworld_Rail_End -->
<g id="edge9" class="edge">
<title>Overworld_Rail_Start-&gt;Overworld_Rail_End</title>
<path fill="none" stroke="black" d="M101.08,-165C104.3,-165 205.75,-165 208.92,-165"/>
<text text-anchor="middle" x="155" y="-170.6" font-family="Helvetica,Arial,sans-serif" font-size="8.00">Overworld Rail</text>
</g>
<!-- End_Rail_Start -->
<g id="node8" class="node">
<title>End_Rail_Start</title>
<ellipse fill="black" stroke="black" cx="101" cy="-112" rx="0" ry="0"/>
</g>
<!-- Overworld_Rail_Start&#45;&gt;End_Rail_Start -->
<!-- End_Rail_End -->
<g id="node9" class="node">
<title>End_Rail_End</title>
<ellipse fill="black" stroke="black" cx="209" cy="-112" rx="0" ry="0"/>
</g>
<!-- End_Rail_Start&#45;&gt;End_Rail_End -->
<g id="edge10" class="edge">
<title>End_Rail_Start-&gt;End_Rail_End</title>
<path fill="none" stroke="#4a148c" stroke-dasharray="5,2" d="M101.08,-112C104.3,-112 205.75,-112 208.92,-112"/>
<text text-anchor="middle" x="155" y="-117.6" font-family="Helvetica,Arial,sans-serif" font-size="8.00">End Rail</text>
</g>
<!-- Footpath_Key_Start -->
<g id="node10" class="node">
<title>Footpath_Key_Start</title>
<ellipse fill="black" stroke="black" cx="101" cy="-69" rx="0" ry="0"/>
</g>
<!-- End_Rail_Start&#45;&gt;Footpath_Key_Start -->
<!-- Footpath_Key_End -->
<g id="node11" class="node">
<title>Footpath_Key_End</title>
<ellipse fill="black" stroke="black" cx="209" cy="-69" rx="0" ry="0"/>
</g>
<!-- Footpath_Key_Start&#45;&gt;Footpath_Key_End -->
<g id="edge11" class="edge">
<title>Footpath_Key_Start-&gt;Footpath_Key_End</title>
<path fill="none" stroke="#795548" stroke-dasharray="5,2" d="M101.08,-69C104.3,-69 205.75,-69 208.92,-69"/>
<text text-anchor="middle" x="155" y="-74.6" font-family="Helvetica,Arial,sans-serif" font-size="8.00">Footpath</text>
</g>
<!-- Nether_Rail_Start -->
<g id="node12" class="node">
<title>Nether_Rail_Start</title>
<ellipse fill="black" stroke="black" cx="101" cy="-52" rx="0" ry="0"/>
</g>
<!-- Footpath_Key_Start&#45;&gt;Nether_Rail_Start -->
<!-- Nether_Rail_End -->
<g id="node13" class="node">
<title>Nether_Rail_End</title>
<ellipse fill="black" stroke="black" cx="209" cy="-52" rx="0" ry="0"/>
</g>
<!-- Nether_Rail_Start&#45;&gt;Nether_Rail_End -->
<g id="edge12" class="edge">
<title>Nether_Rail_Start-&gt;Nether_Rail_End</title>
<path fill="none" stroke="#c62828" stroke-dasharray="1,5" d="M101.08,-52C104.3,-52 205.75,-52 208.92,-52"/>
<text text-anchor="middle" x="155" y="-57.6" font-family="Helvetica,Arial,sans-serif" font-size="8.00">Nether Rail</text>
</g>
<!-- Nether_Express_Key_Start -->
<g id="node14" class="node">
<title>Nether_Express_Key_Start</title>
<ellipse fill="black" stroke="black" cx="101" cy="-35" rx="0" ry="0"/>
</g>
<!-- Nether_Rail_Start&#45;&gt;Nether_Express_Key_Start -->
<!-- Nether_Express_Key_End -->
<g id="node15" class="node">
<title>Nether_Express_Key_End</title>
<ellipse fill="black" stroke="black" cx="209" cy="-35" rx="0" ry="0"/>
</g>
<!-- Nether_Express_Key_Start&#45;&gt;Nether_Express_Key_End -->
<g id="edge13" class="edge">
<title>Nether_Express_Key_Start-&gt;Nether_Express_Key_End</title>
<path fill="none" stroke="#e53935" stroke-width="2" d="M101.08,-35C104.3,-35 205.75,-35 208.92,-35"/>
<text text-anchor="middle" x="155" y="-40.6" font-family="Helvetica,Arial,sans-serif" font-size="8.00">Nether Express Rail</text>
</g>
</g>
</g>
  <g transform="translate(333.0, 50)"><g id="graph0" class="graph" transform="scale(1 1) rotate(0) translate(4 983.01)">
<title>MinecraftRailMap</title>
<polygon fill="white" stroke="transparent" points="-4,4 -4,-983.01 1170.13,-983.01 1170.13,4 -4,4"/>
<text text-anchor="middle" x="583.07" y="-7.8" font-family="Helvetica,Arial,sans-serif" font-size="14.00">Minecraft Transit Map</text>
<!-- Chapel -->
<g id="node1" class="node">
<title>Chapel</title>
<ellipse fill="#a5d6a7" stroke="#2e7d32" stroke-width="2" cx="160.76" cy="-464.93" rx="38.19" ry="18"/>
<text text-anchor="middle" x="160.76" y="-461.23" font-family="Helvetica,Arial,sans-serif" font-size="14.00">Chapel</text>
</g>
<!-- Drowned_Farm -->
<g id="node4" class="node">
<title>Drowned_Farm</title>
<ellipse fill="#a5d6a7" stroke="#2e7d32" stroke-width="2" cx="130.66" cy="-563.1" rx="69.59" ry="18"/>
<text text-anchor="middle" x="130.66" y="-559.4" font-family="Helvetica,Arial,sans-serif" font-size="14.00">Drowned Farm</text>
</g>
<!-- Chapel&#45;&gt;Drowned_Farm -->
<g id="edge4" class="edge">
<title>Chapel-&gt;Drowned_Farm</title>
<path fill="none" stroke="#4285f4" stroke-width="2" d="M155.24,-482.93C149.84,-500.54 141.67,-527.2 136.25,-544.88"/>
</g>
<!-- Cow_Farm -->
<g id="node2" class="node">
<title>Cow_Farm</title>
<ellipse fill="#a5d6a7" stroke="#2e7d32" stroke-width="2" cx="220.85" cy="-418.46" rx="51.99" ry="18"/>
<text text-anchor="middle" x="220.85" y="-414.76" font-family="Helvetica,Arial,sans-serif" font-size="14.00">Cow Farm</text>
</g>
<!-- Cow_Farm&#45;&gt;Chapel -->
<g id="edge3" class="edge">
<title>Cow_Farm-&gt;Chapel</title>
<path fill="none" stroke="#4285f4" stroke-width="2" d="M199.5,-434.97C193.42,-439.67 186.83,-444.76 180.84,-449.4"/>
</g>
<!-- Sheep_Farm -->
<g id="node3" class="node">
<title>Sheep_Farm</title>
<ellipse fill="#a5d6a7" stroke="#2e7d32" stroke-width="2" cx="340.65" cy="-406.49" rx="59.59" ry="18"/>
<text text-anchor="middle" x="340.65" y="-402.79" font-family="Helvetica,Arial,sans-serif" font-size="14.00">Sheep Farm</text>
</g>
<!-- Sheep_Farm&#45;&gt;Cow_Farm -->
<g id="edge2" class="edge">
<title>Sheep_Farm-&gt;Cow_Farm</title>
<path fill="none" stroke="#4285f4" stroke-width="2" d="M283.56,-412.19C279.34,-412.62 275.1,-413.04 270.93,-413.46"/>
</g>
<!-- Dragon_Junction -->
<!-- Drowned_Farm&#45;&gt;Dragon_Junction -->
<g id="edge5" class="edge">
<title>Drowned_Farm-&gt;Dragon_Junction</title>
<path fill="none" stroke="#4285f4" stroke-width="2" d="M134.52,-581.2C141.21,-612.55 154.27,-673.8 154.68,-675.7"/>
</g>
<!-- Mob_Grinder -->
<g id="node5" class="node">
<title>Mob_Grinder</title>
<ellipse fill="#a5d6a7" stroke="#2e7d32" stroke-width="2" cx="267.67" cy="-689.73" rx="60.39" ry="18"/>
<text text-anchor="middle" x="267.67" y="-686.03" font-family="Helvetica,Arial,sans-serif" font-size="14.00">Mob Grinder</text>
</g>
<!-- CUBO -->
<g id="node30" class="node">
<title>CUBO</title>
<path fill="#a5d6a7" stroke="#2e7d32" stroke-width="0.5" d="M403.03,-699.28C403.03,-699.28 439.32,-699.28 439.32,-699.28 439.32,-699.87 439.26,-700.46 439.15,-701.05 439.03,-701.63 438.86,-702.22 438.62,-702.79 438.39,-703.37 438.1,-703.94 437.76,-704.51 437.41,-705.07 437.01,-705.63 436.56,-706.17 436.1,-706.71 435.6,-707.25 435.04,-707.77 434.48,-708.29 433.87,-708.79 433.21,-709.28 432.55,-709.77 431.84,-710.25 431.08,-710.7 430.33,-711.16 429.53,-711.59 428.69,-712.01 427.85,-712.43 426.97,-712.82 426.05,-713.2 425.13,-713.57 424.18,-713.92 423.19,-714.25 422.2,-714.58 421.18,-714.88 420.14,-715.16 419.09,-715.43 418.01,-715.69 416.92,-715.91 415.82,-716.14 414.7,-716.34 413.56,-716.51 412.43,-716.68 411.27,-716.82 410.11,-716.94 408.94,-717.05 407.77,-717.14 406.59,-717.19 405.4,-717.25 404.22,-717.28 403.03,-717.28 401.84,-717.28 400.65,-717.25 399.47,-717.19 398.29,-717.14 397.11,-717.05 395.95,-716.94 394.78,-716.82 393.63,-716.68 392.49,-716.51 391.36,-716.34 390.24,-716.14 389.14,-715.91 388.04,-715.69 386.97,-715.43 385.92,-715.16 384.87,-714.88 383.85,-714.58 382.86,-714.25 381.88,-713.92 380.92,-713.57 380,-713.2 379.09,-712.82 378.2,-712.43 377.36,-712.01 376.52,-711.59 375.73,-711.16 374.97,-710.7 374.22,-710.25 373.51,-709.77 372.85,-709.28 372.19,-708.79 371.58,-708.29 371.02,-707.77 370.46,-707.25 369.95,-706.71 369.5,-706.17 369.04,-705.63 368.64,-705.07 368.3,-704.51 367.95,-703.94 367.66,-703.37 367.43,-702.79 367.2,-702.22 367.03,-701.63 366.91,-701.05 366.79,-700.46 366.73,-699.87 366.73,-699.28 366.73,-699.28 403.03,-699.28 403.03,-699.28"/>
<path fill="#ffcdd2" stroke="#2e7d32" stroke-width="0.5" d="M403.03,-699.28C403.03,-699.28 366.73,-699.28 366.73,-699.28 366.73,-698.69 366.79,-698.1 366.91,-697.52 367.03,-696.93 367.2,-696.35 367.43,-695.77 367.66,-695.19 367.95,-694.62 368.3,-694.06 368.64,-693.49 369.04,-692.94 369.5,-692.39 369.95,-691.85 370.46,-691.32 371.02,-690.8 371.58,-690.28 372.19,-689.77 372.85,-689.28 373.51,-688.79 374.22,-688.32 374.97,-687.86 375.73,-687.41 376.52,-686.97 377.36,-686.55 378.2,-686.14 379.09,-685.74 380,-685.37 380.92,-684.99 381.88,-684.64 382.86,-684.31 383.85,-683.99 384.87,-683.68 385.92,-683.41 386.97,-683.13 388.04,-682.88 389.14,-682.65 390.24,-682.43 391.36,-682.23 392.49,-682.06 393.63,-681.89 394.78,-681.74 395.95,-681.63 397.11,-681.51 398.29,-681.43 399.47,-681.37 400.65,-681.31 401.84,-681.28 403.03,-681.28 404.22,-681.28 405.4,-681.31 406.59,-681.37 407.77,-681.43 408.94,-681.51 410.11,-681.63 411.27,-681.74 412.43,-681.89 413.56,-682.06 414.7,-682.23 415.82,-682.43 416.92,-682.65 418.01,-682.88 419.09,-683.13 420.14,-683.41 421.18,-683.68 422.2,-683.99 423.19,-684.31 424.18,-684.64 425.13,-684.99 426.05,-685.37 426.97,-685.74 427.85,-686.14 428.69,-686.55 429.53,-686.97 430.33,-687.41 431.08,-687.86 431.84,-688.32 432.55,-688.79 433.21,-689.28 433.87,-689.77 434.48,-690.28 435.04,-690.8 435.6,-691.32 436.1,-691.85 436.56,-692.39 437.01,-692.94 437.41,-693.49 437.76,-694.06 438.1,-694.62 438.39,-695.19 438.62,-695.77 438.86,-696.35 439.03,-696.93 439.15,-697.52 439.26,-698.1 439.32,-698.69 439.32,-699.28 439.32,-699.28 403.03,-699.28 403.03,-699.28"/>
<ellipse fill="none" stroke="#2e7d32" stroke-width="2" cx="403.03" cy="-699.28" rx="36.29" ry="18"/>
<text text-anchor="middle" x="403.03" y="-695.58" font-family="Helvetica,Arial,sans-serif" font-size="14.00">CUBO</text>
</g>
<!-- Mob_Grinder&#45;&gt;CUBO -->
<g id="edge7" class="edge">
<title>Mob_Grinder-&gt;CUBO</title>
<path fill="none" stroke="#4285f4" stroke-width="2" d="M326.65,-693.89C340.33,-694.86 354.49,-695.86 366.84,-696.73"/>
</g>
<!-- Guardian_Farm -->
<g id="node6" class="node">
<title>Guardian_Farm</title>
<ellipse fill="#a5d6a7" stroke="#2e7d32" stroke-width="2" cx="70.84" cy="-737" rx="70.69" ry="18"/>
<text text-anchor="middle" x="70.84" y="-733.3" font-family="Helvetica,Arial,sans-serif" font-size="14.00">Guardian Farm</text>
</g>
<!-- Russells_Tower -->
<g id="node7" class="node">
<title>Russells_Tower</title>
<ellipse fill="#a5d6a7" stroke="#2e7d32" stroke-width="2" cx="480.63" cy="-427.87" rx="72.29" ry="18"/>
<text text-anchor="middle" x="480.63" y="-424.17" font-family="Helvetica,Arial,sans-serif" font-size="14.00">Russell's Tower</text>
</g>
<!-- Cliffertown -->
<g id="node8" class="node">
<title>Cliffertown</title>
<ellipse fill="#a5d6a7" stroke="#2e7d32" stroke-width="2" cx="740.17" cy="-383.12" rx="52.79" ry="18"/>
<text text-anchor="middle" x="740.17" y="-379.42" font-family="Helvetica,Arial,sans-serif" font-size="14.00">Cliffertown</text>
</g>
<!-- Slacktown -->
<g id="node11" class="node">
<title>Slacktown</title>
<ellipse fill="#a5d6a7" stroke="#2e7d32" stroke-width="2" cx="852.24" cy="-344.21" rx="51.19" ry="18"/>
<text text-anchor="middle" x="852.24" y="-340.51" font-family="Helvetica,Arial,sans-serif" font-size="14.00">Slacktown</text>
</g>
<!-- Cliffertown&#45;&gt;Slacktown -->
<g id="edge11" class="edge">
<title>Cliffertown-&gt;Slacktown</title>
<path fill="none" stroke="black" d="M777.18,-370.27C789.55,-365.98 803.32,-361.2 815.65,-356.91"/>
</g>
<!-- Mahjong_Parlour -->
<g id="node9" class="node">
<title>Mahjong_Parlour</title>
<ellipse fill="#a5d6a7" stroke="#2e7d32" stroke-width="2" cx="443.31" cy="-477.42" rx="75.29" ry="18"/>
<text text-anchor="middle" x="443.31" y="-473.72" font-family="Helvetica,Arial,sans-serif" font-size="14.00">Mahjong Parlour</text>
</g>
<!-- Desert_Village -->
<g id="node10" class="node">
<title>Desert_Village</title>
<ellipse fill="#a5d6a7" stroke="#2e7d32" stroke-width="2" cx="585.05" cy="-961.01" rx="65.79" ry="18"/>
<text text-anchor="middle" x="585.05" y="-957.31" font-family="Helvetica,Arial,sans-serif" font-size="14.00">Desert Village</text>
</g>
<!-- Sim_Tower -->
<g id="node12" class="node">
<title>Sim_Tower</title>
<ellipse fill="#a5d6a7" stroke="#2e7d32" stroke-width="2" cx="580.77" cy="-471.9" rx="52.79" ry="18"/>
<text text-anchor="middle" x="580.77" y="-468.2" font-family="Helvetica,Arial,sans-serif" font-size="14.00">Sim Tower</text>
</g>
<!-- Squid_Farm -->
<g id="node13" class="node">
<title>Squid_Farm</title>
<ellipse fill="#a5d6a7" stroke="#2e7d32" stroke-width="2" cx="322.74" cy="-760.99" rx="57.39" ry="18"/>
<text text-anchor="middle" x="322.74" y="-757.29" font-family="Helvetica,Arial,sans-serif" font-size="14.00">Squid Farm</text>
</g>
<!-- Worrton -->
<g id="node14" class="node">
<title>Worrton</title>
<ellipse fill="#a5d6a7" stroke="#2e7d32" stroke-width="2" cx="365.85" cy="-808.81" rx="42.49" ry="18"/>
<text text-anchor="middle" x="365.85" y="-805.11" font-family="Helvetica,Arial,sans-serif" font-size="14.00">Worrton</text>
</g>
<!-- Gold_Farm -->
<g id="node15" class="node">
<title>Gold_Farm</title>
<ellipse fill="#ffcdd2" stroke="#c62828" stroke-width="2" cx="463.42" cy="-350.95" rx="53.09" ry="18"/>
<text text-anchor="middle" x="463.42" y="-347.25" font-family="Helvetica,Arial,sans-serif" font-size="14.00">Gold Farm</text>
</g>
<!-- Bartering_Farm -->
<g id="node16" class="node">
<title>Bartering_Farm</title>
<ellipse fill="#ffcdd2" stroke="#c62828" stroke-width="2" cx="613.42" cy="-339.09" rx="70.39" ry="18"/>
<text text-anchor="middle" x="613.42" y="-335.39" font-family="Helvetica,Arial,sans-serif" font-size="14.00">Bartering Farm</text>
</g>
<!-- Wither_Skeleton_Farm -->
<g id="node17" class="node">
<title>Wither_Skeleton_Farm</title>
<ellipse fill="#ffcdd2" stroke="#c62828" stroke-width="2" cx="545.34" cy="-294.98" rx="96.68" ry="18"/>
<text text-anchor="middle" x="545.34" y="-291.28" font-family="Helvetica,Arial,sans-serif" font-size="14.00">Wither Skeleton Farm</text>
</g>
<!-- Hog_Farm -->
<g id="node18" class="node">
<title>Hog_Farm</title>
<ellipse fill="#ffcdd2" stroke="#c62828" stroke-width="2" cx="755.07" cy="-579.84" rx="50.09" ry="18"/>
<text text-anchor="middle" x="755.07" y="-576.14" font-family="Helvetica,Arial,sans-serif" font-size="14.00">Hog Farm</text>
</g>
<!-- Junction5 -->
<!-- Hog_Farm&#45;&gt;Junction5 -->
<g id="edge20" class="edge">
<title>Hog_Farm-&gt;Junction5</title>
<path fill="none" stroke="#c62828" d="M805.29,-579.21C840.03,-578.78 880.45,-578.27 882.94,-578.24"/>
</g>
<!-- CML_Memorial -->
<g id="node19" class="node">
<title>CML_Memorial</title>
<ellipse fill="#ffcdd2" stroke="#c62828" stroke-width="2" cx="1067.33" cy="-534.65" rx="69.59" ry="18"/>
<text text-anchor="middle" x="1067.33" y="-530.95" font-family="Helvetica,Arial,sans-serif" font-size="14.00">CML Memorial</text>
</g>
<!-- Frog -->
<g id="node20" class="node">
<title>Frog</title>
<ellipse fill="#ffcdd2" stroke="#c62828" stroke-width="2" cx="1105.69" cy="-704.61" rx="60.39" ry="18"/>
<text text-anchor="middle" x="1105.69" y="-700.91" font-family="Helvetica,Arial,sans-serif" font-size="14.00">Frog Bastion</text>
</g>
<!-- WTO_Memorial -->
<g id="node21" class="node">
<title>WTO_Memorial</title>
<ellipse fill="#ffcdd2" stroke="#c62828" stroke-width="2" cx="207.38" cy="-89.5" rx="71.49" ry="18"/>
<text text-anchor="middle" x="207.38" y="-85.8" font-family="Helvetica,Arial,sans-serif" font-size="14.00">WTO Memorial</text>
</g>
<!-- Enderman_Farm -->
<g id="node22" class="node">
<title>Enderman_Farm</title>
<ellipse fill="#e1bee7" stroke="#4a148c" stroke-width="2" cx="804.9" cy="-91.04" rx="75.29" ry="18"/>
<text text-anchor="middle" x="804.9" y="-87.34" font-family="Helvetica,Arial,sans-serif" font-size="14.00">Enderman Farm</text>
</g>
<!-- Shulker_Farm -->
<g id="node23" class="node">
<title>Shulker_Farm</title>
<ellipse fill="#e1bee7" stroke="#4a148c" stroke-width="2" cx="688.77" cy="-41" rx="63.89" ry="18"/>
<text text-anchor="middle" x="688.77" y="-37.3" font-family="Helvetica,Arial,sans-serif" font-size="14.00">Shulker Farm</text>
</g>
<!-- Home -->
<g id="node24" class="node">
<title>Home</title>
<path fill="#a5d6a7" stroke="#2e7d32" stroke-width="0.5" d="M566.49,-383.26C566.49,-383.26 600.88,-383.26 600.88,-383.26 600.88,-383.85 600.82,-384.44 600.71,-385.02 600.6,-385.61 600.44,-386.19 600.22,-386.77 600,-387.35 599.73,-387.92 599.4,-388.48 599.07,-389.05 598.69,-389.6 598.26,-390.15 597.83,-390.69 597.35,-391.22 596.82,-391.74 596.29,-392.26 595.71,-392.77 595.08,-393.26 594.46,-393.75 593.79,-394.22 593.07,-394.68 592.36,-395.13 591.6,-395.57 590.81,-395.99 590.01,-396.4 589.18,-396.8 588.31,-397.17 587.44,-397.55 586.53,-397.9 585.59,-398.23 584.66,-398.55 583.69,-398.86 582.7,-399.13 581.71,-399.41 580.69,-399.66 579.65,-399.89 578.61,-400.11 577.55,-400.31 576.47,-400.48 575.39,-400.65 574.3,-400.8 573.2,-400.91 572.09,-401.03 570.98,-401.11 569.86,-401.17 568.74,-401.23 567.61,-401.26 566.49,-401.26 565.36,-401.26 564.24,-401.23 563.11,-401.17 561.99,-401.11 560.88,-401.03 559.78,-400.91 558.67,-400.8 557.58,-400.65 556.5,-400.48 555.42,-400.31 554.36,-400.11 553.32,-399.89 552.28,-399.66 551.27,-399.41 550.27,-399.13 549.28,-398.86 548.31,-398.55 547.38,-398.23 546.44,-397.9 545.54,-397.55 544.67,-397.17 543.8,-396.8 542.96,-396.4 542.17,-395.99 541.37,-395.57 540.61,-395.13 539.9,-394.68 539.18,-394.22 538.51,-393.75 537.89,-393.26 537.26,-392.77 536.68,-392.26 536.15,-391.74 535.62,-391.22 535.14,-390.69 534.71,-390.15 534.28,-389.6 533.9,-389.05 533.57,-388.48 533.25,-387.92 532.97,-387.35 532.75,-386.77 532.53,-386.19 532.37,-385.61 532.26,-385.02 532.15,-384.44 532.09,-383.85 532.09,-383.26 532.09,-383.26 566.49,-383.26 566.49,-383.26"/>
<path fill="#ffcdd2" stroke="#2e7d32" stroke-width="0.5" d="M566.49,-383.26C566.49,-383.26 532.09,-383.26 532.09,-383.26 532.09,-382.67 532.15,-382.08 532.26,-381.49 532.37,-380.91 532.53,-380.32 532.75,-379.75 532.97,-379.17 533.25,-378.6 533.57,-378.03 533.9,-377.47 534.28,-376.91 534.71,-376.37 535.14,-375.83 535.62,-375.29 536.15,-374.77 536.68,-374.25 537.26,-373.75 537.89,-373.26 538.51,-372.77 539.18,-372.3 539.9,-371.84 540.61,-371.38 541.37,-370.95 542.17,-370.53 542.96,-370.11 543.8,-369.72 544.67,-369.34 545.54,-368.97 546.44,-368.62 547.38,-368.29 548.31,-367.96 549.28,-367.66 550.27,-367.38 551.27,-367.11 552.28,-366.85 553.32,-366.63 554.36,-366.4 555.42,-366.2 556.5,-366.03 557.58,-365.86 558.67,-365.72 559.78,-365.6 560.88,-365.49 561.99,-365.4 563.11,-365.35 564.24,-365.29 565.36,-365.26 566.49,-365.26 567.61,-365.26 568.74,-365.29 569.86,-365.35 570.98,-365.4 572.09,-365.49 573.2,-365.6 574.3,-365.72 575.39,-365.86 576.47,-366.03 577.55,-366.2 578.61,-366.4 579.65,-366.63 580.69,-366.85 581.71,-367.11 582.7,-367.38 583.69,-367.66 584.66,-367.96 585.59,-368.29 586.53,-368.62 587.44,-368.97 588.31,-369.34 589.18,-369.72 590.01,-370.11 590.81,-370.53 591.6,-370.95 592.36,-371.38 593.07,-371.84 593.79,-372.3 594.46,-372.77 595.08,-373.26 595.71,-373.75 596.29,-374.25 596.82,-374.77 597.35,-375.29 597.83,-375.83 598.26,-376.37 598.69,-376.91 599.07,-377.47 599.4,-378.03 599.73,-378.6 600,-379.17 600.22,-379.75 600.44,-380.32 600.6,-380.91 600.71,-381.49 600.82,-382.08 600.88,-382.67 600.88,-383.26 600.88,-383.26 566.49,-383.26 566.49,-383.26"/>
<ellipse fill="none" stroke="#2e7d32" stroke-width="2" cx="566.49" cy="-383.26" rx="34.39" ry="18"/>
<text text-anchor="middle" x="566.49" y="-379.56" font-family="Helvetica,Arial,sans-serif" font-size="14.00">Home</text>
</g>
<!-- Home&#45;&gt;Sheep_Farm -->
<g id="edge1" class="edge">
<title>Home-&gt;Sheep_Farm</title>
<path fill="none" stroke="#4285f4" stroke-width="2" d="M532.68,-386.74C496.99,-390.41 440.12,-396.26 397.52,-400.64"/>
</g>
<!-- Home&#45;&gt;Russells_Tower -->
<g id="edge9" class="edge">
<title>Home-&gt;Russells_Tower</title>
<path fill="none" stroke="black" d="M541.65,-396.16C532.44,-400.95 521.87,-406.44 512.14,-411.49"/>
</g>
<!-- Home&#45;&gt;Cliffertown -->
<g id="edge10" class="edge">
<title>Home-&gt;Cliffertown</title>
<path fill="none" stroke="black" d="M601.22,-383.23C625.87,-383.21 659.4,-383.18 687.36,-383.16"/>
</g>
<!-- Home&#45;&gt;Mahjong_Parlour -->
<g id="edge12" class="edge">
<title>Home-&gt;Mahjong_Parlour</title>
<path fill="none" stroke="black" d="M546.97,-398.18C524.99,-414.98 489.31,-442.25 466.08,-460.01"/>
</g>
<!-- Home&#45;&gt;Sim_Tower -->
<g id="edge13" class="edge">
<title>Home-&gt;Sim_Tower</title>
<path fill="none" stroke="black" d="M569.38,-401.2C571.84,-416.48 575.36,-438.33 577.84,-453.69"/>
</g>
<!-- Home&#45;&gt;Gold_Farm -->
<g id="edge49" class="edge">
<title>Home-&gt;Gold_Farm</title>
<path fill="none" stroke="#795548" stroke-dasharray="5,2" d="M536.67,-373.92C526.09,-370.6 514.01,-366.81 502.76,-363.28"/>
</g>
<!-- Home&#45;&gt;Bartering_Farm -->
<g id="edge50" class="edge">
<title>Home-&gt;Bartering_Farm</title>
<path fill="none" stroke="#795548" stroke-dasharray="5,2" d="M583.43,-367.31C587.11,-363.85 591.02,-360.17 594.75,-356.65"/>
</g>
<!-- Home&#45;&gt;Wither_Skeleton_Farm -->
<g id="edge51" class="edge">
<title>Home-&gt;Wither_Skeleton_Farm</title>
<path fill="none" stroke="#795548" stroke-dasharray="5,2" d="M562.21,-365.39C558.56,-350.18 553.35,-328.41 549.68,-313.12"/>
</g>
<!-- Pale_Oak_Forest -->
<g id="node28" class="node">
<title>Pale_Oak_Forest</title>
<path fill="#a5d6a7" stroke="#2e7d32" stroke-width="0.5" d="M644.71,-427.5C644.71,-427.5 728.39,-427.5 728.39,-427.5 728.39,-428.09 728.26,-428.68 727.99,-429.27 727.72,-429.86 727.32,-430.44 726.79,-431.02 726.25,-431.59 725.58,-432.17 724.79,-432.73 723.99,-433.29 723.07,-433.85 722.02,-434.39 720.97,-434.94 719.8,-435.47 718.51,-435.99 717.22,-436.51 715.81,-437.02 714.29,-437.5 712.77,-437.99 711.14,-438.47 709.4,-438.92 707.66,-439.38 705.82,-439.82 703.88,-440.23 701.95,-440.65 699.91,-441.05 697.8,-441.42 695.68,-441.79 693.48,-442.14 691.2,-442.47 688.92,-442.8 686.57,-443.1 684.16,-443.38 681.74,-443.66 679.26,-443.91 676.73,-444.13 674.2,-444.36 671.62,-444.56 669,-444.73 666.38,-444.9 663.72,-445.04 661.03,-445.16 658.35,-445.27 655.64,-445.36 652.91,-445.42 650.18,-445.48 647.45,-445.5 644.71,-445.5 641.97,-445.5 639.23,-445.48 636.51,-445.42 633.78,-445.36 631.07,-445.27 628.38,-445.16 625.69,-445.04 623.04,-444.9 620.42,-444.73 617.79,-444.56 615.21,-444.36 612.68,-444.13 610.15,-443.91 607.67,-443.66 605.26,-443.38 602.84,-443.1 600.49,-442.8 598.21,-442.47 595.94,-442.14 593.74,-441.79 591.62,-441.42 589.5,-441.05 587.47,-440.65 585.53,-440.23 583.6,-439.82 581.76,-439.38 580.02,-438.92 578.28,-438.47 576.65,-437.99 575.13,-437.5 573.6,-437.02 572.19,-436.51 570.9,-435.99 569.61,-435.47 568.44,-434.94 567.39,-434.39 566.34,-433.85 565.42,-433.29 564.63,-432.73 563.83,-432.17 563.16,-431.59 562.63,-431.02 562.1,-430.44 561.69,-429.86 561.43,-429.27 561.16,-428.68 561.02,-428.09 561.02,-427.5 561.02,-427.5 644.71,-427.5 644.71,-427.5"/>
<path fill="#ffcdd2" stroke="#2e7d32" stroke-width="0.5" d="M644.71,-427.5C644.71,-427.5 561.02,-427.5 561.02,-427.5 561.02,-426.92 561.16,-426.33 561.43,-425.74 561.69,-425.15 562.1,-424.57 562.63,-423.99 563.16,-423.42 563.83,-422.84 564.63,-422.28 565.42,-421.72 566.34,-421.16 567.39,-420.62 568.44,-420.07 569.61,-419.54 570.9,-419.02 572.19,-418.5 573.6,-417.99 575.13,-417.5 576.65,-417.01 578.28,-416.54 580.02,-416.09 581.76,-415.63 583.6,-415.19 585.53,-414.78 587.47,-414.36 589.5,-413.96 591.62,-413.59 593.74,-413.22 595.94,-412.87 598.21,-412.54 600.49,-412.21 602.84,-411.91 605.26,-411.63 607.67,-411.35 610.15,-411.1 612.68,-410.87 615.21,-410.65 617.79,-410.45 620.42,-410.28 623.04,-410.11 625.69,-409.97 628.38,-409.85 631.07,-409.74 633.78,-409.65 636.51,-409.59 639.23,-409.53 641.97,-409.5 644.71,-409.5 647.45,-409.5 650.18,-409.53 652.91,-409.59 655.64,-409.65 658.35,-409.74 661.03,-409.85 663.72,-409.97 666.38,-410.11 669,-410.28 671.62,-410.45 674.2,-410.65 676.73,-410.87 679.26,-411.1 681.74,-411.35 684.16,-411.63 686.57,-411.91 688.92,-412.21 691.2,-412.54 693.48,-412.87 695.68,-413.22 697.8,-413.59 699.91,-413.96 701.95,-414.36 703.88,-414.78 705.82,-415.19 707.66,-415.63 709.4,-416.09 711.14,-416.54 712.77,-417.01 714.29,-417.5 715.81,-417.99 717.22,-418.5 718.51,-419.02 719.8,-419.54 720.97,-420.07 722.02,-420.62 723.07,-421.16 723.99,-421.72 724.79,-422.28 725.58,-422.84 726.25,-423.42 726.79,-423.99 727.32,-424.57 727.72,-425.15 727.99,-425.74 728.26,-426.33 728.39,-426.92 728.39,-427.5 728.39,-427.5 644.71,-427.5 644.71,-427.5"/>
<ellipse fill="none" stroke="#2e7d32" stroke-width="2" cx="644.71" cy="-427.5" rx="83.69" ry="18"/>
<text text-anchor="middle" x="644.71" y="-423.8" font-family="Helvetica,Arial,sans-serif" font-size="14.00">Click Clock Woods</text>
</g>
<!-- Home&#45;&gt;Pale_Oak_Forest -->
<g id="edge27" class="edge">
<title>Home-&gt;Pale_Oak_Forest</title>
<path fill="none" stroke="#c62828" d="M589.96,-396.53C597.79,-400.96 606.62,-405.96 614.87,-410.62"/>
</g>
<!-- Atlantis -->
<g id="node29" class="node">
<title>Atlantis</title>
<path fill="#a5d6a7" stroke="#2e7d32" stroke-width="0.5" d="M776.32,-442.89C776.32,-442.89 816.12,-442.89 816.12,-442.89 816.12,-443.48 816.05,-444.06 815.92,-444.65 815.8,-445.24 815.61,-445.82 815.35,-446.4 815.1,-446.98 814.78,-447.55 814.4,-448.11 814.02,-448.67 813.59,-449.23 813.09,-449.77 812.59,-450.32 812.03,-450.85 811.42,-451.37 810.8,-451.89 810.13,-452.4 809.41,-452.89 808.69,-453.38 807.91,-453.85 807.08,-454.31 806.26,-454.76 805.38,-455.2 804.46,-455.61 803.54,-456.03 802.57,-456.43 801.57,-456.8 800.56,-457.17 799.51,-457.53 798.43,-457.85 797.35,-458.18 796.23,-458.48 795.08,-458.76 793.93,-459.04 792.75,-459.29 791.55,-459.52 790.35,-459.74 789.12,-459.94 787.87,-460.11 786.63,-460.28 785.36,-460.43 784.09,-460.54 782.81,-460.66 781.52,-460.74 780.22,-460.8 778.93,-460.86 777.63,-460.89 776.32,-460.89 775.02,-460.89 773.72,-460.86 772.42,-460.8 771.13,-460.74 769.84,-460.66 768.56,-460.54 767.28,-460.43 766.02,-460.28 764.77,-460.11 763.53,-459.94 762.3,-459.74 761.09,-459.52 759.89,-459.29 758.71,-459.04 757.56,-458.76 756.42,-458.48 755.3,-458.18 754.21,-457.85 753.13,-457.53 752.09,-457.17 751.08,-456.8 750.07,-456.43 749.11,-456.03 748.18,-455.61 747.26,-455.2 746.39,-454.76 745.56,-454.31 744.74,-453.85 743.96,-453.38 743.24,-452.89 742.51,-452.4 741.84,-451.89 741.23,-451.37 740.61,-450.85 740.06,-450.32 739.56,-449.77 739.06,-449.23 738.62,-448.67 738.24,-448.11 737.86,-447.55 737.55,-446.98 737.29,-446.4 737.04,-445.82 736.85,-445.24 736.72,-444.65 736.59,-444.06 736.53,-443.48 736.53,-442.89 736.53,-442.89 776.32,-442.89 776.32,-442.89"/>
<path fill="#ffcdd2" stroke="#2e7d32" stroke-width="0.5" d="M776.32,-442.89C776.32,-442.89 736.53,-442.89 736.53,-442.89 736.53,-442.3 736.59,-441.71 736.72,-441.12 736.85,-440.54 737.04,-439.95 737.29,-439.37 737.55,-438.8 737.86,-438.22 738.24,-437.66 738.62,-437.1 739.06,-436.54 739.56,-436 740.06,-435.45 740.61,-434.92 741.23,-434.4 741.84,-433.88 742.51,-433.38 743.24,-432.89 743.96,-432.4 744.74,-431.92 745.56,-431.47 746.39,-431.01 747.26,-430.57 748.18,-430.16 749.11,-429.74 750.07,-429.35 751.08,-428.97 752.09,-428.6 753.13,-428.25 754.21,-427.92 755.3,-427.59 756.42,-427.29 757.56,-427.01 758.71,-426.73 759.89,-426.48 761.09,-426.26 762.3,-426.03 763.53,-425.83 764.77,-425.66 766.02,-425.49 767.28,-425.35 768.56,-425.23 769.84,-425.12 771.13,-425.03 772.42,-424.97 773.72,-424.91 775.02,-424.89 776.32,-424.89 777.63,-424.89 778.93,-424.91 780.22,-424.97 781.52,-425.03 782.81,-425.12 784.09,-425.23 785.36,-425.35 786.63,-425.49 787.87,-425.66 789.12,-425.83 790.35,-426.03 791.55,-426.26 792.75,-426.48 793.93,-426.73 795.08,-427.01 796.23,-427.29 797.35,-427.59 798.43,-427.92 799.51,-428.25 800.56,-428.6 801.57,-428.97 802.57,-429.35 803.54,-429.74 804.46,-430.16 805.38,-430.57 806.26,-431.01 807.08,-431.47 807.91,-431.92 808.69,-432.4 809.41,-432.89 810.13,-433.38 810.8,-433.88 811.42,-434.4 812.03,-434.92 812.59,-435.45 813.09,-436 813.59,-436.54 814.02,-437.1 814.4,-437.66 814.78,-438.22 815.1,-438.8 815.35,-439.37 815.61,-439.95 815.8,-440.54 815.92,-441.12 816.05,-441.71 816.12,-442.3 816.12,-442.89 816.12,-442.89 776.32,-442.89 776.32,-442.89"/>
<ellipse fill="none" stroke="#2e7d32" stroke-width="2" cx="776.32" cy="-442.89" rx="39.79" ry="18"/>
<text text-anchor="middle" x="776.32" y="-439.19" font-family="Helvetica,Arial,sans-serif" font-size="14.00">Atlantis</text>
</g>
<!-- Home&#45;&gt;Atlantis -->
<g id="edge15" class="edge">
<title>Home-&gt;Atlantis</title>
<path fill="none" stroke="black" d="M597,-391.93C635.76,-402.94 702.43,-421.89 742.65,-433.32"/>
</g>
<!-- vvitch -->
<g id="node37" class="node">
<title>vvitch</title>
<path fill="#a5d6a7" stroke="#2e7d32" stroke-width="0.5" d="M407.22,-298.3C407.22,-298.3 440.52,-298.3 440.52,-298.3 440.52,-298.89 440.46,-299.48 440.36,-300.06 440.25,-300.65 440.09,-301.23 439.88,-301.81 439.66,-302.39 439.4,-302.96 439.08,-303.53 438.77,-304.09 438.4,-304.64 437.98,-305.19 437.57,-305.73 437.1,-306.27 436.59,-306.79 436.07,-307.31 435.51,-307.81 434.91,-308.3 434.3,-308.79 433.65,-309.26 432.96,-309.72 432.27,-310.17 431.54,-310.61 430.77,-311.03 429.99,-311.44 429.19,-311.84 428.34,-312.21 427.5,-312.59 426.63,-312.94 425.72,-313.27 424.81,-313.59 423.88,-313.9 422.92,-314.17 421.96,-314.45 420.97,-314.7 419.96,-314.93 418.96,-315.16 417.93,-315.35 416.89,-315.53 415.84,-315.7 414.79,-315.84 413.72,-315.95 412.65,-316.07 411.57,-316.16 410.49,-316.21 409.4,-316.27 408.31,-316.3 407.22,-316.3 406.13,-316.3 405.04,-316.27 403.96,-316.21 402.87,-316.16 401.8,-316.07 400.73,-315.95 399.66,-315.84 398.6,-315.7 397.56,-315.53 396.51,-315.35 395.49,-315.16 394.48,-314.93 393.47,-314.7 392.49,-314.45 391.53,-314.17 390.57,-313.9 389.63,-313.59 388.72,-313.27 387.82,-312.94 386.94,-312.59 386.1,-312.21 385.26,-311.84 384.45,-311.44 383.68,-311.03 382.91,-310.61 382.18,-310.17 381.49,-309.72 380.79,-309.26 380.14,-308.79 379.54,-308.3 378.93,-307.81 378.37,-307.31 377.86,-306.79 377.35,-306.27 376.88,-305.73 376.46,-305.19 376.04,-304.64 375.68,-304.09 375.36,-303.53 375.04,-302.96 374.78,-302.39 374.57,-301.81 374.35,-301.23 374.19,-300.65 374.09,-300.06 373.98,-299.48 373.93,-298.89 373.93,-298.3 373.93,-298.3 407.22,-298.3 407.22,-298.3"/>
<path fill="#ffcdd2" stroke="#2e7d32" stroke-width="0.5" d="M407.22,-298.3C407.22,-298.3 373.93,-298.3 373.93,-298.3 373.93,-297.71 373.98,-297.12 374.09,-296.54 374.19,-295.95 374.35,-295.37 374.57,-294.79 374.78,-294.21 375.04,-293.64 375.36,-293.08 375.68,-292.51 376.04,-291.96 376.46,-291.41 376.88,-290.87 377.35,-290.33 377.86,-289.82 378.37,-289.3 378.93,-288.79 379.54,-288.3 380.14,-287.81 380.79,-287.34 381.49,-286.88 382.18,-286.43 382.91,-285.99 383.68,-285.57 384.45,-285.16 385.26,-284.76 386.1,-284.39 386.94,-284.01 387.82,-283.66 388.72,-283.33 389.63,-283.01 390.57,-282.7 391.53,-282.43 392.49,-282.15 393.47,-281.9 394.48,-281.67 395.49,-281.45 396.51,-281.25 397.56,-281.08 398.6,-280.9 399.66,-280.76 400.73,-280.65 401.8,-280.53 402.87,-280.44 403.96,-280.39 405.04,-280.33 406.13,-280.3 407.22,-280.3 408.31,-280.3 409.4,-280.33 410.49,-280.39 411.57,-280.44 412.65,-280.53 413.72,-280.65 414.79,-280.76 415.84,-280.9 416.89,-281.08 417.93,-281.25 418.96,-281.45 419.96,-281.67 420.97,-281.9 421.96,-282.15 422.92,-282.43 423.88,-282.7 424.81,-283.01 425.72,-283.33 426.63,-283.66 427.5,-284.01 428.34,-284.39 429.19,-284.76 429.99,-285.16 430.77,-285.57 431.54,-285.99 432.27,-286.43 432.96,-286.88 433.65,-287.34 434.3,-287.81 434.91,-288.3 435.51,-288.79 436.07,-289.3 436.59,-289.82 437.1,-290.33 437.57,-290.87 437.98,-291.41 438.4,-291.96 438.77,-292.51 439.08,-293.08 439.4,-293.64 439.66,-294.21 439.88,-294.79 440.09,-295.37 440.25,-295.95 440.36,-296.54 440.46,-297.12 440.52,-297.71 440.52,-298.3 440.52,-298.3 407.22,-298.3 407.22,-298.3"/>
<ellipse fill="none" stroke="#2e7d32" stroke-width="2" cx="407.22" cy="-298.3" rx="33.29" ry="18"/>
<text text-anchor="middle" x="407.22" y="-294.6" font-family="Helvetica,Arial,sans-serif" font-size="14.00">vvitch</text>
</g>
<!-- Home&#45;&gt;vvitch -->
<g id="edge45" class="edge">
<title>Home-&gt;vvitch</title>
<path fill="none" stroke="#e53935" stroke-width="2" d="M542.3,-370.36C512.19,-354.29 461.09,-327.03 431.12,-311.05"/>
</g>
<!-- End_Village -->
<g id="node39" class="node">
<title>End_Village</title>
<path fill="#a5d6a7" stroke="#2e7d32" stroke-width="0.5" d="M638.17,-250.96C638.17,-250.96 693.66,-250.96 693.66,-250.96 693.66,-251.62 693.55,-252.27 693.33,-252.93 693.11,-253.58 692.78,-254.23 692.33,-254.88 691.89,-255.52 691.34,-256.15 690.68,-256.78 690.03,-257.4 689.27,-258.01 688.4,-258.61 687.54,-259.2 686.58,-259.78 685.52,-260.35 684.46,-260.91 683.31,-261.45 682.06,-261.97 680.82,-262.49 679.49,-262.99 678.08,-263.46 676.67,-263.94 675.18,-264.39 673.62,-264.81 672.05,-265.23 670.42,-265.62 668.73,-265.98 667.03,-266.34 665.28,-266.68 663.47,-266.98 661.66,-267.28 659.81,-267.55 657.91,-267.78 656.01,-268.01 654.07,-268.21 652.11,-268.38 650.14,-268.55 648.15,-268.68 646.14,-268.77 644.13,-268.86 642.11,-268.92 640.08,-268.95 638.05,-268.97 636.02,-268.95 633.99,-268.91 631.97,-268.86 629.95,-268.77 627.96,-268.65 627.96,-268.65 638.17,-250.96 638.17,-250.96"/>
<path fill="#ffcdd2" stroke="#2e7d32" stroke-width="0.5" d="M638.17,-250.96C638.17,-250.96 627.96,-268.65 627.96,-268.65 626.38,-268.55 624.82,-268.44 623.28,-268.3 621.74,-268.16 620.21,-268 618.71,-267.81 617.21,-267.63 615.74,-267.43 614.29,-267.2 612.84,-266.98 611.43,-266.74 610.05,-266.47 608.67,-266.21 607.32,-265.93 606.01,-265.63 604.71,-265.32 603.44,-265.01 602.22,-264.67 601,-264.33 599.83,-263.98 598.7,-263.61 597.58,-263.24 596.5,-262.85 595.48,-262.45 594.45,-262.05 593.48,-261.64 592.57,-261.21 591.66,-260.79 590.8,-260.35 590.01,-259.89 589.21,-259.44 588.48,-258.98 587.8,-258.51 587.13,-258.04 586.52,-257.56 585.98,-257.07 585.43,-256.58 584.96,-256.08 584.54,-255.58 584.13,-255.08 583.79,-254.57 583.51,-254.06 583.24,-253.55 583.03,-253.03 582.89,-252.51 582.75,-252 582.68,-251.48 582.68,-250.96 582.68,-250.44 582.75,-249.92 582.89,-249.4 583.03,-248.88 583.24,-248.37 583.51,-247.85 583.79,-247.34 584.13,-246.83 584.54,-246.33 584.96,-245.83 585.43,-245.33 585.98,-244.84 586.52,-244.36 587.13,-243.88 587.8,-243.4 588.48,-242.93 589.21,-242.47 590.01,-242.02 590.8,-241.57 591.66,-241.13 592.57,-240.7 593.48,-240.27 594.45,-239.86 595.48,-239.46 596.5,-239.06 597.58,-238.67 598.7,-238.3 599.83,-237.94 601,-237.58 602.22,-237.24 603.44,-236.91 604.71,-236.59 606.01,-236.29 607.32,-235.99 608.67,-235.7 610.05,-235.44 611.43,-235.18 612.84,-234.93 614.29,-234.71 615.74,-234.49 617.21,-234.28 618.71,-234.1 620.21,-233.92 621.74,-233.76 623.28,-233.62 624.82,-233.48 626.38,-233.36 627.96,-233.26 627.96,-233.26 638.17,-250.96 638.17,-250.96"/>
<path fill="#e1bee7" stroke="#2e7d32" stroke-width="0.5" d="M638.17,-250.96C638.17,-250.96 627.96,-233.26 627.96,-233.26 629.95,-233.14 631.97,-233.06 633.99,-233.01 636.02,-232.96 638.05,-232.94 640.08,-232.97 642.11,-232.99 644.13,-233.05 646.14,-233.14 648.15,-233.24 650.14,-233.37 652.11,-233.53 654.07,-233.7 656.01,-233.9 657.91,-234.13 659.81,-234.37 661.66,-234.64 663.47,-234.94 665.28,-235.24 667.03,-235.57 668.73,-235.93 670.42,-236.29 672.05,-236.69 673.62,-237.11 675.18,-237.53 676.67,-237.98 678.08,-238.45 679.49,-238.92 680.82,-239.42 682.06,-239.94 683.31,-240.46 684.46,-241.01 685.52,-241.57 686.58,-242.13 687.54,-242.71 688.4,-243.31 689.27,-243.9 690.03,-244.51 690.68,-245.14 691.34,-245.76 691.89,-246.39 692.33,-247.04 692.78,-247.68 693.11,-248.33 693.33,-248.99 693.55,-249.64 693.66,-250.3 693.66,-250.96 693.66,-250.96 638.17,-250.96 638.17,-250.96"/>
<ellipse fill="none" stroke="#2e7d32" stroke-width="2" cx="638.17" cy="-250.96" rx="55.49" ry="18"/>
<text text-anchor="middle" x="638.17" y="-247.26" font-family="Helvetica,Arial,sans-serif" font-size="14.00">End Village</text>
</g>
<!-- Home&#45;&gt;End_Village -->
<g id="edge26" class="edge">
<title>Home-&gt;End_Village</title>
<path fill="none" stroke="#c62828" d="M576.01,-365.69C589.64,-340.53 614.6,-294.46 628.38,-269.02"/>
</g>
<!-- Junction3 -->
<!-- Home&#45;&gt;Junction3 -->
<g id="edge21" class="edge">
<title>Home-&gt;Junction3</title>
<path fill="none" stroke="#c62828" d="M569.65,-401.28C576.77,-441.89 593.5,-537.28 594.02,-540.25"/>
</g>
<!-- Junction7 -->
<!-- Home&#45;&gt;Junction7 -->
<g id="edge35" class="edge">
<title>Home-&gt;Junction7</title>
<path fill="none" stroke="#c62828" d="M552.75,-366.52C525.7,-333.58 468,-263.3 466.2,-261.12"/>
</g>
<!-- Baddylands -->
<g id="node25" class="node">
<title>Baddylands</title>
<path fill="#a5d6a7" stroke="#2e7d32" stroke-width="0.5" d="M732.89,-913.47C732.89,-913.47 789.48,-913.47 789.48,-913.47 789.48,-914.06 789.39,-914.65 789.21,-915.23 789.03,-915.82 788.76,-916.4 788.4,-916.98 788.03,-917.56 787.58,-918.13 787.05,-918.7 786.51,-919.26 785.88,-919.81 785.18,-920.36 784.47,-920.9 783.67,-921.44 782.8,-921.96 781.93,-922.47 780.98,-922.98 779.95,-923.47 778.92,-923.96 777.81,-924.43 776.64,-924.89 775.46,-925.34 774.22,-925.78 772.91,-926.2 771.6,-926.61 770.23,-927.01 768.79,-927.38 767.36,-927.76 765.87,-928.11 764.33,-928.44 762.79,-928.76 761.2,-929.07 759.57,-929.34 757.94,-929.62 756.26,-929.87 754.55,-930.1 752.84,-930.33 751.09,-930.52 749.32,-930.69 747.55,-930.87 745.75,-931.01 743.93,-931.12 742.12,-931.24 740.28,-931.33 738.44,-931.38 736.6,-931.44 734.75,-931.47 732.89,-931.47 731.04,-931.47 729.19,-931.44 727.35,-931.38 725.5,-931.33 723.67,-931.24 721.85,-931.12 720.04,-931.01 718.24,-930.87 716.47,-930.69 714.69,-930.52 712.95,-930.33 711.24,-930.1 709.53,-929.87 707.85,-929.62 706.22,-929.34 704.58,-929.07 702.99,-928.76 701.45,-928.44 699.91,-928.11 698.42,-927.76 696.99,-927.38 695.56,-927.01 694.19,-926.61 692.88,-926.2 691.57,-925.78 690.32,-925.34 689.15,-924.89 687.97,-924.43 686.87,-923.96 685.84,-923.47 684.81,-922.98 683.86,-922.47 682.99,-921.96 682.11,-921.44 681.32,-920.9 680.61,-920.36 679.9,-919.81 679.28,-919.26 678.74,-918.7 678.2,-918.13 677.75,-917.56 677.39,-916.98 677.03,-916.4 676.76,-915.82 676.58,-915.23 676.39,-914.65 676.3,-914.06 676.3,-913.47 676.3,-913.47 732.89,-913.47 732.89,-913.47"/>
<path fill="#ffcdd2" stroke="#2e7d32" stroke-width="0.5" d="M732.89,-913.47C732.89,-913.47 676.3,-913.47 676.3,-913.47 676.3,-912.88 676.39,-912.29 676.58,-911.71 676.76,-911.12 677.03,-910.54 677.39,-909.96 677.75,-909.38 678.2,-908.81 678.74,-908.24 679.28,-907.68 679.9,-907.13 680.61,-906.58 681.32,-906.04 682.11,-905.5 682.99,-904.98 683.86,-904.47 684.81,-903.96 685.84,-903.47 686.87,-902.98 687.97,-902.51 689.15,-902.05 690.32,-901.6 691.57,-901.16 692.88,-900.74 694.19,-900.33 695.56,-899.93 696.99,-899.56 698.42,-899.18 699.91,-898.83 701.45,-898.5 702.99,-898.18 704.58,-897.87 706.22,-897.6 707.85,-897.32 709.53,-897.07 711.24,-896.84 712.95,-896.61 714.69,-896.42 716.47,-896.24 718.24,-896.07 720.04,-895.93 721.85,-895.82 723.67,-895.7 725.5,-895.61 727.35,-895.56 729.19,-895.5 731.04,-895.47 732.89,-895.47 734.75,-895.47 736.6,-895.5 738.44,-895.56 740.28,-895.61 742.12,-895.7 743.93,-895.82 745.75,-895.93 747.55,-896.07 749.32,-896.24 751.09,-896.42 752.84,-896.61 754.55,-896.84 756.26,-897.07 757.94,-897.32 759.57,-897.6 761.2,-897.87 762.79,-898.18 764.33,-898.5 765.87,-898.83 767.36,-899.18 768.79,-899.56 770.23,-899.93 771.6,-900.33 772.91,-900.74 774.22,-901.16 775.46,-901.6 776.64,-902.05 777.81,-902.51 778.92,-902.98 779.95,-903.47 780.98,-903.96 781.93,-904.47 782.8,-904.98 783.67,-905.5 784.47,-906.04 785.18,-906.58 785.88,-907.13 786.51,-907.68 787.05,-908.24 787.58,-908.81 788.03,-909.38 788.4,-909.96 788.76,-910.54 789.03,-911.12 789.21,-911.71 789.39,-912.29 789.48,-912.88 789.48,-913.47 789.48,-913.47 732.89,-913.47 732.89,-913.47"/>
<ellipse fill="none" stroke="#2e7d32" stroke-width="2" cx="732.89" cy="-913.47" rx="56.59" ry="18"/>
<text text-anchor="middle" x="732.89" y="-909.77" font-family="Helvetica,Arial,sans-serif" font-size="14.00">Baddylands</text>
</g>
<!-- Portal_Island -->
<g id="node26" class="node">
<title>Portal_Island</title>
<path fill="#a5d6a7" stroke="#2e7d32" stroke-width="0.5" d="M596.01,-852.79C596.01,-852.79 655.6,-852.79 655.6,-852.79 655.6,-853.38 655.51,-853.97 655.32,-854.56 655.12,-855.14 654.84,-855.73 654.46,-856.31 654.08,-856.88 653.6,-857.46 653.04,-858.02 652.47,-858.58 651.81,-859.14 651.07,-859.68 650.32,-860.23 649.49,-860.76 648.57,-861.28 647.65,-861.8 646.64,-862.3 645.56,-862.79 644.48,-863.28 643.31,-863.76 642.08,-864.21 640.84,-864.67 639.53,-865.11 638.15,-865.52 636.77,-865.94 635.32,-866.33 633.82,-866.71 632.31,-867.08 630.74,-867.43 629.12,-867.76 627.5,-868.09 625.82,-868.39 624.1,-868.67 622.38,-868.95 620.62,-869.2 618.82,-869.42 617.01,-869.65 615.18,-869.85 613.31,-870.02 611.44,-870.19 609.55,-870.33 607.64,-870.45 605.73,-870.56 603.79,-870.65 601.85,-870.71 599.91,-870.77 597.96,-870.79 596.01,-870.79 594.06,-870.79 592.11,-870.77 590.17,-870.71 588.23,-870.65 586.3,-870.56 584.39,-870.45 582.47,-870.33 580.58,-870.19 578.71,-870.02 576.85,-869.85 575.01,-869.65 573.21,-869.42 571.41,-869.2 569.64,-868.95 567.92,-868.67 566.2,-868.39 564.53,-868.09 562.91,-867.76 561.28,-867.43 559.72,-867.08 558.21,-866.71 556.7,-866.33 555.26,-865.94 553.88,-865.52 552.5,-865.11 551.19,-864.67 549.95,-864.21 548.71,-863.76 547.55,-863.28 546.47,-862.79 545.38,-862.3 544.38,-861.8 543.46,-861.28 542.54,-860.76 541.71,-860.23 540.96,-859.68 540.21,-859.14 539.55,-858.58 538.99,-858.02 538.42,-857.46 537.95,-856.88 537.57,-856.31 537.19,-855.73 536.9,-855.14 536.71,-854.56 536.52,-853.97 536.42,-853.38 536.42,-852.79 536.42,-852.79 596.01,-852.79 596.01,-852.79"/>
<path fill="#ffcdd2" stroke="#2e7d32" stroke-width="0.5" d="M596.01,-852.79C596.01,-852.79 536.42,-852.79 536.42,-852.79 536.42,-852.21 536.52,-851.62 536.71,-851.03 536.9,-850.44 537.19,-849.86 537.57,-849.28 537.95,-848.7 538.42,-848.13 538.99,-847.57 539.55,-847.01 540.21,-846.45 540.96,-845.91 541.71,-845.36 542.54,-844.83 543.46,-844.31 544.38,-843.79 545.38,-843.28 546.47,-842.79 547.55,-842.3 548.71,-841.83 549.95,-841.38 551.19,-840.92 552.5,-840.48 553.88,-840.07 555.26,-839.65 556.7,-839.25 558.21,-838.88 559.72,-838.51 561.28,-838.16 562.91,-837.83 564.53,-837.5 566.2,-837.2 567.92,-836.92 569.64,-836.64 571.41,-836.39 573.21,-836.16 575.01,-835.94 576.85,-835.74 578.71,-835.57 580.58,-835.4 582.47,-835.26 584.39,-835.14 586.3,-835.03 588.23,-834.94 590.17,-834.88 592.11,-834.82 594.06,-834.79 596.01,-834.79 597.96,-834.79 599.91,-834.82 601.85,-834.88 603.79,-834.94 605.73,-835.03 607.64,-835.14 609.55,-835.26 611.44,-835.4 613.31,-835.57 615.18,-835.74 617.01,-835.94 618.82,-836.16 620.62,-836.39 622.38,-836.64 624.1,-836.92 625.82,-837.2 627.5,-837.5 629.12,-837.83 630.74,-838.16 632.31,-838.51 633.82,-838.88 635.32,-839.25 636.77,-839.65 638.15,-840.07 639.53,-840.48 640.84,-840.92 642.08,-841.38 643.31,-841.83 644.48,-842.3 645.56,-842.79 646.64,-843.28 647.65,-843.79 648.57,-844.31 649.49,-844.83 650.32,-845.36 651.07,-845.91 651.81,-846.45 652.47,-847.01 653.04,-847.57 653.6,-848.13 654.08,-848.7 654.46,-849.28 654.84,-849.86 655.12,-850.44 655.32,-851.03 655.51,-851.62 655.6,-852.21 655.6,-852.79 655.6,-852.79 596.01,-852.79 596.01,-852.79"/>
<ellipse fill="none" stroke="#2e7d32" stroke-width="2" cx="596.01" cy="-852.79" rx="59.59" ry="18"/>
<text text-anchor="middle" x="596.01" y="-849.09" font-family="Helvetica,Arial,sans-serif" font-size="14.00">Portal Island</text>
</g>
<!-- Portal_Island&#45;&gt;Desert_Village -->
<g id="edge14" class="edge">
<title>Portal_Island-&gt;Desert_Village</title>
<path fill="none" stroke="black" d="M594.15,-871.15C592.12,-891.17 588.9,-923.01 586.88,-942.92"/>
</g>
<!-- _2UBO -->
<g id="node27" class="node">
<title>_2UBO</title>
<path fill="#a5d6a7" stroke="#2e7d32" stroke-width="0.5" d="M452.6,-798.94C452.6,-798.94 487.79,-798.94 487.79,-798.94 487.79,-799.53 487.74,-800.12 487.62,-800.7 487.51,-801.29 487.34,-801.87 487.12,-802.45 486.89,-803.03 486.61,-803.6 486.28,-804.16 485.94,-804.73 485.55,-805.28 485.11,-805.83 484.67,-806.37 484.18,-806.9 483.64,-807.42 483.09,-807.94 482.5,-808.45 481.86,-808.94 481.22,-809.43 480.54,-809.9 479.8,-810.36 479.07,-810.81 478.3,-811.25 477.49,-811.67 476.67,-812.08 475.82,-812.48 474.93,-812.85 474.04,-813.23 473.11,-813.58 472.15,-813.91 471.19,-814.23 470.21,-814.54 469.19,-814.81 468.17,-815.09 467.13,-815.34 466.07,-815.57 465,-815.79 463.92,-815.99 462.82,-816.16 461.71,-816.33 460.59,-816.48 459.47,-816.59 458.34,-816.71 457.2,-816.79 456.05,-816.85 454.9,-816.91 453.75,-816.94 452.6,-816.94 451.45,-816.94 450.3,-816.91 449.15,-816.85 448,-816.79 446.86,-816.71 445.73,-816.59 444.6,-816.48 443.49,-816.33 442.38,-816.16 441.28,-815.99 440.2,-815.79 439.13,-815.57 438.07,-815.34 437.02,-815.09 436.01,-814.81 434.99,-814.54 434,-814.23 433.05,-813.91 432.09,-813.58 431.16,-813.23 430.27,-812.85 429.38,-812.48 428.53,-812.08 427.71,-811.67 426.9,-811.25 426.12,-810.81 425.39,-810.36 424.66,-809.9 423.98,-809.43 423.34,-808.94 422.7,-808.45 422.1,-807.94 421.56,-807.42 421.02,-806.9 420.52,-806.37 420.08,-805.83 419.64,-805.28 419.25,-804.73 418.92,-804.16 418.59,-803.6 418.31,-803.03 418.08,-802.45 417.86,-801.87 417.69,-801.29 417.57,-800.7 417.46,-800.12 417.41,-799.53 417.41,-798.94 417.41,-798.94 452.6,-798.94 452.6,-798.94"/>
<path fill="#ffcdd2" stroke="#2e7d32" stroke-width="0.5" d="M452.6,-798.94C452.6,-798.94 417.41,-798.94 417.41,-798.94 417.41,-798.35 417.46,-797.76 417.57,-797.17 417.69,-796.59 417.86,-796 418.08,-795.43 418.31,-794.85 418.59,-794.28 418.92,-793.71 419.25,-793.15 419.64,-792.59 420.08,-792.05 420.52,-791.51 421.02,-790.97 421.56,-790.45 422.1,-789.93 422.7,-789.43 423.34,-788.94 423.98,-788.45 424.66,-787.97 425.39,-787.52 426.12,-787.06 426.9,-786.63 427.71,-786.21 428.53,-785.79 429.38,-785.4 430.27,-785.02 431.16,-784.65 432.09,-784.3 433.05,-783.97 434,-783.64 434.99,-783.34 436.01,-783.06 437.02,-782.79 438.07,-782.53 439.13,-782.31 440.2,-782.08 441.28,-781.88 442.38,-781.71 443.49,-781.54 444.6,-781.4 445.73,-781.28 446.86,-781.17 448,-781.08 449.15,-781.03 450.3,-780.97 451.45,-780.94 452.6,-780.94 453.75,-780.94 454.9,-780.97 456.05,-781.03 457.2,-781.08 458.34,-781.17 459.47,-781.28 460.59,-781.4 461.71,-781.54 462.82,-781.71 463.92,-781.88 465,-782.08 466.07,-782.31 467.13,-782.53 468.17,-782.79 469.19,-783.06 470.21,-783.34 471.19,-783.64 472.15,-783.97 473.11,-784.3 474.04,-784.65 474.93,-785.02 475.82,-785.4 476.67,-785.79 477.49,-786.21 478.3,-786.63 479.07,-787.06 479.8,-787.52 480.54,-787.97 481.22,-788.45 481.86,-788.94 482.5,-789.43 483.09,-789.93 483.64,-790.45 484.18,-790.97 484.67,-791.51 485.11,-792.05 485.55,-792.59 485.94,-793.15 486.28,-793.71 486.61,-794.28 486.89,-794.85 487.12,-795.43 487.34,-796 487.51,-796.59 487.62,-797.17 487.74,-797.76 487.79,-798.35 487.79,-798.94 487.79,-798.94 452.6,-798.94 452.6,-798.94"/>
<ellipse fill="none" stroke="#2e7d32" stroke-width="2" cx="452.6" cy="-798.94" rx="35.19" ry="18"/>
<text text-anchor="middle" x="452.6" y="-795.24" font-family="Helvetica,Arial,sans-serif" font-size="14.00">2UBO</text>
</g>
<!-- CUBO&#45;&gt;Squid_Farm -->
<g id="edge16" class="edge">
<title>CUBO-&gt;Squid_Farm</title>
<path fill="none" stroke="black" d="M383.18,-714.54C371.48,-723.53 356.65,-734.93 344.62,-744.18"/>
<text text-anchor="middle" x="344.4" y="-718.16" font-family="Helvetica,Arial,sans-serif" font-size="14.00">scenic</text>
</g>
<!-- CUBO&#45;&gt;Worrton -->
<g id="edge17" class="edge">
<title>CUBO-&gt;Worrton</title>
<path fill="none" stroke="black" d="M396.89,-717.37C390,-737.66 378.89,-770.39 372,-790.7"/>
</g>
<!-- CUBO&#45;&gt;_2UBO -->
<g id="edge25" class="edge">
<title>CUBO-&gt;_2UBO</title>
<path fill="none" stroke="#c62828" d="M411.89,-717.1C420.91,-735.24 434.82,-763.19 443.81,-781.28"/>
</g>
<!-- Sand_Mine -->
<g id="node31" class="node">
<title>Sand_Mine</title>
<path fill="#a5d6a7" stroke="#2e7d32" stroke-width="0.5" d="M1005.18,-660.6C1005.18,-660.6 1058.27,-660.6 1058.27,-660.6 1058.27,-661.19 1058.19,-661.78 1058.02,-662.36 1057.85,-662.95 1057.59,-663.53 1057.25,-664.11 1056.92,-664.69 1056.49,-665.26 1055.99,-665.82 1055.48,-666.39 1054.9,-666.94 1054.23,-667.49 1053.57,-668.03 1052.82,-668.56 1052.01,-669.08 1051.19,-669.6 1050.29,-670.11 1049.33,-670.6 1048.36,-671.09 1047.33,-671.56 1046.22,-672.02 1045.12,-672.47 1043.95,-672.91 1042.72,-673.33 1041.5,-673.74 1040.21,-674.14 1038.86,-674.51 1037.52,-674.89 1036.12,-675.24 1034.68,-675.57 1033.23,-675.89 1031.74,-676.2 1030.21,-676.47 1028.68,-676.75 1027.11,-677 1025.5,-677.23 1023.89,-677.45 1022.26,-677.65 1020.59,-677.82 1018.93,-677.99 1017.25,-678.14 1015.54,-678.25 1013.84,-678.37 1012.12,-678.45 1010.39,-678.51 1008.66,-678.57 1006.92,-678.6 1005.18,-678.6 1003.45,-678.6 1001.71,-678.57 999.98,-678.51 998.25,-678.45 996.53,-678.37 994.83,-678.25 993.12,-678.14 991.43,-677.99 989.77,-677.82 988.11,-677.65 986.47,-677.45 984.87,-677.23 983.26,-677 981.69,-676.75 980.16,-676.47 978.62,-676.2 977.13,-675.89 975.69,-675.57 974.24,-675.24 972.85,-674.89 971.5,-674.51 970.16,-674.14 968.87,-673.74 967.64,-673.33 966.41,-672.91 965.25,-672.47 964.14,-672.02 963.04,-671.56 962,-671.09 961.04,-670.6 960.07,-670.11 959.18,-669.6 958.36,-669.08 957.54,-668.56 956.8,-668.03 956.13,-667.49 955.47,-666.94 954.88,-666.39 954.38,-665.82 953.87,-665.26 953.45,-664.69 953.11,-664.11 952.77,-663.53 952.52,-662.95 952.35,-662.36 952.18,-661.78 952.09,-661.19 952.09,-660.6 952.09,-660.6 1005.18,-660.6 1005.18,-660.6"/>
<path fill="#ffcdd2" stroke="#2e7d32" stroke-width="0.5" d="M1005.18,-660.6C1005.18,-660.6 952.09,-660.6 952.09,-660.6 952.09,-660.01 952.18,-659.42 952.35,-658.83 952.52,-658.25 952.77,-657.66 953.11,-657.09 953.45,-656.51 953.87,-655.94 954.38,-655.37 954.88,-654.81 955.47,-654.25 956.13,-653.71 956.8,-653.17 957.54,-652.63 958.36,-652.11 959.18,-651.59 960.07,-651.09 961.04,-650.6 962,-650.11 963.04,-649.64 964.14,-649.18 965.25,-648.72 966.41,-648.29 967.64,-647.87 968.87,-647.45 970.16,-647.06 971.5,-646.68 972.85,-646.31 974.24,-645.96 975.69,-645.63 977.13,-645.3 978.62,-645 980.16,-644.72 981.69,-644.45 983.26,-644.19 984.87,-643.97 986.47,-643.74 988.11,-643.54 989.77,-643.37 991.43,-643.2 993.12,-643.06 994.83,-642.94 996.53,-642.83 998.25,-642.74 999.98,-642.69 1001.71,-642.63 1003.45,-642.6 1005.18,-642.6 1006.92,-642.6 1008.66,-642.63 1010.39,-642.69 1012.12,-642.74 1013.84,-642.83 1015.54,-642.94 1017.25,-643.06 1018.93,-643.2 1020.59,-643.37 1022.26,-643.54 1023.89,-643.74 1025.5,-643.97 1027.11,-644.19 1028.68,-644.45 1030.21,-644.72 1031.74,-645 1033.23,-645.3 1034.68,-645.63 1036.12,-645.96 1037.52,-646.31 1038.86,-646.68 1040.21,-647.06 1041.5,-647.45 1042.72,-647.87 1043.95,-648.29 1045.12,-648.72 1046.22,-649.18 1047.33,-649.64 1048.36,-650.11 1049.33,-650.6 1050.29,-651.09 1051.19,-651.59 1052.01,-652.11 1052.82,-652.63 1053.57,-653.17 1054.23,-653.71 1054.9,-654.25 1055.48,-654.81 1055.99,-655.37 1056.49,-655.94 1056.92,-656.51 1057.25,-657.09 1057.59,-657.66 1057.85,-658.25 1058.02,-658.83 1058.19,-659.42 1058.27,-660.01 1058.27,-660.6 1058.27,-660.6 1005.18,-660.6 1005.18,-660.6"/>
<ellipse fill="none" stroke="#2e7d32" stroke-width="2" cx="1005.18" cy="-660.6" rx="53.09" ry="18"/>
<text text-anchor="middle" x="1005.18" y="-656.9" font-family="Helvetica,Arial,sans-serif" font-size="14.00">Sand Mine</text>
</g>
<!-- Sand_Mine&#45;&gt;Frog -->
<g id="edge33" class="edge">
<title>Sand_Mine-&gt;Frog</title>
<path fill="none" stroke="#c62828" d="M1037.81,-674.89C1048.59,-679.61 1060.6,-684.87 1071.49,-689.64"/>
</g>
<!-- Ancient_City -->
<g id="node32" class="node">
<title>Ancient_City</title>
<path fill="#a5d6a7" stroke="#2e7d32" stroke-width="0.5" d="M881.9,-484.96C881.9,-484.96 939.59,-484.96 939.59,-484.96 939.59,-485.55 939.5,-486.13 939.32,-486.72 939.13,-487.31 938.85,-487.89 938.48,-488.47 938.12,-489.05 937.66,-489.62 937.11,-490.18 936.56,-490.75 935.92,-491.3 935.2,-491.84 934.48,-492.39 933.67,-492.92 932.78,-493.44 931.89,-493.96 930.92,-494.47 929.87,-494.96 928.82,-495.45 927.7,-495.92 926.5,-496.38 925.3,-496.83 924.03,-497.27 922.7,-497.68 921.36,-498.1 919.96,-498.5 918.5,-498.87 917.04,-499.24 915.52,-499.6 913.95,-499.92 912.38,-500.25 910.76,-500.55 909.1,-500.83 907.43,-501.11 905.72,-501.36 903.98,-501.59 902.24,-501.81 900.46,-502.01 898.65,-502.18 896.84,-502.35 895.01,-502.5 893.16,-502.61 891.31,-502.73 889.44,-502.81 887.56,-502.87 885.68,-502.93 883.79,-502.96 881.9,-502.96 880.01,-502.96 878.13,-502.93 876.25,-502.87 874.37,-502.81 872.5,-502.73 870.65,-502.61 868.8,-502.5 866.96,-502.35 865.16,-502.18 863.35,-502.01 861.57,-501.81 859.83,-501.59 858.08,-501.36 856.37,-501.11 854.71,-500.83 853.04,-500.55 851.42,-500.25 849.85,-499.92 848.28,-499.6 846.76,-499.24 845.3,-498.87 843.85,-498.5 842.45,-498.1 841.11,-497.68 839.77,-497.27 838.51,-496.83 837.31,-496.38 836.11,-495.92 834.98,-495.45 833.94,-494.96 832.89,-494.47 831.92,-493.96 831.02,-493.44 830.13,-492.92 829.33,-492.39 828.6,-491.84 827.88,-491.3 827.25,-490.75 826.7,-490.18 826.15,-489.62 825.69,-489.05 825.32,-488.47 824.95,-487.89 824.68,-487.31 824.49,-486.72 824.31,-486.13 824.21,-485.55 824.21,-484.96 824.21,-484.96 881.9,-484.96 881.9,-484.96"/>
<path fill="#ffcdd2" stroke="#2e7d32" stroke-width="0.5" d="M881.9,-484.96C881.9,-484.96 824.21,-484.96 824.21,-484.96 824.21,-484.37 824.31,-483.78 824.49,-483.19 824.68,-482.61 824.95,-482.02 825.32,-481.44 825.69,-480.87 826.15,-480.3 826.7,-479.73 827.25,-479.17 827.88,-478.61 828.6,-478.07 829.33,-477.52 830.13,-476.99 831.02,-476.47 831.92,-475.95 832.89,-475.45 833.94,-474.96 834.98,-474.47 836.11,-473.99 837.31,-473.54 838.51,-473.08 839.77,-472.65 841.11,-472.23 842.45,-471.81 843.85,-471.42 845.3,-471.04 846.76,-470.67 848.28,-470.32 849.85,-469.99 851.42,-469.66 853.04,-469.36 854.71,-469.08 856.37,-468.8 858.08,-468.55 859.83,-468.33 861.57,-468.1 863.35,-467.9 865.16,-467.73 866.96,-467.56 868.8,-467.42 870.65,-467.3 872.5,-467.19 874.37,-467.1 876.25,-467.04 878.13,-466.99 880.01,-466.96 881.9,-466.96 883.79,-466.96 885.68,-466.99 887.56,-467.04 889.44,-467.1 891.31,-467.19 893.16,-467.3 895.01,-467.42 896.84,-467.56 898.65,-467.73 900.46,-467.9 902.24,-468.1 903.98,-468.33 905.72,-468.55 907.43,-468.8 909.1,-469.08 910.76,-469.36 912.38,-469.66 913.95,-469.99 915.52,-470.32 917.04,-470.67 918.5,-471.04 919.96,-471.42 921.36,-471.81 922.7,-472.23 924.03,-472.65 925.3,-473.08 926.5,-473.54 927.7,-473.99 928.82,-474.47 929.87,-474.96 930.92,-475.45 931.89,-475.95 932.78,-476.47 933.67,-476.99 934.48,-477.52 935.2,-478.07 935.92,-478.61 936.56,-479.17 937.11,-479.73 937.66,-480.3 938.12,-480.87 938.48,-481.44 938.85,-482.02 939.13,-482.61 939.32,-483.19 939.5,-483.78 939.59,-484.37 939.59,-484.96 939.59,-484.96 881.9,-484.96 881.9,-484.96"/>
<ellipse fill="none" stroke="#2e7d32" stroke-width="2" cx="881.9" cy="-484.96" rx="57.69" ry="18"/>
<text text-anchor="middle" x="881.9" y="-481.26" font-family="Helvetica,Arial,sans-serif" font-size="14.00">Ancient City</text>
</g>
<!-- Ancient_City&#45;&gt;Atlantis -->
<g id="edge29" class="edge">
<title>Ancient_City-&gt;Atlantis</title>
<path fill="none" stroke="#c62828" d="M846.16,-470.71C833.24,-465.56 818.79,-459.81 806.4,-454.87"/>
</g>
<!-- Duncs_Mistake -->
<g id="node33" class="node">
<title>Duncs_Mistake</title>
<path fill="#a5d6a7" stroke="#2e7d32" stroke-width="0.5" d="M599.4,-745.07C599.4,-745.07 670.09,-745.07 670.09,-745.07 670.09,-745.66 669.98,-746.25 669.75,-746.84 669.52,-747.42 669.18,-748 668.73,-748.58 668.28,-749.16 667.72,-749.73 667.05,-750.3 666.37,-750.86 665.59,-751.41 664.71,-751.96 663.82,-752.5 662.83,-753.04 661.74,-753.56 660.65,-754.08 659.46,-754.58 658.18,-755.07 656.89,-755.56 655.51,-756.03 654.04,-756.49 652.58,-756.95 651.02,-757.38 649.39,-757.8 647.75,-758.22 646.03,-758.61 644.25,-758.98 642.46,-759.36 640.6,-759.71 638.67,-760.04 636.75,-760.36 634.76,-760.67 632.72,-760.95 630.68,-761.22 628.59,-761.48 626.45,-761.7 624.32,-761.93 622.14,-762.12 619.92,-762.3 617.71,-762.47 615.46,-762.61 613.19,-762.72 610.92,-762.84 608.63,-762.93 606.33,-762.98 604.03,-763.04 601.72,-763.07 599.4,-763.07 597.09,-763.07 594.78,-763.04 592.47,-762.98 590.17,-762.93 587.88,-762.84 585.61,-762.72 583.34,-762.61 581.1,-762.47 578.88,-762.3 576.67,-762.12 574.49,-761.93 572.35,-761.7 570.21,-761.48 568.12,-761.22 566.08,-760.95 564.04,-760.67 562.05,-760.36 560.13,-760.04 558.21,-759.71 556.35,-759.36 554.56,-758.98 552.77,-758.61 551.05,-758.22 549.42,-757.8 547.78,-757.38 546.23,-756.95 544.76,-756.49 543.29,-756.03 541.91,-755.56 540.63,-755.07 539.34,-754.58 538.15,-754.08 537.06,-753.56 535.97,-753.04 534.98,-752.5 534.1,-751.96 533.21,-751.41 532.43,-750.86 531.76,-750.3 531.09,-749.73 530.52,-749.16 530.07,-748.58 529.62,-748 529.28,-747.42 529.05,-746.84 528.83,-746.25 528.71,-745.66 528.71,-745.07 528.71,-745.07 599.4,-745.07 599.4,-745.07"/>
<path fill="#ffcdd2" stroke="#2e7d32" stroke-width="0.5" d="M599.4,-745.07C599.4,-745.07 528.71,-745.07 528.71,-745.07 528.71,-744.48 528.83,-743.89 529.05,-743.31 529.28,-742.72 529.62,-742.14 530.07,-741.56 530.52,-740.98 531.09,-740.41 531.76,-739.85 532.43,-739.28 533.21,-738.73 534.1,-738.18 534.98,-737.64 535.97,-737.11 537.06,-736.59 538.15,-736.07 539.34,-735.56 540.63,-735.07 541.91,-734.58 543.29,-734.11 544.76,-733.65 546.23,-733.2 547.78,-732.76 549.42,-732.34 551.05,-731.93 552.77,-731.53 554.56,-731.16 556.35,-730.78 558.21,-730.43 560.13,-730.1 562.05,-729.78 564.04,-729.47 566.08,-729.2 568.12,-728.92 570.21,-728.67 572.35,-728.44 574.49,-728.22 576.67,-728.02 578.88,-727.85 581.1,-727.67 583.34,-727.53 585.61,-727.42 587.88,-727.3 590.17,-727.22 592.47,-727.16 594.78,-727.1 597.09,-727.07 599.4,-727.07 601.72,-727.07 604.03,-727.1 606.33,-727.16 608.63,-727.22 610.92,-727.3 613.19,-727.42 615.46,-727.53 617.71,-727.67 619.92,-727.85 622.14,-728.02 624.32,-728.22 626.45,-728.44 628.59,-728.67 630.68,-728.92 632.72,-729.2 634.76,-729.47 636.75,-729.78 638.67,-730.1 640.6,-730.43 642.46,-730.78 644.25,-731.16 646.03,-731.53 647.75,-731.93 649.39,-732.34 651.02,-732.76 652.58,-733.2 654.04,-733.65 655.51,-734.11 656.89,-734.58 658.18,-735.07 659.46,-735.56 660.65,-736.07 661.74,-736.59 662.83,-737.11 663.82,-737.64 664.71,-738.18 665.59,-738.73 666.37,-739.28 667.05,-739.85 667.72,-740.41 668.28,-740.98 668.73,-741.56 669.18,-742.14 669.52,-742.72 669.75,-743.31 669.98,-743.89 670.09,-744.48 670.09,-745.07 670.09,-745.07 599.4,-745.07 599.4,-745.07"/>
<ellipse fill="none" stroke="#2e7d32" stroke-width="2" cx="599.4" cy="-745.07" rx="70.69" ry="18"/>
<text text-anchor="middle" x="599.4" y="-741.37" font-family="Helvetica,Arial,sans-serif" font-size="14.00">Dunc's Mistake</text>
</g>
<!-- Duncs_Mistake&#45;&gt;Portal_Island -->
<g id="edge23" class="edge">
<title>Duncs_Mistake-&gt;Portal_Island</title>
<path fill="none" stroke="#c62828" d="M598.83,-763.34C598.2,-783.27 597.2,-814.97 596.58,-834.79"/>
<text text-anchor="middle" x="578.2" y="-802.87" font-family="Helvetica,Arial,sans-serif" font-size="14.00">scenic</text>
</g>
<!-- Junction6 -->
<!-- Duncs_Mistake&#45;&gt;Junction6 -->
<g id="edge43" class="edge">
<title>Duncs_Mistake-&gt;Junction6</title>
<path fill="none" stroke="#e53935" stroke-width="2" d="M616.3,-762.8C638.04,-785.6 673.27,-822.56 675.45,-824.84"/>
</g>
<!-- Frigidaire_ad -->
<g id="node34" class="node">
<title>Frigidaire_ad</title>
<path fill="#a5d6a7" stroke="#2e7d32" stroke-width="0.5" d="M502.14,-154.1C502.14,-154.1 566.33,-154.1 566.33,-154.1 566.33,-154.69 566.23,-155.28 566.02,-155.87 565.82,-156.45 565.51,-157.04 565.1,-157.62 564.69,-158.19 564.18,-158.77 563.57,-159.33 562.96,-159.89 562.25,-160.45 561.44,-160.99 560.64,-161.54 559.74,-162.07 558.75,-162.59 557.76,-163.11 556.68,-163.61 555.51,-164.1 554.35,-164.59 553.09,-165.07 551.76,-165.52 550.43,-165.98 549.02,-166.42 547.53,-166.83 546.04,-167.25 544.49,-167.64 542.86,-168.02 541.24,-168.39 539.55,-168.74 537.8,-169.07 536.06,-169.4 534.25,-169.7 532.4,-169.98 530.55,-170.26 528.65,-170.51 526.71,-170.73 524.76,-170.96 522.78,-171.16 520.77,-171.33 518.76,-171.5 516.72,-171.64 514.66,-171.76 512.6,-171.87 510.52,-171.96 508.43,-172.02 506.34,-172.08 504.24,-172.1 502.14,-172.1 500.04,-172.1 497.94,-172.08 495.85,-172.02 493.76,-171.96 491.68,-171.87 489.62,-171.76 487.56,-171.64 485.52,-171.5 483.51,-171.33 481.5,-171.16 479.52,-170.96 477.58,-170.73 475.64,-170.51 473.74,-170.26 471.88,-169.98 470.03,-169.7 468.23,-169.4 466.48,-169.07 464.73,-168.74 463.04,-168.39 461.42,-168.02 459.8,-167.64 458.24,-167.25 456.75,-166.83 455.27,-166.42 453.86,-165.98 452.52,-165.52 451.19,-165.07 449.94,-164.59 448.77,-164.1 447.6,-163.61 446.52,-163.11 445.53,-162.59 444.54,-162.07 443.64,-161.54 442.84,-160.99 442.03,-160.45 441.33,-159.89 440.72,-159.33 440.11,-158.77 439.6,-158.19 439.19,-157.62 438.78,-157.04 438.47,-156.45 438.26,-155.87 438.06,-155.28 437.95,-154.69 437.95,-154.1 437.95,-154.1 502.14,-154.1 502.14,-154.1"/>
<path fill="#ffcdd2" stroke="#2e7d32" stroke-width="0.5" d="M502.14,-154.1C502.14,-154.1 437.95,-154.1 437.95,-154.1 437.95,-153.52 438.06,-152.93 438.26,-152.34 438.47,-151.75 438.78,-151.17 439.19,-150.59 439.6,-150.01 440.11,-149.44 440.72,-148.88 441.33,-148.32 442.03,-147.76 442.84,-147.22 443.64,-146.67 444.54,-146.14 445.53,-145.62 446.52,-145.1 447.6,-144.59 448.77,-144.1 449.94,-143.61 451.19,-143.14 452.52,-142.69 453.86,-142.23 455.27,-141.79 456.75,-141.38 458.24,-140.96 459.8,-140.56 461.42,-140.19 463.04,-139.82 464.73,-139.47 466.48,-139.14 468.23,-138.81 470.03,-138.51 471.88,-138.23 473.74,-137.95 475.64,-137.7 477.58,-137.47 479.52,-137.25 481.5,-137.05 483.51,-136.88 485.52,-136.71 487.56,-136.57 489.62,-136.45 491.68,-136.34 493.76,-136.25 495.85,-136.19 497.94,-136.13 500.04,-136.1 502.14,-136.1 504.24,-136.1 506.34,-136.13 508.43,-136.19 510.52,-136.25 512.6,-136.34 514.66,-136.45 516.72,-136.57 518.76,-136.71 520.77,-136.88 522.78,-137.05 524.76,-137.25 526.71,-137.47 528.65,-137.7 530.55,-137.95 532.4,-138.23 534.25,-138.51 536.06,-138.81 537.8,-139.14 539.55,-139.47 541.24,-139.82 542.86,-140.19 544.49,-140.56 546.04,-140.96 547.53,-141.38 549.02,-141.79 550.43,-142.23 551.76,-142.69 553.09,-143.14 554.35,-143.61 555.51,-144.1 556.68,-144.59 557.76,-145.1 558.75,-145.62 559.74,-146.14 560.64,-146.67 561.44,-147.22 562.25,-147.76 562.96,-148.32 563.57,-148.88 564.18,-149.44 564.69,-150.01 565.1,-150.59 565.51,-151.17 565.82,-151.75 566.02,-152.34 566.23,-152.93 566.33,-153.52 566.33,-154.1 566.33,-154.1 502.14,-154.1 502.14,-154.1"/>
<ellipse fill="none" stroke="#2e7d32" stroke-width="2" cx="502.14" cy="-154.1" rx="64.19" ry="18"/>
<text text-anchor="middle" x="502.14" y="-150.4" font-family="Helvetica,Arial,sans-serif" font-size="14.00">Frigidaire #ad</text>
</g>
<!-- Pillager -->
<g id="node35" class="node">
<title>Pillager</title>
<path fill="#a5d6a7" stroke="#2e7d32" stroke-width="0.5" d="M380.57,-90.71C380.57,-90.71 420.67,-90.71 420.67,-90.71 420.67,-91.3 420.6,-91.89 420.47,-92.47 420.35,-93.06 420.15,-93.64 419.9,-94.22 419.64,-94.8 419.32,-95.37 418.94,-95.93 418.56,-96.5 418.12,-97.05 417.62,-97.6 417.11,-98.14 416.55,-98.67 415.93,-99.19 415.31,-99.71 414.64,-100.22 413.91,-100.71 413.18,-101.2 412.4,-101.67 411.57,-102.13 410.73,-102.58 409.85,-103.02 408.92,-103.44 408,-103.85 407.02,-104.25 406.01,-104.62 404.99,-105 403.94,-105.35 402.85,-105.68 401.76,-106 400.63,-106.31 399.47,-106.58 398.32,-106.86 397.13,-107.11 395.92,-107.34 394.7,-107.56 393.47,-107.76 392.21,-107.93 390.96,-108.11 389.68,-108.25 388.4,-108.36 387.11,-108.48 385.81,-108.56 384.5,-108.62 383.2,-108.68 381.89,-108.71 380.57,-108.71 379.26,-108.71 377.95,-108.68 376.64,-108.62 375.34,-108.56 374.04,-108.48 372.75,-108.36 371.46,-108.25 370.19,-108.11 368.93,-107.93 367.68,-107.76 366.44,-107.56 365.23,-107.34 364.02,-107.11 362.83,-106.86 361.67,-106.58 360.52,-106.31 359.39,-106 358.3,-105.68 357.21,-105.35 356.15,-105 355.14,-104.62 354.12,-104.25 353.15,-103.85 352.22,-103.44 351.29,-103.02 350.41,-102.58 349.58,-102.13 348.75,-101.67 347.97,-101.2 347.24,-100.71 346.51,-100.22 345.83,-99.71 345.21,-99.19 344.59,-98.67 344.03,-98.14 343.53,-97.6 343.03,-97.05 342.59,-96.5 342.21,-95.93 341.82,-95.37 341.51,-94.8 341.25,-94.22 340.99,-93.64 340.8,-93.06 340.67,-92.47 340.54,-91.89 340.48,-91.3 340.48,-90.71 340.48,-90.71 380.57,-90.71 380.57,-90.71"/>
<path fill="#ffcdd2" stroke="#2e7d32" stroke-width="0.5" d="M380.57,-90.71C380.57,-90.71 340.48,-90.71 340.48,-90.71 340.48,-90.12 340.54,-89.53 340.67,-88.94 340.8,-88.36 340.99,-87.78 341.25,-87.2 341.51,-86.62 341.82,-86.05 342.21,-85.48 342.59,-84.92 343.03,-84.37 343.53,-83.82 344.03,-83.28 344.59,-82.74 345.21,-82.22 345.83,-81.7 346.51,-81.2 347.24,-80.71 347.97,-80.22 348.75,-79.75 349.58,-79.29 350.41,-78.83 351.29,-78.4 352.22,-77.98 353.15,-77.56 354.12,-77.17 355.14,-76.79 356.15,-76.42 357.21,-76.07 358.3,-75.74 359.39,-75.42 360.52,-75.11 361.67,-74.83 362.83,-74.56 364.02,-74.3 365.23,-74.08 366.44,-73.85 367.68,-73.66 368.93,-73.48 370.19,-73.31 371.46,-73.17 372.75,-73.05 374.04,-72.94 375.34,-72.85 376.64,-72.8 377.95,-72.74 379.26,-72.71 380.57,-72.71 381.89,-72.71 383.2,-72.74 384.5,-72.8 385.81,-72.85 387.11,-72.94 388.4,-73.05 389.68,-73.17 390.96,-73.31 392.21,-73.48 393.47,-73.66 394.7,-73.85 395.92,-74.08 397.13,-74.3 398.32,-74.56 399.47,-74.83 400.63,-75.11 401.76,-75.42 402.85,-75.74 403.94,-76.07 404.99,-76.42 406.01,-76.79 407.02,-77.17 408,-77.56 408.92,-77.98 409.85,-78.4 410.73,-78.83 411.57,-79.29 412.4,-79.75 413.18,-80.22 413.91,-80.71 414.64,-81.2 415.31,-81.7 415.93,-82.22 416.55,-82.74 417.11,-83.28 417.62,-83.82 418.12,-84.37 418.56,-84.92 418.94,-85.48 419.32,-86.05 419.64,-86.62 419.9,-87.2 420.15,-87.78 420.35,-88.36 420.47,-88.94 420.6,-89.53 420.67,-90.12 420.67,-90.71 420.67,-90.71 380.57,-90.71 380.57,-90.71"/>
<ellipse fill="none" stroke="#2e7d32" stroke-width="2" cx="380.57" cy="-90.71" rx="40.09" ry="18"/>
<text text-anchor="middle" x="380.57" y="-87.01" font-family="Helvetica,Arial,sans-serif" font-size="14.00">Pillager</text>
</g>
<!-- Mangrove_Station -->
<g id="node36" class="node">
<title>Mangrove_Station</title>
<path fill="#a5d6a7" stroke="#2e7d32" stroke-width="0.5" d="M276.48,-161.09C276.48,-161.09 356.37,-161.09 356.37,-161.09 356.37,-161.68 356.24,-162.27 355.98,-162.85 355.73,-163.44 355.34,-164.02 354.83,-164.6 354.32,-165.18 353.69,-165.75 352.93,-166.31 352.17,-166.88 351.29,-167.43 350.29,-167.98 349.29,-168.52 348.17,-169.05 346.93,-169.57 345.7,-170.09 344.36,-170.6 342.9,-171.09 341.45,-171.58 339.89,-172.05 338.23,-172.51 336.58,-172.96 334.82,-173.4 332.97,-173.82 331.12,-174.23 329.18,-174.63 327.16,-175 325.14,-175.38 323.04,-175.73 320.86,-176.05 318.69,-176.38 316.45,-176.68 314.14,-176.96 311.83,-177.24 309.47,-177.49 307.05,-177.72 304.64,-177.94 302.17,-178.14 299.67,-178.31 297.17,-178.48 294.63,-178.63 292.07,-178.74 289.5,-178.86 286.91,-178.94 284.31,-179 281.71,-179.06 279.1,-179.09 276.48,-179.09 273.87,-179.09 271.25,-179.06 268.65,-179 266.05,-178.94 263.46,-178.86 260.9,-178.74 258.33,-178.63 255.79,-178.48 253.29,-178.31 250.79,-178.14 248.33,-177.94 245.91,-177.72 243.49,-177.49 241.13,-177.24 238.82,-176.96 236.52,-176.68 234.27,-176.38 232.1,-176.05 229.92,-175.73 227.82,-175.38 225.8,-175 223.78,-174.63 221.84,-174.23 219.99,-173.82 218.14,-173.4 216.39,-172.96 214.73,-172.51 213.07,-172.05 211.51,-171.58 210.06,-171.09 208.61,-170.6 207.26,-170.09 206.03,-169.57 204.8,-169.05 203.68,-168.52 202.68,-167.98 201.68,-167.43 200.79,-166.88 200.04,-166.31 199.28,-165.75 198.64,-165.18 198.13,-164.6 197.62,-164.02 197.24,-163.44 196.98,-162.85 196.72,-162.27 196.6,-161.68 196.6,-161.09 196.6,-161.09 276.48,-161.09 276.48,-161.09"/>
<path fill="#ffcdd2" stroke="#2e7d32" stroke-width="0.5" d="M276.48,-161.09C276.48,-161.09 196.6,-161.09 196.6,-161.09 196.6,-160.5 196.72,-159.91 196.98,-159.32 197.24,-158.74 197.62,-158.15 198.13,-157.58 198.64,-157 199.28,-156.43 200.04,-155.86 200.79,-155.3 201.68,-154.74 202.68,-154.2 203.68,-153.65 204.8,-153.12 206.03,-152.6 207.26,-152.08 208.61,-151.58 210.06,-151.09 211.51,-150.6 213.07,-150.12 214.73,-149.67 216.39,-149.21 218.14,-148.78 219.99,-148.36 221.84,-147.94 223.78,-147.55 225.8,-147.17 227.82,-146.8 229.92,-146.45 232.1,-146.12 234.27,-145.79 236.52,-145.49 238.82,-145.21 241.13,-144.94 243.49,-144.68 245.91,-144.46 248.33,-144.23 250.79,-144.03 253.29,-143.86 255.79,-143.69 258.33,-143.55 260.9,-143.43 263.46,-143.32 266.05,-143.23 268.65,-143.17 271.25,-143.12 273.87,-143.09 276.48,-143.09 279.1,-143.09 281.71,-143.12 284.31,-143.17 286.91,-143.23 289.5,-143.32 292.07,-143.43 294.63,-143.55 297.17,-143.69 299.67,-143.86 302.17,-144.03 304.64,-144.23 307.05,-144.46 309.47,-144.68 311.83,-144.94 314.14,-145.21 316.45,-145.49 318.69,-145.79 320.86,-146.12 323.04,-146.45 325.14,-146.8 327.16,-147.17 329.18,-147.55 331.12,-147.94 332.97,-148.36 334.82,-148.78 336.58,-149.21 338.23,-149.67 339.89,-150.12 341.45,-150.6 342.9,-151.09 344.36,-151.58 345.7,-152.08 346.93,-152.6 348.17,-153.12 349.29,-153.65 350.29,-154.2 351.29,-154.74 352.17,-155.3 352.93,-155.86 353.69,-156.43 354.32,-157 354.83,-157.58 355.34,-158.15 355.73,-158.74 355.98,-159.32 356.24,-159.91 356.37,-160.5 356.37,-161.09 356.37,-161.09 276.48,-161.09 276.48,-161.09"/>
<ellipse fill="none" stroke="#2e7d32" stroke-width="2" cx="276.48" cy="-161.09" rx="79.89" ry="18"/>
<text text-anchor="middle" x="276.48" y="-157.39" font-family="Helvetica,Arial,sans-serif" font-size="14.00">Mangrove Station</text>
</g>
<!-- Mangrove_Station&#45;&gt;WTO_Memorial -->
<g id="edge40" class="edge">
<title>Mangrove_Station-&gt;WTO_Memorial</title>
<path fill="none" stroke="#c62828" d="M259.4,-143.39C248.69,-132.29 234.94,-118.05 224.26,-106.99"/>
</g>
<!-- Trial_Chamber -->
<g id="node38" class="node">
<title>Trial_Chamber</title>
<path fill="#a5d6a7" stroke="#2e7d32" stroke-width="0.5" d="M767.72,-209.11C767.72,-209.11 833.81,-209.11 833.81,-209.11 833.81,-209.7 833.7,-210.29 833.49,-210.88 833.28,-211.46 832.96,-212.05 832.54,-212.62 832.12,-213.2 831.59,-213.77 830.97,-214.34 830.34,-214.9 829.61,-215.46 828.78,-216 827.95,-216.54 827.03,-217.08 826.01,-217.6 824.99,-218.12 823.88,-218.62 822.67,-219.11 821.47,-219.6 820.18,-220.08 818.81,-220.53 817.44,-220.99 815.98,-221.42 814.45,-221.84 812.92,-222.26 811.32,-222.65 809.65,-223.03 807.98,-223.4 806.24,-223.75 804.44,-224.08 802.64,-224.41 800.78,-224.71 798.88,-224.99 796.97,-225.26 795.01,-225.52 793.01,-225.74 791.01,-225.97 788.98,-226.17 786.91,-226.34 784.84,-226.51 782.74,-226.65 780.62,-226.77 778.49,-226.88 776.35,-226.97 774.2,-227.03 772.05,-227.08 769.89,-227.11 767.72,-227.11 765.56,-227.11 763.4,-227.08 761.24,-227.03 759.09,-226.97 756.95,-226.88 754.83,-226.77 752.71,-226.65 750.61,-226.51 748.54,-226.34 746.47,-226.17 744.43,-225.97 742.43,-225.74 740.43,-225.52 738.48,-225.26 736.57,-224.99 734.66,-224.71 732.8,-224.41 731.01,-224.08 729.21,-223.75 727.47,-223.4 725.8,-223.03 724.12,-222.65 722.52,-222.26 720.99,-221.84 719.46,-221.42 718.01,-220.99 716.63,-220.53 715.26,-220.08 713.97,-219.6 712.77,-219.11 711.57,-218.62 710.46,-218.12 709.44,-217.6 708.42,-217.08 707.49,-216.54 706.66,-216 705.84,-215.46 705.11,-214.9 704.48,-214.34 703.85,-213.77 703.33,-213.2 702.9,-212.62 702.48,-212.05 702.16,-211.46 701.95,-210.88 701.74,-210.29 701.63,-209.7 701.63,-209.11 701.63,-209.11 767.72,-209.11 767.72,-209.11"/>
<path fill="#ffcdd2" stroke="#2e7d32" stroke-width="0.5" d="M767.72,-209.11C767.72,-209.11 701.63,-209.11 701.63,-209.11 701.63,-208.52 701.74,-207.93 701.95,-207.35 702.16,-206.76 702.48,-206.18 702.9,-205.6 703.33,-205.02 703.85,-204.45 704.48,-203.89 705.11,-203.32 705.84,-202.77 706.66,-202.22 707.49,-201.68 708.42,-201.15 709.44,-200.63 710.46,-200.11 711.57,-199.6 712.77,-199.11 713.97,-198.62 715.26,-198.15 716.63,-197.69 718.01,-197.24 719.46,-196.8 720.99,-196.38 722.52,-195.97 724.12,-195.57 725.8,-195.2 727.47,-194.82 729.21,-194.47 731.01,-194.15 732.8,-193.82 734.66,-193.52 736.57,-193.24 738.48,-192.96 740.43,-192.71 742.43,-192.48 744.43,-192.26 746.47,-192.06 748.54,-191.89 750.61,-191.72 752.71,-191.57 754.83,-191.46 756.95,-191.34 759.09,-191.26 761.24,-191.2 763.4,-191.14 765.56,-191.11 767.72,-191.11 769.89,-191.11 772.05,-191.14 774.2,-191.2 776.35,-191.26 778.49,-191.34 780.62,-191.46 782.74,-191.57 784.84,-191.72 786.91,-191.89 788.98,-192.06 791.01,-192.26 793.01,-192.48 795.01,-192.71 796.97,-192.96 798.88,-193.24 800.78,-193.52 802.64,-193.82 804.44,-194.15 806.24,-194.47 807.98,-194.82 809.65,-195.2 811.32,-195.57 812.92,-195.97 814.45,-196.38 815.98,-196.8 817.44,-197.24 818.81,-197.69 820.18,-198.15 821.47,-198.62 822.67,-199.11 823.88,-199.6 824.99,-200.11 826.01,-200.63 827.03,-201.15 827.95,-201.68 828.78,-202.22 829.61,-202.77 830.34,-203.32 830.97,-203.89 831.59,-204.45 832.12,-205.02 832.54,-205.6 832.96,-206.18 833.28,-206.76 833.49,-207.35 833.7,-207.93 833.81,-208.52 833.81,-209.11 833.81,-209.11 767.72,-209.11 767.72,-209.11"/>
<ellipse fill="none" stroke="#2e7d32" stroke-width="2" cx="767.72" cy="-209.11" rx="66.09" ry="18"/>
<text text-anchor="middle" x="767.72" y="-205.41" font-family="Helvetica,Arial,sans-serif" font-size="14.00">Trial Chamber</text>
</g>
<!-- End_Village&#45;&gt;Trial_Chamber -->
<g id="edge42" class="edge">
<title>End_Village-&gt;Trial_Chamber</title>
<path fill="none" stroke="#c62828" d="M677.75,-238.17C692.63,-233.37 709.61,-227.88 724.79,-222.98"/>
</g>
<!-- EndJunction1 -->
<!-- End_Village&#45;&gt;EndJunction1 -->
<g id="edge46" class="edge">
<title>End_Village-&gt;EndJunction1</title>
<path fill="none" stroke="#4a148c" d="M647.6,-233.16C663.55,-203.03 694.26,-145.04 695.21,-143.24"/>
</g>
<!-- Dragon_Junction&#45;&gt;Mob_Grinder -->
<g id="edge6" class="edge">
<title>Dragon_Junction-&gt;Mob_Grinder</title>
<path fill="none" stroke="#4285f4" stroke-width="2" d="M154.77,-675.76C156.47,-675.97 184.27,-679.41 211.85,-682.82"/>
</g>
<!-- Dragon_Junction&#45;&gt;Guardian_Farm -->
<g id="edge8" class="edge">
<title>Dragon_Junction-&gt;Guardian_Farm</title>
<path fill="none" stroke="black" d="M154.63,-675.79C152.99,-676.99 118.66,-702.07 94.46,-719.75"/>
</g>
<!-- Junction2 -->
<!-- Junction2&#45;&gt;CUBO -->
<g id="edge24" class="edge">
<title>Junction2-&gt;CUBO</title>
<path fill="none" stroke="#c62828" d="M526.28,-647.88C523.71,-648.95 466.42,-672.85 430.86,-687.67"/>
</g>
<!-- Junction2&#45;&gt;Duncs_Mistake -->
<g id="edge22" class="edge">
<title>Junction2-&gt;Duncs_Mistake</title>
<path fill="none" stroke="#c62828" d="M526.42,-647.92C528.02,-650.04 565.42,-699.83 586.04,-727.29"/>
</g>
<!-- Junction3&#45;&gt;Hog_Farm -->
<g id="edge19" class="edge">
<title>Junction3-&gt;Hog_Farm</title>
<path fill="none" stroke="#c62828" d="M594.15,-540.35C597.38,-541.14 666.88,-558.2 713.48,-569.63"/>
</g>
<!-- Junction3&#45;&gt;Junction2 -->
<g id="edge18" class="edge">
<title>Junction3-&gt;Junction2</title>
<path fill="none" stroke="#c62828" d="M593.98,-540.4C591.97,-543.6 528.4,-644.61 526.42,-647.77"/>
</g>
<!-- Junction4 -->
<!-- Junction4&#45;&gt;CML_Memorial -->
<g id="edge31" class="edge">
<title>Junction4-&gt;CML_Memorial</title>
<path fill="none" stroke="#c62828" d="M977.03,-591.3C978.76,-590.21 1014.46,-567.82 1040.44,-551.52"/>
</g>
<!-- Junction4&#45;&gt;Sand_Mine -->
<g id="edge32" class="edge">
<title>Junction4-&gt;Sand_Mine</title>
<path fill="none" stroke="#c62828" d="M976.98,-591.39C977.55,-592.77 989.66,-622.49 997.82,-642.53"/>
</g>
<!-- Junction5&#45;&gt;Ancient_City -->
<g id="edge28" class="edge">
<title>Junction5-&gt;Ancient_City</title>
<path fill="none" stroke="#c62828" d="M883.06,-578.17C883.04,-576.17 882.46,-529.9 882.13,-503.32"/>
</g>
<!-- Junction5&#45;&gt;Junction4 -->
<g id="edge30" class="edge">
<title>Junction5-&gt;Junction4</title>
<path fill="none" stroke="#c62828" d="M883.13,-578.25C885.93,-578.64 974.14,-590.94 976.9,-591.33"/>
</g>
<!-- Junction6&#45;&gt;Baddylands -->
<g id="edge34" class="edge">
<title>Junction6-&gt;Baddylands</title>
<path fill="none" stroke="#c62828" d="M675.6,-825.02C676.82,-826.91 704.96,-870.35 721.34,-895.63"/>
</g>
<!-- Junction6&#45;&gt;Portal_Island -->
<g id="edge44" class="edge">
<title>Junction6-&gt;Portal_Island</title>
<path fill="none" stroke="#e53935" stroke-width="2" d="M675.5,-824.98C674.3,-825.39 654.73,-832.24 635.31,-839.04"/>
</g>
<!-- Junction7&#45;&gt;Frigidaire_ad -->
<g id="edge36" class="edge">
<title>Junction7-&gt;Frigidaire_ad</title>
<path fill="none" stroke="#c62828" d="M466.18,-260.99C466.98,-258.61 486,-202.08 496.05,-172.22"/>
</g>
<!-- Junction8 -->
<!-- Junction7&#45;&gt;Junction8 -->
<g id="edge37" class="edge">
<title>Junction7-&gt;Junction8</title>
<path fill="none" stroke="#c62828" d="M466.09,-261.02C463.21,-259.3 372.48,-205.09 369.64,-203.4"/>
</g>
<!-- Junction8&#45;&gt;Pillager -->
<g id="edge41" class="edge">
<title>Junction8-&gt;Pillager</title>
<path fill="none" stroke="#c62828" d="M369.58,-203.28C369.83,-200.75 375.77,-139.96 378.81,-108.79"/>
</g>
<!-- Junction8&#45;&gt;Mangrove_Station -->
<g id="edge39" class="edge">
<title>Junction8-&gt;Mangrove_Station</title>
<path fill="none" stroke="#c62828" d="M369.51,-203.33C367.9,-202.6 337.66,-188.87 312.1,-177.26"/>
</g>
<!-- Junction8&#45;&gt;vvitch -->
<g id="edge38" class="edge">
<title>Junction8-&gt;vvitch</title>
<path fill="none" stroke="#c62828" d="M369.6,-203.43C370.42,-205.5 389.5,-253.6 400.16,-280.5"/>
</g>
<!-- EndJunction1&#45;&gt;Enderman_Farm -->
<g id="edge47" class="edge">
<title>EndJunction1-&gt;Enderman_Farm</title>
<path fill="none" stroke="#4a148c" d="M695.32,-143.15C697.39,-142.17 739.41,-122.18 770.81,-107.25"/>
</g>
<!-- EndJunction1&#45;&gt;Shulker_Farm -->
<g id="edge48" class="edge">
<title>EndJunction1-&gt;Shulker_Farm</title>
<path fill="none" stroke="#4a148c" d="M695.23,-143.12C695.09,-140.87 691.74,-87.98 689.92,-59.23"/>
</g>
</g>
</g>
</svg>
