<?xml version='1.0' encoding='UTF-8'?>
<svg xmlns="http://www.w3.org/2000/svg" width="1594.6pt" height="1126.98pt" viewBox="0 0 1594.6 1126.98">
  <g transform="translate(50, 50)"><g id="graph0" class="graph" transform="scale(1 1) rotate(0) translate(4 275)">
<title>Legend</title>
<polygon fill="#f5f5f5" stroke="transparent" points="-4,4 -4,-275 229,-275 229,4 -4,4"/>
<text text-anchor="middle" x="112.5" y="-7" font-family="Helvetica,Arial,sans-serif" font-size="10.00">Legend</text>
<g id="clust1" class="cluster">
<title>cluster_stations</title>
<path fill="#f5f5f5" stroke="black" d="M20,-86C20,-86 73,-86 73,-86 79,-86 85,-92 85,-98 85,-98 85,-251 85,-251 85,-257 79,-263 73,-263 73,-263 20,-263 20,-263 14,-263 8,-257 8,-251 8,-251 8,-98 8,-98 8,-92 14,-86 20,-86"/>
<text text-anchor="middle" x="46.5" y="-251" font-family="Helvetica,Arial,sans-serif" font-size="10.00">Station Types</text>
</g>
<g id="clust2" class="cluster">
<title>cluster_connections</title>
<path fill="#f5f5f5" stroke="black" d="M105,-27C105,-27 205,-27 205,-27 211,-27 217,-33 217,-39 217,-39 217,-233 217,-233 217,-239 211,-245 205,-245 205,-245 105,-245 105,-245 99,-245 93,-239 93,-233 93,-233 93,-39 93,-39 93,-33 99,-27 105,-27"/>
<text text-anchor="middle" x="155" y="-233" font-family="Helvetica,Arial,sans-serif" font-size="10.00">Connection Types</text>
</g>
<!-- Overworld_Key -->
<g id="node1" class="node">
<title>Overworld_Key</title>
<polygon fill="#a5d6a7" stroke="#2e7d32" points="73,-236 19,-236 19,-200 73,-200 73,-236"/>
<text text-anchor="middle" x="46" y="-216.1" font-family="Helvetica,Arial,sans-serif" font-size="8.00">Overworld</text>
</g>
<!-- Nether_Key -->
<g id="node2" class="node">
<title>Nether_Key</title>
<polygon fill="#ffcdd2" stroke="#c62828" points="73,-183 19,-183 19,-147 73,-147 73,-183"/>
<text text-anchor="middle" x="46" y="-163.1" font-family="Helvetica,Arial,sans-serif" font-size="8.00">Nether</text>
</g>
<!-- Overworld_Key&#45;&gt;Nether_Key -->
<!-- End_Key -->
<g id="node3" class="node">
<title>End_Key</title>
<polygon fill="#e1bee7" stroke="#4a148c" points="73,-130 19,-130 19,-94 73,-94 73,-130"/>
<text text-anchor="middle" x="46" y="-110.1" font-family="Helvetica,Arial,sans-serif" font-size="8.00">The End</text>
</g>
<!-- Nether_Key&#45;&gt;End_Key -->
<!-- Intercont_Start -->
<g id="node4" class="node">
<title>Intercont_Start</title>
<ellipse fill="black" stroke="black" cx="101" cy="-218" rx="0" ry="0"/>
</g>
<!-- Intercont_End -->
<g id="node5" class="node">
<title>Intercont_End</title>
<ellipse fill="black" stroke="black" cx="209" cy="-218" rx="0" ry="0"/>
</g>
<!-- Intercont_Start&#45;&gt;Intercont_End -->
<g id="edge8" class="edge">
<title>Intercont_Start-&gt;Intercont_End</title>
<path fill="none" stroke="#4285f4" stroke-width="2" d="M101.08,-218C104.3,-218 205.75,-218 208.92,-218"/>
<text text-anchor="middle" x="155" y="-223.6" font-family="Helvetica,Arial,sans-serif" font-size="8.00">Intercontinental Railroad</text>
</g>
<!-- Overworld_Rail_Start -->
<g id="node6" class="node">
<title>Overworld_Rail_Start</title>
<ellipse fill="black" stroke="black" cx="101" cy="-165" rx="0" ry="0"/>
</g>
<!-- Intercont_Start&#45;&gt;Overworld_Rail_Start -->
<!-- Overworld_Rail_End -->
<g id="node7" class="node">
<title>Overworld_Rail_End</title>
<ellipse fill="black" stroke="black" cx="209" cy="-165" rx="0" ry="0"/>
</g>
<!-- Overworld_Rail_Start&#45;&gt;Overworld_Rail_End -->
<g id="edge9" class="edge">
<title>Overworld_Rail_Start-&gt;Overworld_Rail_End</title>
<path fill="none" stroke="black" d="M101.08,-165C104.3,-165 205.75,-165 208.92,-165"/>
<text text-anchor="middle" x="155" y="-170.6" font-family="Helvetica,Arial,sans-serif" font-size="8.00">Overworld Rail</text>
</g>
<!-- End_Rail_Start -->
<g id="node8" class="node">
<title>End_Rail_Start</title>
<ellipse fill="black" stroke="black" cx="101" cy="-112" rx="0" ry="0"/>
</g>
<!-- Overworld_Rail_Start&#45;&gt;End_Rail_Start -->
<!-- End_Rail_End -->
<g id="node9" class="node">
<title>End_Rail_End</title>
<ellipse fill="black" stroke="black" cx="209" cy="-112" rx="0" ry="0"/>
</g>
<!-- End_Rail_Start&#45;&gt;End_Rail_End -->
<g id="edge10" class="edge">
<title>End_Rail_Start-&gt;End_Rail_End</title>
<path fill="none" stroke="#4a148c" stroke-dasharray="5,2" d="M101.08,-112C104.3,-112 205.75,-112 208.92,-112"/>
<text text-anchor="middle" x="155" y="-117.6" font-family="Helvetica,Arial,sans-serif" font-size="8.00">End Rail</text>
</g>
<!-- Footpath_Key_Start -->
<g id="node10" class="node">
<title>Footpath_Key_Start</title>
<ellipse fill="black" stroke="black" cx="101" cy="-69" rx="0" ry="0"/>
</g>
<!-- End_Rail_Start&#45;&gt;Footpath_Key_Start -->
<!-- Footpath_Key_End -->
<g id="node11" class="node">
<title>Footpath_Key_End</title>
<ellipse fill="black" stroke="black" cx="209" cy="-69" rx="0" ry="0"/>
</g>
<!-- Footpath_Key_Start&#45;&gt;Footpath_Key_End -->
<g id="edge11" class="edge">
<title>Footpath_Key_Start-&gt;Footpath_Key_End</title>
<path fill="none" stroke="#795548" stroke-dasharray="5,2" d="M101.08,-69C104.3,-69 205.75,-69 208.92,-69"/>
<text text-anchor="middle" x="155" y="-74.6" font-family="Helvetica,Arial,sans-serif" font-size="8.00">Footpath</text>
</g>
<!-- Nether_Rail_Start -->
<g id="node12" class="node">
<title>Nether_Rail_Start</title>
<ellipse fill="black" stroke="black" cx="101" cy="-52" rx="0" ry="0"/>
</g>
<!-- Footpath_Key_Start&#45;&gt;Nether_Rail_Start -->
<!-- Nether_Rail_End -->
<g id="node13" class="node">
<title>Nether_Rail_End</title>
<ellipse fill="black" stroke="black" cx="209" cy="-52" rx="0" ry="0"/>
</g>
<!-- Nether_Rail_Start&#45;&gt;Nether_Rail_End -->
<g id="edge12" class="edge">
<title>Nether_Rail_Start-&gt;Nether_Rail_End</title>
<path fill="none" stroke="#c62828" stroke-dasharray="1,5" d="M101.08,-52C104.3,-52 205.75,-52 208.92,-52"/>
<text text-anchor="middle" x="155" y="-57.6" font-family="Helvetica,Arial,sans-serif" font-size="8.00">Nether Rail</text>
</g>
<!-- Nether_Express_Key_Start -->
<g id="node14" class="node">
<title>Nether_Express_Key_Start</title>
<ellipse fill="black" stroke="black" cx="101" cy="-35" rx="0" ry="0"/>
</g>
<!-- Nether_Rail_Start&#45;&gt;Nether_Express_Key_Start -->
<!-- Nether_Express_Key_End -->
<g id="node15" class="node">
<title>Nether_Express_Key_End</title>
<ellipse fill="black" stroke="black" cx="209" cy="-35" rx="0" ry="0"/>
</g>
<!-- Nether_Express_Key_Start&#45;&gt;Nether_Express_Key_End -->
<g id="edge13" class="edge">
<title>Nether_Express_Key_Start-&gt;Nether_Express_Key_End</title>
<path fill="none" stroke="#e53935" stroke-width="2" d="M101.08,-35C104.3,-35 205.75,-35 208.92,-35"/>
<text text-anchor="middle" x="155" y="-40.6" font-family="Helvetica,Arial,sans-serif" font-size="8.00">Nether Express Rail</text>
</g>
</g>
</g>
  <g transform="translate(333.0, 50)"><g id="graph0" class="graph" transform="scale(1 1) rotate(0) translate(4 1022.98)">
<title>MinecraftRailMap</title>
<polygon fill="white" stroke="transparent" points="-4,4 -4,-1022.98 1207.6,-1022.98 1207.6,4 -4,4"/>
<text text-anchor="middle" x="601.8" y="-7.8" font-family="Helvetica,Arial,sans-serif" font-size="14.00">Minecraft Transit Map</text>
<!-- Chapel -->
<g id="node1" class="node">
<title>Chapel</title>
<ellipse fill="#a5d6a7" stroke="#2e7d32" stroke-width="2" cx="957.81" cy="-344.33" rx="38.19" ry="18"/>
<text text-anchor="middle" x="957.81" y="-340.63" font-family="Helvetica,Arial,sans-serif" font-size="14.00">Chapel</text>
</g>
<!-- Drowned_Farm -->
<g id="node4" class="node">
<title>Drowned_Farm</title>
<ellipse fill="#a5d6a7" stroke="#2e7d32" stroke-width="2" cx="929.42" cy="-233.73" rx="69.59" ry="18"/>
<text text-anchor="middle" x="929.42" y="-230.03" font-family="Helvetica,Arial,sans-serif" font-size="14.00">Drowned Farm</text>
</g>
<!-- Chapel&#45;&gt;Drowned_Farm -->
<g id="edge4" class="edge">
<title>Chapel-&gt;Drowned_Farm</title>
<path fill="none" stroke="#4285f4" stroke-width="2" d="M953.12,-326.07C947.86,-305.57 939.38,-272.52 934.11,-252.02"/>
</g>
<!-- Cow_Farm -->
<g id="node2" class="node">
<title>Cow_Farm</title>
<ellipse fill="#a5d6a7" stroke="#2e7d32" stroke-width="2" cx="920.16" cy="-437.38" rx="51.99" ry="18"/>
<text text-anchor="middle" x="920.16" y="-433.68" font-family="Helvetica,Arial,sans-serif" font-size="14.00">Cow Farm</text>
</g>
<!-- Cow_Farm&#45;&gt;Chapel -->
<g id="edge3" class="edge">
<title>Cow_Farm-&gt;Chapel</title>
<path fill="none" stroke="#4285f4" stroke-width="2" d="M927.42,-419.44C934.08,-402.96 943.91,-378.67 950.57,-362.21"/>
</g>
<!-- Sheep_Farm -->
<g id="node3" class="node">
<title>Sheep_Farm</title>
<ellipse fill="#a5d6a7" stroke="#2e7d32" stroke-width="2" cx="866.4" cy="-503.92" rx="59.59" ry="18"/>
<text text-anchor="middle" x="866.4" y="-500.22" font-family="Helvetica,Arial,sans-serif" font-size="14.00">Sheep Farm</text>
</g>
<!-- Sheep_Farm&#45;&gt;Cow_Farm -->
<g id="edge2" class="edge">
<title>Sheep_Farm-&gt;Cow_Farm</title>
<path fill="none" stroke="#4285f4" stroke-width="2" d="M880.81,-486.08C888.64,-476.38 898.3,-464.43 906.08,-454.8"/>
</g>
<!-- Dragon_Junction -->
<!-- Drowned_Farm&#45;&gt;Dragon_Junction -->
<g id="edge5" class="edge">
<title>Drowned_Farm-&gt;Dragon_Junction</title>
<path fill="none" stroke="#4285f4" stroke-width="2" d="M910.59,-216.3C885.85,-193.42 845.25,-155.86 842.74,-153.54"/>
</g>
<!-- Mob_Grinder -->
<g id="node5" class="node">
<title>Mob_Grinder</title>
<ellipse fill="#a5d6a7" stroke="#2e7d32" stroke-width="2" cx="734.32" cy="-209.7" rx="60.39" ry="18"/>
<text text-anchor="middle" x="734.32" y="-206" font-family="Helvetica,Arial,sans-serif" font-size="14.00">Mob Grinder</text>
</g>
<!-- CUBO -->
<g id="node32" class="node">
<title>CUBO</title>
<path fill="#a5d6a7" stroke="#2e7d32" stroke-width="0.5" d="M616.67,-278C616.67,-278 652.97,-278 652.97,-278 652.97,-278.59 652.91,-279.18 652.79,-279.77 652.67,-280.35 652.5,-280.94 652.27,-281.51 652.04,-282.09 651.75,-282.66 651.4,-283.23 651.06,-283.79 650.66,-284.35 650.2,-284.89 649.75,-285.44 649.24,-285.97 648.68,-286.49 648.12,-287.01 647.51,-287.51 646.85,-288 646.19,-288.49 645.48,-288.97 644.73,-289.42 643.97,-289.88 643.18,-290.31 642.34,-290.73 641.5,-291.15 640.61,-291.54 639.7,-291.92 638.78,-292.29 637.82,-292.64 636.84,-292.97 635.85,-293.3 634.83,-293.6 633.78,-293.88 632.73,-294.16 631.66,-294.41 630.56,-294.63 629.46,-294.86 628.34,-295.06 627.21,-295.23 626.07,-295.4 624.92,-295.54 623.75,-295.66 622.59,-295.77 621.41,-295.86 620.23,-295.92 619.05,-295.97 617.86,-296 616.67,-296 615.48,-296 614.3,-295.97 613.11,-295.92 611.93,-295.86 610.76,-295.77 609.59,-295.66 608.43,-295.54 607.27,-295.4 606.14,-295.23 605,-295.06 603.88,-294.86 602.78,-294.63 601.68,-294.41 600.61,-294.16 599.56,-293.88 598.51,-293.6 597.5,-293.3 596.51,-292.97 595.52,-292.64 594.57,-292.29 593.65,-291.92 592.73,-291.54 591.85,-291.15 591.01,-290.73 590.17,-290.31 589.37,-289.88 588.62,-289.42 587.86,-288.97 587.15,-288.49 586.49,-288 585.83,-287.51 585.22,-287.01 584.66,-286.49 584.1,-285.97 583.59,-285.44 583.14,-284.89 582.69,-284.35 582.29,-283.79 581.94,-283.23 581.6,-282.66 581.31,-282.09 581.08,-281.51 580.84,-280.94 580.67,-280.35 580.55,-279.77 580.44,-279.18 580.38,-278.59 580.38,-278 580.38,-278 616.67,-278 616.67,-278"/>
<path fill="#ffcdd2" stroke="#2e7d32" stroke-width="0.5" d="M616.67,-278C616.67,-278 580.38,-278 580.38,-278 580.38,-277.41 580.44,-276.82 580.55,-276.24 580.67,-275.65 580.84,-275.07 581.08,-274.49 581.31,-273.91 581.6,-273.34 581.94,-272.78 582.29,-272.21 582.69,-271.66 583.14,-271.11 583.59,-270.57 584.1,-270.04 584.66,-269.52 585.22,-269 585.83,-268.49 586.49,-268 587.15,-267.51 587.86,-267.04 588.62,-266.58 589.37,-266.13 590.17,-265.69 591.01,-265.27 591.85,-264.86 592.73,-264.46 593.65,-264.09 594.57,-263.71 595.52,-263.36 596.51,-263.04 597.5,-262.71 598.51,-262.41 599.56,-262.13 600.61,-261.85 601.68,-261.6 602.78,-261.37 603.88,-261.15 605,-260.95 606.14,-260.78 607.27,-260.61 608.43,-260.46 609.59,-260.35 610.76,-260.23 611.93,-260.15 613.11,-260.09 614.3,-260.03 615.48,-260 616.67,-260 617.86,-260 619.05,-260.03 620.23,-260.09 621.41,-260.15 622.59,-260.23 623.75,-260.35 624.92,-260.46 626.07,-260.61 627.21,-260.78 628.34,-260.95 629.46,-261.15 630.56,-261.37 631.66,-261.6 632.73,-261.85 633.78,-262.13 634.83,-262.41 635.85,-262.71 636.84,-263.04 637.82,-263.36 638.78,-263.71 639.7,-264.09 640.61,-264.46 641.5,-264.86 642.34,-265.27 643.18,-265.69 643.97,-266.13 644.73,-266.58 645.48,-267.04 646.19,-267.51 646.85,-268 647.51,-268.49 648.12,-269 648.68,-269.52 649.24,-270.04 649.75,-270.57 650.2,-271.11 650.66,-271.66 651.06,-272.21 651.4,-272.78 651.75,-273.34 652.04,-273.91 652.27,-274.49 652.5,-275.07 652.67,-275.65 652.79,-276.24 652.91,-276.82 652.97,-277.41 652.97,-278 652.97,-278 616.67,-278 616.67,-278"/>
<ellipse fill="none" stroke="#2e7d32" stroke-width="2" cx="616.67" cy="-278" rx="36.29" ry="18"/>
<text text-anchor="middle" x="616.67" y="-274.3" font-family="Helvetica,Arial,sans-serif" font-size="14.00">CUBO</text>
</g>
<!-- Mob_Grinder&#45;&gt;CUBO -->
<g id="edge7" class="edge">
<title>Mob_Grinder-&gt;CUBO</title>
<path fill="none" stroke="#4285f4" stroke-width="2" d="M706.44,-225.89C686.32,-237.57 659.46,-253.16 640.38,-264.24"/>
</g>
<!-- Guardian_Farm -->
<g id="node6" class="node">
<title>Guardian_Farm</title>
<ellipse fill="#a5d6a7" stroke="#2e7d32" stroke-width="2" cx="887.74" cy="-51.39" rx="70.69" ry="18"/>
<text text-anchor="middle" x="887.74" y="-47.69" font-family="Helvetica,Arial,sans-serif" font-size="14.00">Guardian Farm</text>
</g>
<!-- Russells_Tower -->
<g id="node7" class="node">
<title>Russells_Tower</title>
<ellipse fill="#a5d6a7" stroke="#2e7d32" stroke-width="2" cx="783.27" cy="-674.7" rx="72.29" ry="18"/>
<text text-anchor="middle" x="783.27" y="-671" font-family="Helvetica,Arial,sans-serif" font-size="14.00">Russell's Tower</text>
</g>
<!-- Cliffertown -->
<g id="node8" class="node">
<title>Cliffertown</title>
<ellipse fill="#a5d6a7" stroke="#2e7d32" stroke-width="2" cx="567.79" cy="-756.48" rx="52.79" ry="18"/>
<text text-anchor="middle" x="567.79" y="-752.78" font-family="Helvetica,Arial,sans-serif" font-size="14.00">Cliffertown</text>
</g>
<!-- Slacktown -->
<g id="node11" class="node">
<title>Slacktown</title>
<ellipse fill="#a5d6a7" stroke="#2e7d32" stroke-width="2" cx="548.08" cy="-856.42" rx="51.19" ry="18"/>
<text text-anchor="middle" x="548.08" y="-852.72" font-family="Helvetica,Arial,sans-serif" font-size="14.00">Slacktown</text>
</g>
<!-- Cliffertown&#45;&gt;Slacktown -->
<g id="edge11" class="edge">
<title>Cliffertown-&gt;Slacktown</title>
<path fill="none" stroke="black" d="M564.17,-774.81C560.62,-792.84 555.22,-820.21 551.67,-838.21"/>
</g>
<!-- Mahjong_Parlour -->
<g id="node9" class="node">
<title>Mahjong_Parlour</title>
<ellipse fill="#a5d6a7" stroke="#2e7d32" stroke-width="2" cx="582.87" cy="-588.45" rx="75.29" ry="18"/>
<text text-anchor="middle" x="582.87" y="-584.75" font-family="Helvetica,Arial,sans-serif" font-size="14.00">Mahjong Parlour</text>
</g>
<!-- Desert_Village -->
<g id="node10" class="node">
<title>Desert_Village</title>
<ellipse fill="#a5d6a7" stroke="#2e7d32" stroke-width="2" cx="179.75" cy="-294.7" rx="65.79" ry="18"/>
<text text-anchor="middle" x="179.75" y="-291" font-family="Helvetica,Arial,sans-serif" font-size="14.00">Desert Village</text>
</g>
<!-- Sim_Tower -->
<g id="node12" class="node">
<title>Sim_Tower</title>
<ellipse fill="#a5d6a7" stroke="#2e7d32" stroke-width="2" cx="650.43" cy="-712.45" rx="52.79" ry="18"/>
<text text-anchor="middle" x="650.43" y="-708.75" font-family="Helvetica,Arial,sans-serif" font-size="14.00">Sim Tower</text>
</g>
<!-- Squid_Farm -->
<g id="node13" class="node">
<title>Squid_Farm</title>
<ellipse fill="#a5d6a7" stroke="#2e7d32" stroke-width="2" cx="588.9" cy="-41" rx="57.39" ry="18"/>
<text text-anchor="middle" x="588.9" y="-37.3" font-family="Helvetica,Arial,sans-serif" font-size="14.00">Squid Farm</text>
</g>
<!-- Worr_FOB -->
<g id="node14" class="node">
<title>Worr_FOB</title>
<ellipse fill="#a5d6a7" stroke="#2e7d32" stroke-width="2" cx="622.79" cy="-150.7" rx="57.39" ry="18"/>
<text text-anchor="middle" x="622.79" y="-147" font-family="Helvetica,Arial,sans-serif" font-size="14.00">Worr's FOB</text>
</g>
<!-- Worr_FOB&#45;&gt;Squid_Farm -->
<g id="edge18" class="edge">
<title>Worr_FOB-&gt;Squid_Farm</title>
<path fill="none" stroke="black" d="M617.2,-132.58C610.92,-112.26 600.79,-79.48 594.5,-59.14"/>
<text text-anchor="middle" x="586.35" y="-99.66" font-family="Helvetica,Arial,sans-serif" font-size="14.00">scenic</text>
</g>
<!-- Worrton -->
<g id="node15" class="node">
<title>Worrton</title>
<ellipse fill="#a5d6a7" stroke="#2e7d32" stroke-width="2" cx="500.06" cy="-219.57" rx="42.49" ry="18"/>
<text text-anchor="middle" x="500.06" y="-215.87" font-family="Helvetica,Arial,sans-serif" font-size="14.00">Worrton</text>
</g>
<!-- Mining_Squad_FOB -->
<g id="node16" class="node">
<title>Mining_Squad_FOB</title>
<ellipse fill="#a5d6a7" stroke="#2e7d32" stroke-width="2" cx="503.19" cy="-700.47" rx="86.38" ry="18"/>
<text text-anchor="middle" x="503.19" y="-696.77" font-family="Helvetica,Arial,sans-serif" font-size="14.00">Mining Squad FOB</text>
</g>
<!-- Atlantis -->
<g id="node31" class="node">
<title>Atlantis</title>
<path fill="#a5d6a7" stroke="#2e7d32" stroke-width="0.5" d="M459.81,-756.55C459.81,-756.55 499.61,-756.55 499.61,-756.55 499.61,-757.14 499.54,-757.73 499.42,-758.32 499.29,-758.9 499.1,-759.48 498.84,-760.06 498.59,-760.64 498.27,-761.21 497.89,-761.78 497.52,-762.34 497.08,-762.9 496.58,-763.44 496.08,-763.98 495.52,-764.52 494.91,-765.04 494.29,-765.56 493.62,-766.06 492.9,-766.55 492.18,-767.04 491.4,-767.51 490.57,-767.97 489.75,-768.43 488.87,-768.86 487.95,-769.28 487.03,-769.7 486.06,-770.09 485.06,-770.47 484.05,-770.84 483,-771.19 481.92,-771.52 480.84,-771.84 479.72,-772.15 478.57,-772.43 477.42,-772.7 476.24,-772.96 475.04,-773.18 473.84,-773.41 472.61,-773.61 471.36,-773.78 470.12,-773.95 468.85,-774.09 467.58,-774.21 466.3,-774.32 465.01,-774.41 463.71,-774.46 462.42,-774.52 461.12,-774.55 459.81,-774.55 458.51,-774.55 457.21,-774.52 455.91,-774.46 454.62,-774.41 453.33,-774.32 452.05,-774.21 450.77,-774.09 449.51,-773.95 448.26,-773.78 447.02,-773.61 445.79,-773.41 444.58,-773.18 443.38,-772.96 442.2,-772.7 441.05,-772.43 439.91,-772.15 438.79,-771.84 437.71,-771.52 436.62,-771.19 435.58,-770.84 434.57,-770.47 433.56,-770.09 432.6,-769.7 431.67,-769.28 430.75,-768.86 429.88,-768.43 429.05,-767.97 428.23,-767.51 427.45,-767.04 426.73,-766.55 426,-766.06 425.33,-765.56 424.72,-765.04 424.1,-764.52 423.55,-763.98 423.05,-763.44 422.55,-762.9 422.11,-762.34 421.73,-761.78 421.36,-761.21 421.04,-760.64 420.78,-760.06 420.53,-759.48 420.34,-758.9 420.21,-758.32 420.08,-757.73 420.02,-757.14 420.02,-756.55 420.02,-756.55 459.81,-756.55 459.81,-756.55"/>
<path fill="#ffcdd2" stroke="#2e7d32" stroke-width="0.5" d="M459.81,-756.55C459.81,-756.55 420.02,-756.55 420.02,-756.55 420.02,-755.96 420.08,-755.37 420.21,-754.79 420.34,-754.2 420.53,-753.62 420.78,-753.04 421.04,-752.46 421.36,-751.89 421.73,-751.33 422.11,-750.76 422.55,-750.21 423.05,-749.66 423.55,-749.12 424.1,-748.59 424.72,-748.07 425.33,-747.55 426,-747.04 426.73,-746.55 427.45,-746.06 428.23,-745.59 429.05,-745.13 429.88,-744.68 430.75,-744.24 431.67,-743.82 432.6,-743.41 433.56,-743.01 434.57,-742.64 435.58,-742.26 436.62,-741.91 437.71,-741.58 438.79,-741.26 439.91,-740.95 441.05,-740.68 442.2,-740.4 443.38,-740.15 444.58,-739.92 445.79,-739.7 447.02,-739.5 448.26,-739.33 449.51,-739.16 450.77,-739.01 452.05,-738.9 453.33,-738.78 454.62,-738.7 455.91,-738.64 457.21,-738.58 458.51,-738.55 459.81,-738.55 461.12,-738.55 462.42,-738.58 463.71,-738.64 465.01,-738.7 466.3,-738.78 467.58,-738.9 468.85,-739.01 470.12,-739.16 471.36,-739.33 472.61,-739.5 473.84,-739.7 475.04,-739.92 476.24,-740.15 477.42,-740.4 478.57,-740.68 479.72,-740.95 480.84,-741.26 481.92,-741.58 483,-741.91 484.05,-742.26 485.06,-742.64 486.06,-743.01 487.03,-743.41 487.95,-743.82 488.87,-744.24 489.75,-744.68 490.57,-745.13 491.4,-745.59 492.18,-746.06 492.9,-746.55 493.62,-747.04 494.29,-747.55 494.91,-748.07 495.52,-748.59 496.08,-749.12 496.58,-749.66 497.08,-750.21 497.52,-750.76 497.89,-751.33 498.27,-751.89 498.59,-752.46 498.84,-753.04 499.1,-753.62 499.29,-754.2 499.42,-754.79 499.54,-755.37 499.61,-755.96 499.61,-756.55 499.61,-756.55 459.81,-756.55 459.81,-756.55"/>
<ellipse fill="none" stroke="#2e7d32" stroke-width="2" cx="459.81" cy="-756.55" rx="39.79" ry="18"/>
<text text-anchor="middle" x="459.81" y="-752.85" font-family="Helvetica,Arial,sans-serif" font-size="14.00">Atlantis</text>
</g>
<!-- Mining_Squad_FOB&#45;&gt;Atlantis -->
<g id="edge16" class="edge">
<title>Mining_Squad_FOB-&gt;Atlantis</title>
<path fill="none" stroke="black" d="M489.23,-718.53C484.08,-725.18 478.26,-732.71 473.16,-739.3"/>
<text text-anchor="middle" x="500.69" y="-732.71" font-family="Helvetica,Arial,sans-serif" font-size="14.00">scenic</text>
</g>
<!-- Gold_Farm -->
<g id="node17" class="node">
<title>Gold_Farm</title>
<ellipse fill="#ffcdd2" stroke="#c62828" stroke-width="2" cx="745.2" cy="-534.85" rx="53.09" ry="18"/>
<text text-anchor="middle" x="745.2" y="-531.15" font-family="Helvetica,Arial,sans-serif" font-size="14.00">Gold Farm</text>
</g>
<!-- Bartering_Farm -->
<g id="node18" class="node">
<title>Bartering_Farm</title>
<ellipse fill="#ffcdd2" stroke="#c62828" stroke-width="2" cx="613.45" cy="-544.44" rx="70.39" ry="18"/>
<text text-anchor="middle" x="613.45" y="-540.74" font-family="Helvetica,Arial,sans-serif" font-size="14.00">Bartering Farm</text>
</g>
<!-- Wither_Skeleton_Farm -->
<g id="node19" class="node">
<title>Wither_Skeleton_Farm</title>
<ellipse fill="#ffcdd2" stroke="#c62828" stroke-width="2" cx="810.56" cy="-579.2" rx="96.68" ry="18"/>
<text text-anchor="middle" x="810.56" y="-575.5" font-family="Helvetica,Arial,sans-serif" font-size="14.00">Wither Skeleton Farm</text>
</g>
<!-- Hog_Farm -->
<g id="node20" class="node">
<title>Hog_Farm</title>
<ellipse fill="#ffcdd2" stroke="#c62828" stroke-width="2" cx="417.06" cy="-577.25" rx="50.09" ry="18"/>
<text text-anchor="middle" x="417.06" y="-573.55" font-family="Helvetica,Arial,sans-serif" font-size="14.00">Hog Farm</text>
</g>
<!-- Junction5 -->
<!-- Hog_Farm&#45;&gt;Junction5 -->
<g id="edge22" class="edge">
<title>Hog_Farm-&gt;Junction5</title>
<path fill="none" stroke="#c62828" d="M393.21,-593.45C366.08,-611.87 325.18,-639.63 322.65,-641.35"/>
</g>
<!-- CML_Memorial -->
<g id="node21" class="node">
<title>CML_Memorial</title>
<ellipse fill="#ffcdd2" stroke="#c62828" stroke-width="2" cx="109.69" cy="-628.6" rx="69.59" ry="18"/>
<text text-anchor="middle" x="109.69" y="-624.9" font-family="Helvetica,Arial,sans-serif" font-size="14.00">CML Memorial</text>
</g>
<!-- Frog -->
<g id="node22" class="node">
<title>Frog</title>
<ellipse fill="#ffcdd2" stroke="#c62828" stroke-width="2" cx="60.44" cy="-831.11" rx="60.39" ry="18"/>
<text text-anchor="middle" x="60.44" y="-827.41" font-family="Helvetica,Arial,sans-serif" font-size="14.00">Frog Bastion</text>
</g>
<!-- WTO_Memorial -->
<g id="node23" class="node">
<title>WTO_Memorial</title>
<ellipse fill="#ffcdd2" stroke="#c62828" stroke-width="2" cx="1132.11" cy="-779.14" rx="71.49" ry="18"/>
<text text-anchor="middle" x="1132.11" y="-775.44" font-family="Helvetica,Arial,sans-serif" font-size="14.00">WTO Memorial</text>
</g>
<!-- Enderman_Farm -->
<g id="node24" class="node">
<title>Enderman_Farm</title>
<ellipse fill="#e1bee7" stroke="#4a148c" stroke-width="2" cx="773.18" cy="-994.18" rx="75.29" ry="18"/>
<text text-anchor="middle" x="773.18" y="-990.48" font-family="Helvetica,Arial,sans-serif" font-size="14.00">Enderman Farm</text>
</g>
<!-- Shulker_Farm -->
<g id="node25" class="node">
<title>Shulker_Farm</title>
<ellipse fill="#e1bee7" stroke="#4a148c" stroke-width="2" cx="624.87" cy="-1000.98" rx="63.89" ry="18"/>
<text text-anchor="middle" x="624.87" y="-997.28" font-family="Helvetica,Arial,sans-serif" font-size="14.00">Shulker Farm</text>
</g>
<!-- Home -->
<g id="node26" class="node">
<title>Home</title>
<path fill="#a5d6a7" stroke="#2e7d32" stroke-width="0.5" d="M668.59,-632.49C668.59,-632.49 702.98,-632.49 702.98,-632.49 702.98,-633.08 702.92,-633.66 702.81,-634.25 702.7,-634.84 702.54,-635.42 702.32,-636 702.1,-636.58 701.82,-637.15 701.5,-637.71 701.17,-638.27 700.79,-638.83 700.36,-639.37 699.93,-639.92 699.45,-640.45 698.92,-640.97 698.39,-641.49 697.81,-642 697.18,-642.49 696.56,-642.98 695.89,-643.45 695.17,-643.91 694.46,-644.36 693.7,-644.8 692.91,-645.21 692.11,-645.63 691.27,-646.03 690.4,-646.4 689.53,-646.77 688.63,-647.13 687.69,-647.45 686.76,-647.78 685.79,-648.08 684.8,-648.36 683.81,-648.64 682.79,-648.89 681.75,-649.12 680.71,-649.34 679.65,-649.54 678.57,-649.71 677.49,-649.88 676.4,-650.03 675.29,-650.14 674.19,-650.26 673.08,-650.34 671.96,-650.4 670.84,-650.46 669.71,-650.49 668.59,-650.49 667.46,-650.49 666.33,-650.46 665.21,-650.4 664.09,-650.34 662.98,-650.26 661.88,-650.14 660.77,-650.03 659.68,-649.88 658.6,-649.71 657.52,-649.54 656.46,-649.34 655.42,-649.12 654.38,-648.89 653.36,-648.64 652.37,-648.36 651.38,-648.08 650.41,-647.78 649.48,-647.45 648.54,-647.13 647.64,-646.77 646.77,-646.4 645.9,-646.03 645.06,-645.63 644.26,-645.21 643.47,-644.8 642.71,-644.36 642,-643.91 641.28,-643.45 640.61,-642.98 639.99,-642.49 639.36,-642 638.78,-641.49 638.25,-640.97 637.72,-640.45 637.24,-639.92 636.81,-639.37 636.38,-638.83 636,-638.27 635.67,-637.71 635.35,-637.15 635.07,-636.58 634.85,-636 634.63,-635.42 634.47,-634.84 634.36,-634.25 634.25,-633.66 634.19,-633.08 634.19,-632.49 634.19,-632.49 668.59,-632.49 668.59,-632.49"/>
<path fill="#ffcdd2" stroke="#2e7d32" stroke-width="0.5" d="M668.59,-632.49C668.59,-632.49 634.19,-632.49 634.19,-632.49 634.19,-631.9 634.25,-631.31 634.36,-630.72 634.47,-630.14 634.63,-629.55 634.85,-628.97 635.07,-628.4 635.35,-627.82 635.67,-627.26 636,-626.7 636.38,-626.14 636.81,-625.6 637.24,-625.05 637.72,-624.52 638.25,-624 638.78,-623.48 639.36,-622.98 639.99,-622.49 640.61,-622 641.28,-621.52 642,-621.07 642.71,-620.61 643.47,-620.17 644.26,-619.76 645.06,-619.34 645.9,-618.95 646.77,-618.57 647.64,-618.2 648.54,-617.85 649.48,-617.52 650.41,-617.19 651.38,-616.89 652.37,-616.61 653.36,-616.33 654.38,-616.08 655.42,-615.86 656.46,-615.63 657.52,-615.43 658.6,-615.26 659.68,-615.09 660.77,-614.95 661.88,-614.83 662.98,-614.72 664.09,-614.63 665.21,-614.57 666.33,-614.51 667.46,-614.49 668.59,-614.49 669.71,-614.49 670.84,-614.51 671.96,-614.57 673.08,-614.63 674.19,-614.72 675.29,-614.83 676.4,-614.95 677.49,-615.09 678.57,-615.26 679.65,-615.43 680.71,-615.63 681.75,-615.86 682.79,-616.08 683.81,-616.33 684.8,-616.61 685.79,-616.89 686.76,-617.19 687.69,-617.52 688.63,-617.85 689.53,-618.2 690.4,-618.57 691.27,-618.95 692.11,-619.34 692.91,-619.76 693.7,-620.17 694.46,-620.61 695.17,-621.07 695.89,-621.52 696.56,-622 697.18,-622.49 697.81,-622.98 698.39,-623.48 698.92,-624 699.45,-624.52 699.93,-625.05 700.36,-625.6 700.79,-626.14 701.17,-626.7 701.5,-627.26 701.82,-627.82 702.1,-628.4 702.32,-628.97 702.54,-629.55 702.7,-630.14 702.81,-630.72 702.92,-631.31 702.98,-631.9 702.98,-632.49 702.98,-632.49 668.59,-632.49 668.59,-632.49"/>
<ellipse fill="none" stroke="#2e7d32" stroke-width="2" cx="668.59" cy="-632.49" rx="34.39" ry="18"/>
<text text-anchor="middle" x="668.59" y="-628.79" font-family="Helvetica,Arial,sans-serif" font-size="14.00">Home</text>
</g>
<!-- Home&#45;&gt;Sheep_Farm -->
<g id="edge1" class="edge">
<title>Home-&gt;Sheep_Farm</title>
<path fill="none" stroke="#4285f4" stroke-width="2" d="M690.51,-618.24C727.43,-594.24 801.79,-545.91 840.95,-520.46"/>
</g>
<!-- Home&#45;&gt;Russells_Tower -->
<g id="edge9" class="edge">
<title>Home-&gt;Russells_Tower</title>
<path fill="none" stroke="black" d="M696.93,-642.92C710.73,-648 727.57,-654.2 742.7,-659.77"/>
</g>
<!-- Home&#45;&gt;Cliffertown -->
<g id="edge10" class="edge">
<title>Home-&gt;Cliffertown</title>
<path fill="none" stroke="black" d="M654.99,-649.21C635.97,-672.61 601.56,-714.93 582.14,-738.83"/>
</g>
<!-- Home&#45;&gt;Mahjong_Parlour -->
<g id="edge12" class="edge">
<title>Home-&gt;Mahjong_Parlour</title>
<path fill="none" stroke="black" d="M643.79,-619.75C634.7,-615.07 624.27,-609.72 614.64,-604.77"/>
</g>
<!-- Home&#45;&gt;Sim_Tower -->
<g id="edge13" class="edge">
<title>Home-&gt;Sim_Tower</title>
<path fill="none" stroke="black" d="M664.47,-650.63C661.49,-663.72 657.5,-681.31 654.53,-694.38"/>
</g>
<!-- Home&#45;&gt;Mining_Squad_FOB -->
<g id="edge15" class="edge">
<title>Home-&gt;Mining_Squad_FOB</title>
<path fill="none" stroke="black" d="M641.27,-643.71C614.3,-654.8 572.77,-671.87 542.3,-684.4"/>
<text text-anchor="middle" x="611.29" y="-667.85" font-family="Helvetica,Arial,sans-serif" font-size="14.00">scenic</text>
</g>
<!-- Home&#45;&gt;Gold_Farm -->
<g id="edge51" class="edge">
<title>Home-&gt;Gold_Farm</title>
<path fill="none" stroke="#795548" stroke-dasharray="5,2" d="M681.93,-615.48C695.82,-597.78 717.47,-570.19 731.49,-552.32"/>
</g>
<!-- Home&#45;&gt;Bartering_Farm -->
<g id="edge52" class="edge">
<title>Home-&gt;Bartering_Farm</title>
<path fill="none" stroke="#795548" stroke-dasharray="5,2" d="M657.69,-615.09C648.15,-599.86 634.35,-577.8 624.7,-562.4"/>
</g>
<!-- Home&#45;&gt;Wither_Skeleton_Farm -->
<g id="edge53" class="edge">
<title>Home-&gt;Wither_Skeleton_Farm</title>
<path fill="none" stroke="#795548" stroke-dasharray="5,2" d="M696.64,-621.96C716.84,-614.38 744.47,-604.01 767.47,-595.38"/>
</g>
<!-- Pale_Oak_Forest -->
<g id="node30" class="node">
<title>Pale_Oak_Forest</title>
<path fill="#a5d6a7" stroke="#2e7d32" stroke-width="0.5" d="M540.6,-656.43C540.6,-656.43 624.28,-656.43 624.28,-656.43 624.28,-657.02 624.15,-657.61 623.88,-658.2 623.61,-658.79 623.21,-659.37 622.68,-659.95 622.14,-660.52 621.48,-661.1 620.68,-661.66 619.89,-662.22 618.96,-662.78 617.91,-663.32 616.87,-663.87 615.69,-664.4 614.4,-664.92 613.11,-665.44 611.7,-665.94 610.18,-666.43 608.66,-666.92 607.03,-667.4 605.29,-667.85 603.55,-668.31 601.71,-668.75 599.77,-669.16 597.84,-669.58 595.81,-669.97 593.69,-670.35 591.57,-670.72 589.37,-671.07 587.09,-671.4 584.82,-671.73 582.46,-672.03 580.05,-672.31 577.63,-672.59 575.16,-672.84 572.62,-673.06 570.09,-673.29 567.51,-673.49 564.89,-673.66 562.27,-673.83 559.61,-673.97 556.93,-674.09 554.24,-674.2 551.53,-674.29 548.8,-674.35 546.08,-674.41 543.34,-674.43 540.6,-674.43 537.86,-674.43 535.12,-674.41 532.4,-674.35 529.67,-674.29 526.96,-674.2 524.27,-674.09 521.59,-673.97 518.93,-673.83 516.31,-673.66 513.69,-673.49 511.11,-673.29 508.57,-673.06 506.04,-672.84 503.57,-672.59 501.15,-672.31 498.73,-672.03 496.38,-671.73 494.11,-671.4 491.83,-671.07 489.63,-670.72 487.51,-670.35 485.39,-669.97 483.36,-669.58 481.42,-669.16 479.49,-668.75 477.65,-668.31 475.91,-667.85 474.17,-667.4 472.54,-666.92 471.02,-666.43 469.5,-665.94 468.09,-665.44 466.8,-664.92 465.5,-664.4 464.33,-663.87 463.28,-663.32 462.24,-662.78 461.31,-662.22 460.52,-661.66 459.72,-661.1 459.06,-660.52 458.52,-659.95 457.99,-659.37 457.59,-658.79 457.32,-658.2 457.05,-657.61 456.91,-657.02 456.91,-656.43 456.91,-656.43 540.6,-656.43 540.6,-656.43"/>
<path fill="#ffcdd2" stroke="#2e7d32" stroke-width="0.5" d="M540.6,-656.43C540.6,-656.43 456.91,-656.43 456.91,-656.43 456.91,-655.85 457.05,-655.26 457.32,-654.67 457.59,-654.08 457.99,-653.5 458.52,-652.92 459.06,-652.34 459.72,-651.77 460.52,-651.21 461.31,-650.65 462.24,-650.09 463.28,-649.55 464.33,-649 465.5,-648.47 466.8,-647.95 468.09,-647.43 469.5,-646.92 471.02,-646.43 472.54,-645.94 474.17,-645.47 475.91,-645.02 477.65,-644.56 479.49,-644.12 481.42,-643.71 483.36,-643.29 485.39,-642.89 487.51,-642.52 489.63,-642.15 491.83,-641.8 494.11,-641.47 496.38,-641.14 498.73,-640.84 501.15,-640.56 503.57,-640.28 506.04,-640.03 508.57,-639.8 511.11,-639.58 513.69,-639.38 516.31,-639.21 518.93,-639.04 521.59,-638.9 524.27,-638.78 526.96,-638.67 529.67,-638.58 532.4,-638.52 535.12,-638.46 537.86,-638.43 540.6,-638.43 543.34,-638.43 546.08,-638.46 548.8,-638.52 551.53,-638.58 554.24,-638.67 556.93,-638.78 559.61,-638.9 562.27,-639.04 564.89,-639.21 567.51,-639.38 570.09,-639.58 572.62,-639.8 575.16,-640.03 577.63,-640.28 580.05,-640.56 582.46,-640.84 584.82,-641.14 587.09,-641.47 589.37,-641.8 591.57,-642.15 593.69,-642.52 595.81,-642.89 597.84,-643.29 599.77,-643.71 601.71,-644.12 603.55,-644.56 605.29,-645.02 607.03,-645.47 608.66,-645.94 610.18,-646.43 611.7,-646.92 613.11,-647.43 614.4,-647.95 615.69,-648.47 616.87,-649 617.91,-649.55 618.96,-650.09 619.89,-650.65 620.68,-651.21 621.48,-651.77 622.14,-652.34 622.68,-652.92 623.21,-653.5 623.61,-654.08 623.88,-654.67 624.15,-655.26 624.28,-655.85 624.28,-656.43 624.28,-656.43 540.6,-656.43 540.6,-656.43"/>
<ellipse fill="none" stroke="#2e7d32" stroke-width="2" cx="540.6" cy="-656.43" rx="83.69" ry="18"/>
<text text-anchor="middle" x="540.6" y="-652.73" font-family="Helvetica,Arial,sans-serif" font-size="14.00">Click Clock Woods</text>
</g>
<!-- Home&#45;&gt;Pale_Oak_Forest -->
<g id="edge29" class="edge">
<title>Home-&gt;Pale_Oak_Forest</title>
<path fill="none" stroke="#c62828" d="M635.96,-638.59C626.11,-640.43 614.94,-642.52 603.81,-644.61"/>
</g>
<!-- vvitch -->
<g id="node39" class="node">
<title>vvitch</title>
<path fill="#a5d6a7" stroke="#2e7d32" stroke-width="0.5" d="M891.81,-623.32C891.81,-623.32 925.1,-623.32 925.1,-623.32 925.1,-623.9 925.05,-624.49 924.94,-625.08 924.83,-625.67 924.67,-626.25 924.46,-626.83 924.25,-627.4 923.98,-627.98 923.67,-628.54 923.35,-629.1 922.98,-629.66 922.57,-630.2 922.15,-630.75 921.68,-631.28 921.17,-631.8 920.66,-632.32 920.1,-632.83 919.49,-633.32 918.88,-633.81 918.23,-634.28 917.54,-634.73 916.85,-635.19 916.12,-635.63 915.35,-636.04 914.58,-636.46 913.77,-636.86 912.93,-637.23 912.09,-637.6 911.21,-637.95 910.3,-638.28 909.4,-638.61 908.46,-638.91 907.5,-639.19 906.54,-639.47 905.55,-639.72 904.55,-639.95 903.54,-640.17 902.51,-640.37 901.47,-640.54 900.43,-640.71 899.37,-640.85 898.3,-640.97 897.23,-641.08 896.15,-641.17 895.07,-641.23 893.99,-641.29 892.9,-641.32 891.81,-641.32 890.72,-641.32 889.63,-641.29 888.54,-641.23 887.46,-641.17 886.38,-641.08 885.31,-640.97 884.24,-640.85 883.18,-640.71 882.14,-640.54 881.1,-640.37 880.07,-640.17 879.06,-639.95 878.06,-639.72 877.07,-639.47 876.11,-639.19 875.15,-638.91 874.21,-638.61 873.31,-638.28 872.4,-637.95 871.53,-637.6 870.68,-637.23 869.84,-636.86 869.03,-636.46 868.26,-636.04 867.49,-635.63 866.76,-635.19 866.07,-634.73 865.38,-634.28 864.73,-633.81 864.12,-633.32 863.52,-632.83 862.96,-632.32 862.44,-631.8 861.93,-631.28 861.46,-630.75 861.05,-630.2 860.63,-629.66 860.26,-629.1 859.94,-628.54 859.63,-627.98 859.36,-627.4 859.15,-626.83 858.94,-626.25 858.78,-625.67 858.67,-625.08 858.56,-624.49 858.51,-623.9 858.51,-623.32 858.51,-623.32 891.81,-623.32 891.81,-623.32"/>
<path fill="#ffcdd2" stroke="#2e7d32" stroke-width="0.5" d="M891.81,-623.32C891.81,-623.32 858.51,-623.32 858.51,-623.32 858.51,-622.73 858.56,-622.14 858.67,-621.55 858.78,-620.96 858.94,-620.38 859.15,-619.8 859.36,-619.23 859.63,-618.65 859.94,-618.09 860.26,-617.53 860.63,-616.97 861.05,-616.43 861.46,-615.88 861.93,-615.35 862.44,-614.83 862.96,-614.31 863.52,-613.81 864.12,-613.32 864.73,-612.83 865.38,-612.35 866.07,-611.9 866.76,-611.44 867.49,-611 868.26,-610.59 869.03,-610.17 869.84,-609.78 870.68,-609.4 871.53,-609.03 872.4,-608.68 873.31,-608.35 874.21,-608.02 875.15,-607.72 876.11,-607.44 877.07,-607.16 878.06,-606.91 879.06,-606.69 880.07,-606.46 881.1,-606.26 882.14,-606.09 883.18,-605.92 884.24,-605.78 885.31,-605.66 886.38,-605.55 887.46,-605.46 888.54,-605.4 889.63,-605.34 890.72,-605.32 891.81,-605.32 892.9,-605.32 893.99,-605.34 895.07,-605.4 896.15,-605.46 897.23,-605.55 898.3,-605.66 899.37,-605.78 900.43,-605.92 901.47,-606.09 902.51,-606.26 903.54,-606.46 904.55,-606.69 905.55,-606.91 906.54,-607.16 907.5,-607.44 908.46,-607.72 909.4,-608.02 910.3,-608.35 911.21,-608.68 912.09,-609.03 912.93,-609.4 913.77,-609.78 914.58,-610.17 915.35,-610.59 916.12,-611 916.85,-611.44 917.54,-611.9 918.23,-612.35 918.88,-612.83 919.49,-613.32 920.1,-613.81 920.66,-614.31 921.17,-614.83 921.68,-615.35 922.15,-615.88 922.57,-616.43 922.98,-616.97 923.35,-617.53 923.67,-618.09 923.98,-618.65 924.25,-619.23 924.46,-619.8 924.67,-620.38 924.83,-620.96 924.94,-621.55 925.05,-622.14 925.1,-622.73 925.1,-623.32 925.1,-623.32 891.81,-623.32 891.81,-623.32"/>
<ellipse fill="none" stroke="#2e7d32" stroke-width="2" cx="891.81" cy="-623.32" rx="33.29" ry="18"/>
<text text-anchor="middle" x="891.81" y="-619.62" font-family="Helvetica,Arial,sans-serif" font-size="14.00">vvitch</text>
</g>
<!-- Home&#45;&gt;vvitch -->
<g id="edge47" class="edge">
<title>Home-&gt;vvitch</title>
<path fill="none" stroke="#e53935" stroke-width="2" d="M702.97,-631.07C745.29,-629.33 816.65,-626.4 858.47,-624.68"/>
</g>
<!-- End_Village -->
<g id="node41" class="node">
<title>End_Village</title>
<path fill="#a5d6a7" stroke="#2e7d32" stroke-width="0.5" d="M678.03,-800.49C678.03,-800.49 733.52,-800.49 733.52,-800.49 733.52,-801.15 733.41,-801.8 733.18,-802.46 732.96,-803.11 732.63,-803.76 732.19,-804.41 731.74,-805.05 731.19,-805.68 730.54,-806.31 729.88,-806.93 729.12,-807.54 728.26,-808.14 727.39,-808.73 726.43,-809.31 725.37,-809.88 724.31,-810.44 723.16,-810.98 721.92,-811.5 720.67,-812.02 719.34,-812.52 717.93,-812.99 716.52,-813.47 715.03,-813.92 713.47,-814.34 711.91,-814.76 710.27,-815.15 708.58,-815.51 706.88,-815.88 705.13,-816.21 703.32,-816.51 701.52,-816.81 699.66,-817.08 697.76,-817.31 695.86,-817.54 693.93,-817.74 691.96,-817.91 690,-818.08 688,-818.21 685.99,-818.3 683.99,-818.4 681.96,-818.45 679.93,-818.48 677.9,-818.5 675.87,-818.49 673.85,-818.44 671.82,-818.39 669.81,-818.3 667.81,-818.18 667.81,-818.18 678.03,-800.49 678.03,-800.49"/>
<path fill="#ffcdd2" stroke="#2e7d32" stroke-width="0.5" d="M678.03,-800.49C678.03,-800.49 667.81,-818.18 667.81,-818.18 666.24,-818.08 664.68,-817.97 663.13,-817.83 661.59,-817.69 660.06,-817.53 658.56,-817.34 657.06,-817.16 655.59,-816.96 654.14,-816.73 652.7,-816.51 651.28,-816.27 649.9,-816 648.52,-815.74 647.17,-815.46 645.87,-815.16 644.56,-814.86 643.3,-814.54 642.08,-814.2 640.86,-813.86 639.68,-813.51 638.55,-813.14 637.43,-812.77 636.35,-812.38 635.33,-811.98 634.31,-811.58 633.34,-811.17 632.42,-810.74 631.51,-810.32 630.65,-809.88 629.86,-809.43 629.06,-808.97 628.33,-808.51 627.66,-808.04 626.98,-807.57 626.38,-807.09 625.83,-806.6 625.29,-806.11 624.81,-805.61 624.4,-805.11 623.99,-804.61 623.64,-804.1 623.37,-803.59 623.09,-803.08 622.88,-802.56 622.74,-802.04 622.6,-801.53 622.53,-801.01 622.53,-800.49 622.53,-799.97 622.6,-799.45 622.74,-798.93 622.88,-798.41 623.09,-797.9 623.37,-797.39 623.64,-796.87 623.99,-796.37 624.4,-795.86 624.81,-795.36 625.29,-794.86 625.83,-794.38 626.38,-793.89 626.98,-793.41 627.66,-792.93 628.33,-792.46 629.06,-792 629.86,-791.55 630.65,-791.1 631.51,-790.66 632.42,-790.23 633.34,-789.8 634.31,-789.39 635.33,-788.99 636.35,-788.59 637.43,-788.21 638.55,-787.84 639.68,-787.47 640.86,-787.11 642.08,-786.78 643.3,-786.44 644.56,-786.12 645.87,-785.82 647.17,-785.52 648.52,-785.23 649.9,-784.97 651.28,-784.71 652.7,-784.46 654.14,-784.24 655.59,-784.02 657.06,-783.81 658.56,-783.63 660.06,-783.45 661.59,-783.29 663.13,-783.15 664.68,-783.01 666.24,-782.89 667.81,-782.79 667.81,-782.79 678.03,-800.49 678.03,-800.49"/>
<path fill="#e1bee7" stroke="#2e7d32" stroke-width="0.5" d="M678.03,-800.49C678.03,-800.49 667.81,-782.79 667.81,-782.79 669.81,-782.67 671.82,-782.59 673.85,-782.54 675.87,-782.49 677.9,-782.48 679.93,-782.5 681.96,-782.52 683.99,-782.58 686,-782.67 688,-782.77 690,-782.9 691.96,-783.06 693.93,-783.23 695.86,-783.43 697.76,-783.66 699.66,-783.9 701.52,-784.17 703.32,-784.47 705.13,-784.77 706.88,-785.1 708.58,-785.46 710.27,-785.82 711.91,-786.22 713.47,-786.64 715.03,-787.06 716.52,-787.51 717.93,-787.98 719.34,-788.45 720.67,-788.95 721.92,-789.47 723.16,-789.99 724.31,-790.54 725.37,-791.1 726.43,-791.66 727.39,-792.24 728.26,-792.84 729.12,-793.43 729.88,-794.04 730.54,-794.67 731.19,-795.29 731.74,-795.93 732.19,-796.57 732.63,-797.21 732.96,-797.86 733.18,-798.52 733.41,-799.17 733.52,-799.83 733.52,-800.49 733.52,-800.49 678.03,-800.49 678.03,-800.49"/>
<ellipse fill="none" stroke="#2e7d32" stroke-width="2" cx="678.03" cy="-800.49" rx="55.49" ry="18"/>
<text text-anchor="middle" x="678.03" y="-796.79" font-family="Helvetica,Arial,sans-serif" font-size="14.00">End Village</text>
</g>
<!-- Home&#45;&gt;End_Village -->
<g id="edge28" class="edge">
<title>Home-&gt;End_Village</title>
<path fill="none" stroke="#c62828" d="M669.61,-650.78C671.43,-683.19 675.2,-750.26 677.01,-782.47"/>
</g>
<!-- Junction3 -->
<!-- Home&#45;&gt;Junction3 -->
<g id="edge23" class="edge">
<title>Home-&gt;Junction3</title>
<path fill="none" stroke="#c62828" d="M648.99,-617.61C611.77,-589.35 534.31,-530.53 531.9,-528.7"/>
</g>
<!-- Junction7 -->
<!-- Home&#45;&gt;Junction7 -->
<g id="edge37" class="edge">
<title>Home-&gt;Junction7</title>
<path fill="none" stroke="#c62828" d="M702.17,-637.38C758.41,-645.57 865.84,-661.21 869.18,-661.7"/>
</g>
<!-- Baddylands -->
<g id="node27" class="node">
<title>Baddylands</title>
<path fill="#a5d6a7" stroke="#2e7d32" stroke-width="0.5" d="M274.91,-173.19C274.91,-173.19 331.5,-173.19 331.5,-173.19 331.5,-173.78 331.41,-174.37 331.23,-174.95 331.05,-175.54 330.78,-176.12 330.41,-176.7 330.05,-177.28 329.6,-177.85 329.06,-178.41 328.53,-178.98 327.9,-179.53 327.19,-180.08 326.48,-180.62 325.69,-181.15 324.82,-181.67 323.95,-182.19 322.99,-182.7 321.96,-183.19 320.94,-183.68 319.83,-184.15 318.66,-184.61 317.48,-185.06 316.24,-185.5 314.93,-185.92 313.62,-186.33 312.24,-186.73 310.81,-187.1 309.38,-187.48 307.89,-187.83 306.35,-188.15 304.81,-188.48 303.22,-188.78 301.59,-189.06 299.95,-189.34 298.28,-189.59 296.57,-189.82 294.86,-190.04 293.11,-190.24 291.34,-190.41 289.57,-190.58 287.77,-190.73 285.95,-190.84 284.13,-190.96 282.3,-191.04 280.46,-191.1 278.61,-191.16 276.76,-191.19 274.91,-191.19 273.06,-191.19 271.21,-191.16 269.36,-191.1 267.52,-191.04 265.69,-190.96 263.87,-190.84 262.05,-190.73 260.26,-190.58 258.48,-190.41 256.71,-190.24 254.97,-190.04 253.26,-189.82 251.54,-189.59 249.87,-189.34 248.24,-189.06 246.6,-188.78 245.01,-188.48 243.47,-188.15 241.93,-187.83 240.44,-187.48 239.01,-187.1 237.58,-186.73 236.21,-186.33 234.9,-185.92 233.59,-185.5 232.34,-185.06 231.17,-184.61 229.99,-184.15 228.89,-183.68 227.86,-183.19 226.83,-182.7 225.88,-182.19 225,-181.67 224.13,-181.15 223.34,-180.62 222.63,-180.08 221.92,-179.53 221.3,-178.98 220.76,-178.41 220.22,-177.85 219.77,-177.28 219.41,-176.7 219.05,-176.12 218.78,-175.54 218.59,-174.95 218.41,-174.37 218.32,-173.78 218.32,-173.19 218.32,-173.19 274.91,-173.19 274.91,-173.19"/>
<path fill="#ffcdd2" stroke="#2e7d32" stroke-width="0.5" d="M274.91,-173.19C274.91,-173.19 218.32,-173.19 218.32,-173.19 218.32,-172.6 218.41,-172.01 218.59,-171.42 218.78,-170.84 219.05,-170.25 219.41,-169.68 219.77,-169.1 220.22,-168.53 220.76,-167.96 221.3,-167.4 221.92,-166.84 222.63,-166.3 223.34,-165.75 224.13,-165.22 225,-164.7 225.88,-164.18 226.83,-163.68 227.86,-163.19 228.89,-162.7 229.99,-162.22 231.17,-161.77 232.34,-161.31 233.59,-160.88 234.9,-160.46 236.21,-160.04 237.58,-159.65 239.01,-159.27 240.44,-158.9 241.93,-158.55 243.47,-158.22 245.01,-157.89 246.6,-157.59 248.24,-157.31 249.87,-157.03 251.54,-156.78 253.26,-156.56 254.97,-156.33 256.71,-156.13 258.48,-155.96 260.26,-155.79 262.05,-155.65 263.87,-155.53 265.69,-155.42 267.52,-155.33 269.36,-155.27 271.21,-155.22 273.06,-155.19 274.91,-155.19 276.76,-155.19 278.61,-155.22 280.46,-155.27 282.3,-155.33 284.13,-155.42 285.95,-155.53 287.77,-155.65 289.57,-155.79 291.34,-155.96 293.11,-156.13 294.86,-156.33 296.57,-156.56 298.28,-156.78 299.95,-157.03 301.59,-157.31 303.22,-157.59 304.81,-157.89 306.35,-158.22 307.89,-158.55 309.38,-158.9 310.81,-159.27 312.24,-159.65 313.62,-160.04 314.93,-160.46 316.24,-160.88 317.48,-161.31 318.66,-161.77 319.83,-162.22 320.94,-162.7 321.96,-163.19 322.99,-163.68 323.95,-164.18 324.82,-164.7 325.69,-165.22 326.48,-165.75 327.19,-166.3 327.9,-166.84 328.53,-167.4 329.06,-167.96 329.6,-168.53 330.05,-169.1 330.41,-169.68 330.78,-170.25 331.05,-170.84 331.23,-171.42 331.41,-172.01 331.5,-172.6 331.5,-173.19 331.5,-173.19 274.91,-173.19 274.91,-173.19"/>
<ellipse fill="none" stroke="#2e7d32" stroke-width="2" cx="274.91" cy="-173.19" rx="56.59" ry="18"/>
<text text-anchor="middle" x="274.91" y="-169.49" font-family="Helvetica,Arial,sans-serif" font-size="14.00">Baddylands</text>
</g>
<!-- Portal_Island -->
<g id="node28" class="node">
<title>Portal_Island</title>
<path fill="#a5d6a7" stroke="#2e7d32" stroke-width="0.5" d="M309.37,-338.73C309.37,-338.73 368.96,-338.73 368.96,-338.73 368.96,-339.31 368.86,-339.9 368.67,-340.49 368.48,-341.08 368.19,-341.66 367.81,-342.24 367.43,-342.81 366.96,-343.39 366.39,-343.95 365.82,-344.51 365.17,-345.07 364.42,-345.61 363.67,-346.16 362.84,-346.69 361.92,-347.21 361,-347.73 360,-348.24 358.91,-348.73 357.83,-349.22 356.67,-349.69 355.43,-350.14 354.19,-350.6 352.88,-351.04 351.5,-351.45 350.12,-351.87 348.68,-352.27 347.17,-352.64 345.66,-353.01 344.09,-353.36 342.47,-353.69 340.85,-354.02 339.18,-354.32 337.46,-354.6 335.74,-354.88 333.97,-355.13 332.17,-355.36 330.37,-355.58 328.53,-355.78 326.66,-355.95 324.8,-356.12 322.9,-356.26 320.99,-356.38 319.08,-356.49 317.15,-356.58 315.21,-356.64 313.27,-356.7 311.32,-356.73 309.37,-356.73 307.42,-356.73 305.47,-356.7 303.53,-356.64 301.58,-356.58 299.65,-356.49 297.74,-356.38 295.83,-356.26 293.93,-356.12 292.07,-355.95 290.2,-355.78 288.36,-355.58 286.56,-355.36 284.76,-355.13 283,-354.88 281.28,-354.6 279.56,-354.32 277.88,-354.02 276.26,-353.69 274.64,-353.36 273.07,-353.01 271.56,-352.64 270.05,-352.27 268.61,-351.87 267.23,-351.45 265.85,-351.04 264.54,-350.6 263.3,-350.14 262.07,-349.69 260.9,-349.22 259.82,-348.73 258.74,-348.24 257.73,-347.73 256.81,-347.21 255.89,-346.69 255.06,-346.16 254.31,-345.61 253.57,-345.07 252.91,-344.51 252.34,-343.95 251.78,-343.39 251.3,-342.81 250.92,-342.24 250.54,-341.66 250.25,-341.08 250.06,-340.49 249.87,-339.9 249.78,-339.31 249.78,-338.73 249.78,-338.73 309.37,-338.73 309.37,-338.73"/>
<path fill="#ffcdd2" stroke="#2e7d32" stroke-width="0.5" d="M309.37,-338.73C309.37,-338.73 249.78,-338.73 249.78,-338.73 249.78,-338.14 249.87,-337.55 250.06,-336.96 250.25,-336.37 250.54,-335.79 250.92,-335.21 251.3,-334.64 251.78,-334.06 252.34,-333.5 252.91,-332.94 253.57,-332.38 254.31,-331.84 255.06,-331.29 255.89,-330.76 256.81,-330.24 257.73,-329.72 258.74,-329.22 259.82,-328.73 260.9,-328.24 262.07,-327.76 263.3,-327.31 264.54,-326.85 265.85,-326.41 267.23,-326 268.61,-325.58 270.05,-325.19 271.56,-324.81 273.07,-324.44 274.64,-324.09 276.26,-323.76 277.88,-323.43 279.56,-323.13 281.28,-322.85 283,-322.57 284.76,-322.32 286.56,-322.1 288.36,-321.87 290.2,-321.67 292.07,-321.5 293.93,-321.33 295.83,-321.19 297.74,-321.07 299.65,-320.96 301.58,-320.87 303.53,-320.81 305.47,-320.75 307.42,-320.73 309.37,-320.73 311.32,-320.73 313.27,-320.75 315.21,-320.81 317.15,-320.87 319.08,-320.96 320.99,-321.07 322.9,-321.19 324.8,-321.33 326.66,-321.5 328.53,-321.67 330.37,-321.87 332.17,-322.1 333.97,-322.32 335.74,-322.57 337.46,-322.85 339.18,-323.13 340.85,-323.43 342.47,-323.76 344.09,-324.09 345.66,-324.44 347.17,-324.81 348.68,-325.19 350.12,-325.58 351.5,-326 352.88,-326.41 354.19,-326.85 355.43,-327.31 356.67,-327.76 357.83,-328.24 358.91,-328.73 360,-329.22 361,-329.72 361.92,-330.24 362.84,-330.76 363.67,-331.29 364.42,-331.84 365.17,-332.38 365.82,-332.94 366.39,-333.5 366.96,-334.06 367.43,-334.64 367.81,-335.21 368.19,-335.79 368.48,-336.37 368.67,-336.96 368.86,-337.55 368.96,-338.14 368.96,-338.73 368.96,-338.73 309.37,-338.73 309.37,-338.73"/>
<ellipse fill="none" stroke="#2e7d32" stroke-width="2" cx="309.37" cy="-338.73" rx="59.59" ry="18"/>
<text text-anchor="middle" x="309.37" y="-335.03" font-family="Helvetica,Arial,sans-serif" font-size="14.00">Portal Island</text>
</g>
<!-- Portal_Island&#45;&gt;Desert_Village -->
<g id="edge14" class="edge">
<title>Portal_Island-&gt;Desert_Village</title>
<path fill="none" stroke="black" d="M269.42,-325.16C254.1,-319.95 236.59,-314.01 221.13,-308.76"/>
</g>
<!-- _2UBO -->
<g id="node29" class="node">
<title>_2UBO</title>
<path fill="#a5d6a7" stroke="#2e7d32" stroke-width="0.5" d="M586.33,-195.23C586.33,-195.23 621.52,-195.23 621.52,-195.23 621.52,-195.82 621.46,-196.41 621.35,-196.99 621.24,-197.58 621.07,-198.16 620.84,-198.74 620.62,-199.32 620.34,-199.89 620.01,-200.45 619.67,-201.02 619.28,-201.57 618.84,-202.12 618.4,-202.66 617.91,-203.19 617.37,-203.71 616.82,-204.23 616.23,-204.74 615.59,-205.23 614.95,-205.72 614.26,-206.19 613.53,-206.65 612.8,-207.1 612.03,-207.54 611.21,-207.96 610.4,-208.37 609.54,-208.77 608.65,-209.14 607.76,-209.52 606.84,-209.87 605.88,-210.19 604.92,-210.52 603.93,-210.82 602.92,-211.1 601.9,-211.38 600.86,-211.63 599.8,-211.86 598.73,-212.08 597.65,-212.28 596.54,-212.45 595.44,-212.62 594.32,-212.77 593.19,-212.88 592.06,-213 590.92,-213.08 589.78,-213.14 588.63,-213.2 587.48,-213.23 586.33,-213.23 585.18,-213.23 584.02,-213.2 582.88,-213.14 581.73,-213.08 580.59,-213 579.46,-212.88 578.33,-212.77 577.21,-212.62 576.11,-212.45 575.01,-212.28 573.92,-212.08 572.86,-211.86 571.79,-211.63 570.75,-211.38 569.74,-211.1 568.72,-210.82 567.73,-210.52 566.77,-210.19 565.82,-209.87 564.89,-209.52 564,-209.14 563.11,-208.77 562.26,-208.37 561.44,-207.96 560.63,-207.54 559.85,-207.1 559.12,-206.65 558.39,-206.19 557.7,-205.72 557.06,-205.23 556.42,-204.74 555.83,-204.23 555.29,-203.71 554.75,-203.19 554.25,-202.66 553.81,-202.12 553.37,-201.57 552.98,-201.02 552.65,-200.45 552.31,-199.89 552.03,-199.32 551.81,-198.74 551.58,-198.16 551.42,-197.58 551.3,-196.99 551.19,-196.41 551.13,-195.82 551.13,-195.23 551.13,-195.23 586.33,-195.23 586.33,-195.23"/>
<path fill="#ffcdd2" stroke="#2e7d32" stroke-width="0.5" d="M586.33,-195.23C586.33,-195.23 551.13,-195.23 551.13,-195.23 551.13,-194.64 551.19,-194.05 551.3,-193.46 551.42,-192.88 551.58,-192.29 551.81,-191.72 552.03,-191.14 552.31,-190.57 552.65,-190 552.98,-189.44 553.37,-188.88 553.81,-188.34 554.25,-187.79 554.75,-187.26 555.29,-186.74 555.83,-186.22 556.42,-185.72 557.06,-185.23 557.7,-184.74 558.39,-184.26 559.12,-183.81 559.85,-183.35 560.63,-182.92 561.44,-182.5 562.26,-182.08 563.11,-181.69 564,-181.31 564.89,-180.94 565.82,-180.59 566.77,-180.26 567.73,-179.93 568.72,-179.63 569.74,-179.35 570.75,-179.08 571.79,-178.82 572.86,-178.6 573.92,-178.37 575.01,-178.17 576.11,-178 577.21,-177.83 578.33,-177.69 579.46,-177.57 580.59,-177.46 581.73,-177.37 582.88,-177.31 584.02,-177.26 585.18,-177.23 586.33,-177.23 587.48,-177.23 588.63,-177.26 589.78,-177.31 590.92,-177.37 592.06,-177.46 593.19,-177.57 594.32,-177.69 595.44,-177.83 596.54,-178 597.65,-178.17 598.73,-178.37 599.8,-178.6 600.86,-178.82 601.9,-179.08 602.92,-179.35 603.93,-179.63 604.92,-179.93 605.88,-180.26 606.84,-180.59 607.76,-180.94 608.65,-181.31 609.54,-181.69 610.4,-182.08 611.21,-182.5 612.03,-182.92 612.8,-183.35 613.53,-183.81 614.26,-184.26 614.95,-184.74 615.59,-185.23 616.23,-185.72 616.82,-186.22 617.37,-186.74 617.91,-187.26 618.4,-187.79 618.84,-188.34 619.28,-188.88 619.67,-189.44 620.01,-190 620.34,-190.57 620.62,-191.14 620.84,-191.72 621.07,-192.29 621.24,-192.88 621.35,-193.46 621.46,-194.05 621.52,-194.64 621.52,-195.23 621.52,-195.23 586.33,-195.23 586.33,-195.23"/>
<ellipse fill="none" stroke="#2e7d32" stroke-width="2" cx="586.33" cy="-195.23" rx="35.19" ry="18"/>
<text text-anchor="middle" x="586.33" y="-191.53" font-family="Helvetica,Arial,sans-serif" font-size="14.00">2UBO</text>
</g>
<!-- CUBO&#45;&gt;Worr_FOB -->
<g id="edge17" class="edge">
<title>CUBO-&gt;Worr_FOB</title>
<path fill="none" stroke="black" d="M617.55,-259.76C618.71,-235.56 620.75,-193.09 621.92,-168.91"/>
<text text-anchor="middle" x="600.23" y="-218.13" font-family="Helvetica,Arial,sans-serif" font-size="14.00">scenic</text>
</g>
<!-- CUBO&#45;&gt;Worrton -->
<g id="edge19" class="edge">
<title>CUBO-&gt;Worrton</title>
<path fill="none" stroke="black" d="M591.08,-265.18C572.31,-255.77 546.85,-243.01 527.63,-233.38"/>
</g>
<!-- CUBO&#45;&gt;_2UBO -->
<g id="edge27" class="edge">
<title>CUBO-&gt;_2UBO</title>
<path fill="none" stroke="#c62828" d="M610.09,-260.04C605,-246.16 597.98,-227.03 592.9,-213.15"/>
</g>
<!-- Sand_Mine -->
<g id="node33" class="node">
<title>Sand_Mine</title>
<path fill="#a5d6a7" stroke="#2e7d32" stroke-width="0.5" d="M139.2,-766.52C139.2,-766.52 192.3,-766.52 192.3,-766.52 192.3,-767.11 192.21,-767.69 192.04,-768.28 191.87,-768.87 191.62,-769.45 191.28,-770.03 190.94,-770.61 190.51,-771.18 190.01,-771.74 189.51,-772.31 188.92,-772.86 188.25,-773.4 187.59,-773.95 186.85,-774.48 186.03,-775 185.21,-775.52 184.31,-776.03 183.35,-776.52 182.38,-777.01 181.35,-777.48 180.25,-777.94 179.14,-778.39 177.97,-778.83 176.75,-779.24 175.52,-779.66 174.23,-780.06 172.89,-780.43 171.54,-780.8 170.15,-781.16 168.7,-781.48 167.26,-781.81 165.76,-782.11 164.23,-782.39 162.7,-782.67 161.13,-782.92 159.52,-783.15 157.92,-783.37 156.28,-783.57 154.62,-783.74 152.95,-783.91 151.27,-784.06 149.56,-784.17 147.86,-784.29 146.14,-784.37 144.41,-784.43 142.68,-784.49 140.94,-784.52 139.2,-784.52 137.47,-784.52 135.73,-784.49 134,-784.43 132.27,-784.37 130.55,-784.29 128.85,-784.17 127.14,-784.06 125.46,-783.91 123.79,-783.74 122.13,-783.57 120.49,-783.37 118.89,-783.15 117.28,-782.92 115.71,-782.67 114.18,-782.39 112.65,-782.11 111.15,-781.81 109.71,-781.48 108.26,-781.16 106.87,-780.8 105.52,-780.43 104.18,-780.06 102.89,-779.66 101.66,-779.24 100.43,-778.83 99.27,-778.39 98.16,-777.94 97.06,-777.48 96.03,-777.01 95.06,-776.52 94.1,-776.03 93.2,-775.52 92.38,-775 91.56,-774.48 90.82,-773.95 90.15,-773.4 89.49,-772.86 88.9,-772.31 88.4,-771.74 87.9,-771.18 87.47,-770.61 87.13,-770.03 86.79,-769.45 86.54,-768.87 86.37,-768.28 86.2,-767.69 86.11,-767.11 86.11,-766.52 86.11,-766.52 139.2,-766.52 139.2,-766.52"/>
<path fill="#ffcdd2" stroke="#2e7d32" stroke-width="0.5" d="M139.2,-766.52C139.2,-766.52 86.11,-766.52 86.11,-766.52 86.11,-765.93 86.2,-765.34 86.37,-764.75 86.54,-764.17 86.79,-763.58 87.13,-763 87.47,-762.43 87.9,-761.86 88.4,-761.29 88.9,-760.73 89.49,-760.17 90.15,-759.63 90.82,-759.08 91.56,-758.55 92.38,-758.03 93.2,-757.51 94.1,-757.01 95.06,-756.52 96.03,-756.03 97.06,-755.55 98.16,-755.1 99.27,-754.64 100.43,-754.21 101.66,-753.79 102.89,-753.37 104.18,-752.98 105.52,-752.6 106.87,-752.23 108.26,-751.88 109.71,-751.55 111.15,-751.22 112.65,-750.92 114.18,-750.64 115.71,-750.36 117.28,-750.11 118.89,-749.89 120.49,-749.66 122.13,-749.46 123.79,-749.29 125.46,-749.12 127.14,-748.98 128.85,-748.86 130.55,-748.75 132.27,-748.66 134,-748.6 135.73,-748.55 137.47,-748.52 139.2,-748.52 140.94,-748.52 142.68,-748.55 144.41,-748.6 146.14,-748.66 147.86,-748.75 149.56,-748.86 151.27,-748.98 152.95,-749.12 154.62,-749.29 156.28,-749.46 157.92,-749.66 159.52,-749.89 161.13,-750.11 162.7,-750.36 164.23,-750.64 165.76,-750.92 167.26,-751.22 168.7,-751.55 170.15,-751.88 171.54,-752.23 172.89,-752.6 174.23,-752.98 175.52,-753.37 176.75,-753.79 177.97,-754.21 179.14,-754.64 180.25,-755.1 181.35,-755.55 182.38,-756.03 183.35,-756.52 184.31,-757.01 185.21,-757.51 186.03,-758.03 186.85,-758.55 187.59,-759.08 188.25,-759.63 188.92,-760.17 189.51,-760.73 190.01,-761.29 190.51,-761.86 190.94,-762.43 191.28,-763 191.62,-763.58 191.87,-764.17 192.04,-764.75 192.21,-765.34 192.3,-765.93 192.3,-766.52 192.3,-766.52 139.2,-766.52 139.2,-766.52"/>
<ellipse fill="none" stroke="#2e7d32" stroke-width="2" cx="139.2" cy="-766.52" rx="53.09" ry="18"/>
<text text-anchor="middle" x="139.2" y="-762.82" font-family="Helvetica,Arial,sans-serif" font-size="14.00">Sand Mine</text>
</g>
<!-- Sand_Mine&#45;&gt;Frog -->
<g id="edge35" class="edge">
<title>Sand_Mine-&gt;Frog</title>
<path fill="none" stroke="#c62828" d="M118.51,-783.49C107.03,-792.91 92.78,-804.59 81.27,-814.03"/>
</g>
<!-- Ancient_City -->
<g id="node34" class="node">
<title>Ancient_City</title>
<path fill="#a5d6a7" stroke="#2e7d32" stroke-width="0.5" d="M354.24,-747.04C354.24,-747.04 411.93,-747.04 411.93,-747.04 411.93,-747.63 411.84,-748.22 411.65,-748.8 411.47,-749.39 411.19,-749.97 410.82,-750.55 410.45,-751.13 409.99,-751.7 409.44,-752.26 408.9,-752.83 408.26,-753.38 407.54,-753.93 406.81,-754.47 406.01,-755 405.12,-755.52 404.23,-756.04 403.25,-756.55 402.21,-757.04 401.16,-757.53 400.03,-758 398.83,-758.46 397.63,-758.91 396.37,-759.35 395.03,-759.77 393.7,-760.18 392.3,-760.58 390.84,-760.95 389.38,-761.33 387.86,-761.68 386.29,-762 384.72,-762.33 383.1,-762.63 381.43,-762.91 379.77,-763.19 378.06,-763.44 376.31,-763.67 374.57,-763.89 372.79,-764.09 370.98,-764.26 369.18,-764.43 367.34,-764.58 365.49,-764.69 363.64,-764.81 361.77,-764.89 359.89,-764.95 358.01,-765.01 356.13,-765.04 354.24,-765.04 352.35,-765.04 350.46,-765.01 348.58,-764.95 346.7,-764.89 344.83,-764.81 342.98,-764.69 341.13,-764.58 339.3,-764.43 337.49,-764.26 335.68,-764.09 333.91,-763.89 332.16,-763.67 330.42,-763.44 328.71,-763.19 327.04,-762.91 325.38,-762.63 323.76,-762.33 322.19,-762 320.62,-761.68 319.1,-761.33 317.64,-760.95 316.18,-760.58 314.78,-760.18 313.44,-759.77 312.11,-759.35 310.84,-758.91 309.64,-758.46 308.44,-758 307.32,-757.53 306.27,-757.04 305.22,-756.55 304.25,-756.04 303.36,-755.52 302.47,-755 301.66,-754.47 300.94,-753.93 300.22,-753.38 299.58,-752.83 299.03,-752.26 298.48,-751.7 298.02,-751.13 297.66,-750.55 297.29,-749.97 297.01,-749.39 296.83,-748.8 296.64,-748.22 296.55,-747.63 296.55,-747.04 296.55,-747.04 354.24,-747.04 354.24,-747.04"/>
<path fill="#ffcdd2" stroke="#2e7d32" stroke-width="0.5" d="M354.24,-747.04C354.24,-747.04 296.55,-747.04 296.55,-747.04 296.55,-746.45 296.64,-745.86 296.83,-745.27 297.01,-744.69 297.29,-744.1 297.66,-743.53 298.02,-742.95 298.48,-742.38 299.03,-741.81 299.58,-741.25 300.22,-740.69 300.94,-740.15 301.66,-739.61 302.47,-739.07 303.36,-738.55 304.25,-738.03 305.22,-737.53 306.27,-737.04 307.32,-736.55 308.44,-736.07 309.64,-735.62 310.84,-735.16 312.11,-734.73 313.44,-734.31 314.78,-733.89 316.18,-733.5 317.64,-733.12 319.1,-732.75 320.62,-732.4 322.19,-732.07 323.76,-731.74 325.38,-731.44 327.04,-731.16 328.71,-730.89 330.42,-730.63 332.16,-730.41 333.91,-730.18 335.68,-729.98 337.49,-729.81 339.3,-729.64 341.13,-729.5 342.98,-729.38 344.83,-729.27 346.7,-729.18 348.58,-729.12 350.46,-729.07 352.35,-729.04 354.24,-729.04 356.13,-729.04 358.01,-729.07 359.89,-729.12 361.77,-729.18 363.64,-729.27 365.49,-729.38 367.34,-729.5 369.18,-729.64 370.98,-729.81 372.79,-729.98 374.57,-730.18 376.31,-730.41 378.06,-730.63 379.77,-730.89 381.43,-731.16 383.1,-731.44 384.72,-731.74 386.29,-732.07 387.86,-732.4 389.38,-732.75 390.84,-733.12 392.3,-733.5 393.7,-733.89 395.03,-734.31 396.37,-734.73 397.63,-735.16 398.83,-735.62 400.03,-736.07 401.16,-736.55 402.21,-737.04 403.25,-737.53 404.23,-738.03 405.12,-738.55 406.01,-739.07 406.81,-739.61 407.54,-740.15 408.26,-740.69 408.9,-741.25 409.44,-741.81 409.99,-742.38 410.45,-742.95 410.82,-743.53 411.19,-744.1 411.47,-744.69 411.65,-745.27 411.84,-745.86 411.93,-746.45 411.93,-747.04 411.93,-747.04 354.24,-747.04 354.24,-747.04"/>
<ellipse fill="none" stroke="#2e7d32" stroke-width="2" cx="354.24" cy="-747.04" rx="57.69" ry="18"/>
<text text-anchor="middle" x="354.24" y="-743.34" font-family="Helvetica,Arial,sans-serif" font-size="14.00">Ancient City</text>
</g>
<!-- Ancient_City&#45;&gt;Atlantis -->
<g id="edge31" class="edge">
<title>Ancient_City-&gt;Atlantis</title>
<path fill="none" stroke="#c62828" d="M409.81,-752.05C413.48,-752.38 417.14,-752.71 420.71,-753.03"/>
</g>
<!-- Duncs_Mistake -->
<g id="node35" class="node">
<title>Duncs_Mistake</title>
<path fill="#a5d6a7" stroke="#2e7d32" stroke-width="0.5" d="M448.17,-361.85C448.17,-361.85 518.86,-361.85 518.86,-361.85 518.86,-362.44 518.75,-363.03 518.52,-363.62 518.29,-364.2 517.95,-364.79 517.5,-365.37 517.05,-365.94 516.49,-366.52 515.82,-367.08 515.15,-367.64 514.37,-368.2 513.48,-368.74 512.6,-369.29 511.61,-369.82 510.51,-370.34 509.42,-370.86 508.23,-371.36 506.95,-371.85 505.66,-372.34 504.28,-372.82 502.82,-373.27 501.35,-373.73 499.79,-374.17 498.16,-374.58 496.52,-375 494.81,-375.39 493.02,-375.77 491.23,-376.14 489.37,-376.49 487.45,-376.82 485.52,-377.15 483.54,-377.45 481.5,-377.73 479.46,-378.01 477.36,-378.26 475.22,-378.48 473.09,-378.71 470.91,-378.91 468.69,-379.08 466.48,-379.25 464.23,-379.39 461.96,-379.51 459.7,-379.62 457.41,-379.71 455.1,-379.77 452.8,-379.83 450.49,-379.85 448.17,-379.85 445.86,-379.85 443.55,-379.83 441.25,-379.77 438.94,-379.71 436.65,-379.62 434.38,-379.51 432.11,-379.39 429.87,-379.25 427.65,-379.08 425.44,-378.91 423.26,-378.71 421.12,-378.48 418.99,-378.26 416.89,-378.01 414.85,-377.73 412.81,-377.45 410.83,-377.15 408.9,-376.82 406.98,-376.49 405.12,-376.14 403.33,-375.77 401.54,-375.39 399.83,-375 398.19,-374.58 396.55,-374.17 395,-373.73 393.53,-373.27 392.06,-372.82 390.68,-372.34 389.4,-371.85 388.11,-371.36 386.92,-370.86 385.83,-370.34 384.74,-369.82 383.75,-369.29 382.87,-368.74 381.98,-368.2 381.2,-367.64 380.53,-367.08 379.86,-366.52 379.3,-365.94 378.84,-365.37 378.39,-364.79 378.05,-364.2 377.83,-363.62 377.6,-363.03 377.49,-362.44 377.49,-361.85 377.49,-361.85 448.17,-361.85 448.17,-361.85"/>
<path fill="#ffcdd2" stroke="#2e7d32" stroke-width="0.5" d="M448.17,-361.85C448.17,-361.85 377.49,-361.85 377.49,-361.85 377.49,-361.26 377.6,-360.68 377.83,-360.09 378.05,-359.5 378.39,-358.92 378.84,-358.34 379.3,-357.76 379.86,-357.19 380.53,-356.63 381.2,-356.07 381.98,-355.51 382.87,-354.97 383.75,-354.42 384.74,-353.89 385.83,-353.37 386.92,-352.85 388.11,-352.34 389.4,-351.85 390.68,-351.36 392.06,-350.89 393.53,-350.43 395,-349.98 396.55,-349.54 398.19,-349.13 399.83,-348.71 401.54,-348.31 403.33,-347.94 405.12,-347.57 406.98,-347.21 408.9,-346.89 410.83,-346.56 412.81,-346.26 414.85,-345.98 416.89,-345.7 418.99,-345.45 421.12,-345.22 423.26,-345 425.44,-344.8 427.65,-344.63 429.87,-344.46 432.11,-344.31 434.38,-344.2 436.65,-344.08 438.94,-344 441.25,-343.94 443.55,-343.88 445.86,-343.85 448.17,-343.85 450.49,-343.85 452.8,-343.88 455.1,-343.94 457.41,-344 459.7,-344.08 461.96,-344.2 464.23,-344.31 466.48,-344.46 468.69,-344.63 470.91,-344.8 473.09,-345 475.22,-345.22 477.36,-345.45 479.46,-345.7 481.5,-345.98 483.54,-346.26 485.52,-346.56 487.45,-346.89 489.37,-347.21 491.23,-347.57 493.02,-347.94 494.81,-348.31 496.52,-348.71 498.16,-349.13 499.79,-349.54 501.35,-349.98 502.82,-350.43 504.28,-350.89 505.66,-351.36 506.95,-351.85 508.23,-352.34 509.42,-352.85 510.51,-353.37 511.61,-353.89 512.6,-354.42 513.48,-354.97 514.37,-355.51 515.15,-356.07 515.82,-356.63 516.49,-357.19 517.05,-357.76 517.5,-358.34 517.95,-358.92 518.29,-359.5 518.52,-360.09 518.75,-360.68 518.86,-361.26 518.86,-361.85 518.86,-361.85 448.17,-361.85 448.17,-361.85"/>
<ellipse fill="none" stroke="#2e7d32" stroke-width="2" cx="448.17" cy="-361.85" rx="70.69" ry="18"/>
<text text-anchor="middle" x="448.17" y="-358.15" font-family="Helvetica,Arial,sans-serif" font-size="14.00">Dunc's Mistake</text>
</g>
<!-- Duncs_Mistake&#45;&gt;Portal_Island -->
<g id="edge25" class="edge">
<title>Duncs_Mistake-&gt;Portal_Island</title>
<path fill="none" stroke="#c62828" d="M388.9,-351.98C379.91,-350.48 370.69,-348.94 361.86,-347.47"/>
<text text-anchor="middle" x="394.88" y="-338.53" font-family="Helvetica,Arial,sans-serif" font-size="14.00">scenic</text>
</g>
<!-- Junction6 -->
<!-- Duncs_Mistake&#45;&gt;Junction6 -->
<g id="edge45" class="edge">
<title>Duncs_Mistake-&gt;Junction6</title>
<path fill="none" stroke="#e53935" stroke-width="2" d="M430.55,-344.02C404.25,-317.41 357.51,-270.1 354.61,-267.17"/>
</g>
<!-- Frigidaire_ad -->
<g id="node36" class="node">
<title>Frigidaire_ad</title>
<path fill="#a5d6a7" stroke="#2e7d32" stroke-width="0.5" d="M881.98,-768.61C881.98,-768.61 946.17,-768.61 946.17,-768.61 946.17,-769.2 946.07,-769.79 945.86,-770.37 945.65,-770.96 945.34,-771.54 944.93,-772.12 944.53,-772.7 944.01,-773.27 943.4,-773.83 942.79,-774.4 942.09,-774.95 941.28,-775.5 940.48,-776.04 939.58,-776.57 938.59,-777.09 937.6,-777.61 936.52,-778.12 935.35,-778.61 934.18,-779.1 932.93,-779.57 931.6,-780.03 930.27,-780.48 928.85,-780.92 927.37,-781.34 925.88,-781.75 924.32,-782.15 922.7,-782.52 921.08,-782.9 919.39,-783.25 917.64,-783.57 915.89,-783.9 914.09,-784.2 912.24,-784.48 910.38,-784.76 908.48,-785.01 906.54,-785.24 904.6,-785.46 902.62,-785.66 900.61,-785.83 898.6,-786 896.56,-786.15 894.5,-786.26 892.44,-786.38 890.36,-786.46 888.27,-786.52 886.18,-786.58 884.08,-786.61 881.98,-786.61 879.88,-786.61 877.78,-786.58 875.69,-786.52 873.6,-786.46 871.52,-786.38 869.46,-786.26 867.4,-786.15 865.36,-786 863.35,-785.83 861.34,-785.66 859.36,-785.46 857.42,-785.24 855.47,-785.01 853.57,-784.76 851.72,-784.48 849.87,-784.2 848.06,-783.9 846.32,-783.57 844.57,-783.25 842.88,-782.9 841.26,-782.52 839.63,-782.15 838.08,-781.75 836.59,-781.34 835.11,-780.92 833.69,-780.48 832.36,-780.03 831.03,-779.57 829.78,-779.1 828.61,-778.61 827.44,-778.12 826.36,-777.61 825.37,-777.09 824.38,-776.57 823.48,-776.04 822.68,-775.5 821.87,-774.95 821.16,-774.4 820.55,-773.83 819.94,-773.27 819.43,-772.7 819.02,-772.12 818.61,-771.54 818.31,-770.96 818.1,-770.37 817.89,-769.79 817.79,-769.2 817.79,-768.61 817.79,-768.61 881.98,-768.61 881.98,-768.61"/>
<path fill="#ffcdd2" stroke="#2e7d32" stroke-width="0.5" d="M881.98,-768.61C881.98,-768.61 817.79,-768.61 817.79,-768.61 817.79,-768.02 817.89,-767.43 818.1,-766.84 818.31,-766.26 818.61,-765.67 819.02,-765.1 819.43,-764.52 819.94,-763.95 820.55,-763.38 821.16,-762.82 821.87,-762.26 822.68,-761.72 823.48,-761.17 824.38,-760.64 825.37,-760.12 826.36,-759.6 827.44,-759.1 828.61,-758.61 829.78,-758.12 831.03,-757.64 832.36,-757.19 833.69,-756.73 835.11,-756.3 836.59,-755.88 838.08,-755.46 839.63,-755.07 841.26,-754.69 842.88,-754.32 844.57,-753.97 846.32,-753.64 848.06,-753.31 849.87,-753.01 851.72,-752.73 853.57,-752.45 855.47,-752.2 857.42,-751.98 859.36,-751.75 861.34,-751.55 863.35,-751.38 865.36,-751.21 867.4,-751.07 869.46,-750.95 871.52,-750.84 873.6,-750.75 875.69,-750.69 877.78,-750.64 879.88,-750.61 881.98,-750.61 884.08,-750.61 886.18,-750.64 888.27,-750.69 890.36,-750.75 892.44,-750.84 894.5,-750.95 896.56,-751.07 898.6,-751.21 900.61,-751.38 902.62,-751.55 904.6,-751.75 906.54,-751.98 908.48,-752.2 910.38,-752.45 912.24,-752.73 914.09,-753.01 915.89,-753.31 917.64,-753.64 919.39,-753.97 921.08,-754.32 922.7,-754.69 924.32,-755.07 925.88,-755.46 927.37,-755.88 928.85,-756.3 930.27,-756.73 931.6,-757.19 932.93,-757.64 934.18,-758.12 935.35,-758.61 936.52,-759.1 937.6,-759.6 938.59,-760.12 939.58,-760.64 940.48,-761.17 941.28,-761.72 942.09,-762.26 942.79,-762.82 943.4,-763.38 944.01,-763.95 944.53,-764.52 944.93,-765.1 945.34,-765.67 945.65,-766.26 945.86,-766.84 946.07,-767.43 946.17,-768.02 946.17,-768.61 946.17,-768.61 881.98,-768.61 881.98,-768.61"/>
<ellipse fill="none" stroke="#2e7d32" stroke-width="2" cx="881.98" cy="-768.61" rx="64.19" ry="18"/>
<text text-anchor="middle" x="881.98" y="-764.91" font-family="Helvetica,Arial,sans-serif" font-size="14.00">Frigidaire #ad</text>
</g>
<!-- Pillager -->
<g id="node37" class="node">
<title>Pillager</title>
<path fill="#a5d6a7" stroke="#2e7d32" stroke-width="0.5" d="M1059.39,-607.57C1059.39,-607.57 1099.49,-607.57 1099.49,-607.57 1099.49,-608.16 1099.42,-608.75 1099.29,-609.34 1099.16,-609.92 1098.97,-610.51 1098.72,-611.09 1098.46,-611.66 1098.14,-612.24 1097.76,-612.8 1097.38,-613.36 1096.94,-613.92 1096.43,-614.46 1095.93,-615.01 1095.37,-615.54 1094.75,-616.06 1094.13,-616.58 1093.46,-617.08 1092.73,-617.57 1092,-618.06 1091.22,-618.54 1090.38,-618.99 1089.55,-619.45 1088.67,-619.89 1087.74,-620.3 1086.81,-620.72 1085.84,-621.11 1084.83,-621.49 1083.81,-621.86 1082.76,-622.21 1081.67,-622.54 1080.58,-622.87 1079.45,-623.17 1078.29,-623.45 1077.13,-623.73 1075.95,-623.98 1074.73,-624.2 1073.52,-624.43 1072.29,-624.63 1071.03,-624.8 1069.77,-624.97 1068.5,-625.11 1067.21,-625.23 1065.93,-625.34 1064.63,-625.43 1063.32,-625.49 1062.02,-625.55 1060.7,-625.57 1059.39,-625.57 1058.08,-625.57 1056.77,-625.55 1055.46,-625.49 1054.16,-625.43 1052.86,-625.34 1051.57,-625.23 1050.28,-625.11 1049.01,-624.97 1047.75,-624.8 1046.5,-624.63 1045.26,-624.43 1044.05,-624.2 1042.84,-623.98 1041.65,-623.73 1040.49,-623.45 1039.33,-623.17 1038.21,-622.87 1037.12,-622.54 1036.03,-622.21 1034.97,-621.86 1033.96,-621.49 1032.94,-621.11 1031.97,-620.72 1031.04,-620.3 1030.11,-619.89 1029.23,-619.45 1028.4,-618.99 1027.57,-618.54 1026.78,-618.06 1026.05,-617.57 1025.33,-617.08 1024.65,-616.58 1024.03,-616.06 1023.41,-615.54 1022.85,-615.01 1022.35,-614.46 1021.85,-613.92 1021.41,-613.36 1021.02,-612.8 1020.64,-612.24 1020.32,-611.66 1020.07,-611.09 1019.81,-610.51 1019.62,-609.92 1019.49,-609.34 1019.36,-608.75 1019.3,-608.16 1019.3,-607.57 1019.3,-607.57 1059.39,-607.57 1059.39,-607.57"/>
<path fill="#ffcdd2" stroke="#2e7d32" stroke-width="0.5" d="M1059.39,-607.57C1059.39,-607.57 1019.3,-607.57 1019.3,-607.57 1019.3,-606.99 1019.36,-606.4 1019.49,-605.81 1019.62,-605.22 1019.81,-604.64 1020.07,-604.06 1020.32,-603.48 1020.64,-602.91 1021.02,-602.35 1021.41,-601.79 1021.85,-601.23 1022.35,-600.69 1022.85,-600.14 1023.41,-599.61 1024.03,-599.09 1024.65,-598.57 1025.33,-598.06 1026.05,-597.57 1026.78,-597.08 1027.57,-596.61 1028.4,-596.16 1029.23,-595.7 1030.11,-595.26 1031.04,-594.85 1031.97,-594.43 1032.94,-594.03 1033.96,-593.66 1034.97,-593.29 1036.03,-592.94 1037.12,-592.61 1038.21,-592.28 1039.33,-591.98 1040.49,-591.7 1041.65,-591.42 1042.84,-591.17 1044.05,-590.94 1045.26,-590.72 1046.5,-590.52 1047.75,-590.35 1049.01,-590.18 1050.28,-590.04 1051.57,-589.92 1052.86,-589.81 1054.16,-589.72 1055.46,-589.66 1056.77,-589.6 1058.08,-589.57 1059.39,-589.57 1060.7,-589.57 1062.02,-589.6 1063.32,-589.66 1064.63,-589.72 1065.93,-589.81 1067.21,-589.92 1068.5,-590.04 1069.77,-590.18 1071.03,-590.35 1072.29,-590.52 1073.52,-590.72 1074.73,-590.94 1075.95,-591.17 1077.13,-591.42 1078.29,-591.7 1079.45,-591.98 1080.58,-592.28 1081.67,-592.61 1082.76,-592.94 1083.81,-593.29 1084.83,-593.66 1085.84,-594.03 1086.81,-594.43 1087.74,-594.85 1088.67,-595.26 1089.55,-595.7 1090.38,-596.16 1091.22,-596.61 1092,-597.08 1092.73,-597.57 1093.46,-598.06 1094.13,-598.57 1094.75,-599.09 1095.37,-599.61 1095.93,-600.14 1096.43,-600.69 1096.94,-601.23 1097.38,-601.79 1097.76,-602.35 1098.14,-602.91 1098.46,-603.48 1098.72,-604.06 1098.97,-604.64 1099.16,-605.22 1099.29,-605.81 1099.42,-606.4 1099.49,-606.99 1099.49,-607.57 1099.49,-607.57 1059.39,-607.57 1059.39,-607.57"/>
<ellipse fill="none" stroke="#2e7d32" stroke-width="2" cx="1059.39" cy="-607.57" rx="40.09" ry="18"/>
<text text-anchor="middle" x="1059.39" y="-603.87" font-family="Helvetica,Arial,sans-serif" font-size="14.00">Pillager</text>
</g>
<!-- Mangrove_Station -->
<g id="node38" class="node">
<title>Mangrove_Station</title>
<path fill="#a5d6a7" stroke="#2e7d32" stroke-width="0.5" d="M1034.31,-733.2C1034.31,-733.2 1114.19,-733.2 1114.19,-733.2 1114.19,-733.79 1114.06,-734.38 1113.81,-734.96 1113.55,-735.55 1113.17,-736.13 1112.66,-736.71 1112.15,-737.29 1111.51,-737.86 1110.75,-738.42 1109.99,-738.99 1109.11,-739.54 1108.11,-740.09 1107.11,-740.63 1105.99,-741.17 1104.76,-741.68 1103.53,-742.2 1102.18,-742.71 1100.73,-743.2 1099.28,-743.69 1097.72,-744.16 1096.06,-744.62 1094.4,-745.07 1092.64,-745.51 1090.79,-745.93 1088.95,-746.34 1087.01,-746.74 1084.99,-747.11 1082.96,-747.49 1080.86,-747.84 1078.69,-748.17 1076.51,-748.49 1074.27,-748.8 1071.96,-749.07 1069.66,-749.35 1067.29,-749.6 1064.88,-749.83 1062.46,-750.05 1060,-750.25 1057.5,-750.42 1054.99,-750.6 1052.46,-750.74 1049.89,-750.85 1047.33,-750.97 1044.74,-751.06 1042.14,-751.11 1039.53,-751.17 1036.92,-751.2 1034.31,-751.2 1031.69,-751.2 1029.08,-751.17 1026.48,-751.11 1023.87,-751.06 1021.29,-750.97 1018.72,-750.85 1016.16,-750.74 1013.62,-750.6 1011.12,-750.42 1008.61,-750.25 1006.15,-750.05 1003.74,-749.83 1001.32,-749.6 998.95,-749.35 996.65,-749.07 994.34,-748.8 992.1,-748.49 989.92,-748.17 987.75,-747.84 985.65,-747.49 983.63,-747.11 981.61,-746.74 979.67,-746.34 977.82,-745.93 975.97,-745.51 974.21,-745.07 972.55,-744.62 970.89,-744.16 969.34,-743.69 967.88,-743.2 966.43,-742.71 965.09,-742.2 963.85,-741.68 962.62,-741.17 961.5,-740.63 960.5,-740.09 959.5,-739.54 958.62,-738.99 957.86,-738.42 957.1,-737.86 956.47,-737.29 955.96,-736.71 955.45,-736.13 955.06,-735.55 954.81,-734.96 954.55,-734.38 954.42,-733.79 954.42,-733.2 954.42,-733.2 1034.31,-733.2 1034.31,-733.2"/>
<path fill="#ffcdd2" stroke="#2e7d32" stroke-width="0.5" d="M1034.31,-733.2C1034.31,-733.2 954.42,-733.2 954.42,-733.2 954.42,-732.61 954.55,-732.02 954.81,-731.44 955.06,-730.85 955.45,-730.27 955.96,-729.69 956.47,-729.11 957.1,-728.54 957.86,-727.97 958.62,-727.41 959.5,-726.86 960.5,-726.31 961.5,-725.77 962.62,-725.23 963.85,-724.71 965.09,-724.19 966.43,-723.69 967.88,-723.2 969.34,-722.71 970.89,-722.24 972.55,-721.78 974.21,-721.33 975.97,-720.89 977.82,-720.47 979.67,-720.06 981.61,-719.66 983.63,-719.29 985.65,-718.91 987.75,-718.56 989.92,-718.23 992.1,-717.91 994.34,-717.6 996.65,-717.32 998.95,-717.05 1001.32,-716.8 1003.74,-716.57 1006.15,-716.34 1008.61,-716.15 1011.12,-715.97 1013.62,-715.8 1016.16,-715.66 1018.72,-715.55 1021.29,-715.43 1023.87,-715.34 1026.48,-715.29 1029.08,-715.23 1031.69,-715.2 1034.31,-715.2 1036.92,-715.2 1039.53,-715.23 1042.14,-715.29 1044.74,-715.34 1047.33,-715.43 1049.89,-715.55 1052.46,-715.66 1054.99,-715.8 1057.5,-715.97 1060,-716.15 1062.46,-716.34 1064.88,-716.57 1067.29,-716.8 1069.66,-717.05 1071.96,-717.32 1074.27,-717.6 1076.51,-717.91 1078.69,-718.23 1080.86,-718.56 1082.96,-718.91 1084.99,-719.29 1087.01,-719.66 1088.95,-720.06 1090.79,-720.47 1092.64,-720.89 1094.4,-721.33 1096.06,-721.78 1097.72,-722.24 1099.28,-722.71 1100.73,-723.2 1102.18,-723.69 1103.53,-724.19 1104.76,-724.71 1105.99,-725.23 1107.11,-725.77 1108.11,-726.31 1109.11,-726.86 1109.99,-727.41 1110.75,-727.97 1111.51,-728.54 1112.15,-729.11 1112.66,-729.69 1113.17,-730.27 1113.55,-730.85 1113.81,-731.44 1114.06,-732.02 1114.19,-732.61 1114.19,-733.2 1114.19,-733.2 1034.31,-733.2 1034.31,-733.2"/>
<ellipse fill="none" stroke="#2e7d32" stroke-width="2" cx="1034.31" cy="-733.2" rx="79.89" ry="18"/>
<text text-anchor="middle" x="1034.31" y="-729.5" font-family="Helvetica,Arial,sans-serif" font-size="14.00">Mangrove Station</text>
</g>
<!-- Mangrove_Station&#45;&gt;WTO_Memorial -->
<g id="edge42" class="edge">
<title>Mangrove_Station-&gt;WTO_Memorial</title>
<path fill="none" stroke="#c62828" d="M1069.06,-749.53C1078.51,-753.96 1088.72,-758.76 1098.12,-763.17"/>
</g>
<!-- Trial_Chamber -->
<g id="node40" class="node">
<title>Trial_Chamber</title>
<path fill="#a5d6a7" stroke="#2e7d32" stroke-width="0.5" d="M787.73,-854.56C787.73,-854.56 853.81,-854.56 853.81,-854.56 853.81,-855.14 853.71,-855.73 853.5,-856.32 853.28,-856.91 852.97,-857.49 852.54,-858.07 852.12,-858.64 851.6,-859.22 850.97,-859.78 850.34,-860.34 849.61,-860.9 848.78,-861.44 847.96,-861.99 847.03,-862.52 846.01,-863.04 844.99,-863.56 843.88,-864.07 842.68,-864.56 841.47,-865.05 840.19,-865.52 838.81,-865.97 837.44,-866.43 835.99,-866.87 834.46,-867.28 832.93,-867.7 831.32,-868.1 829.65,-868.47 827.98,-868.84 826.24,-869.19 824.44,-869.52 822.64,-869.85 820.79,-870.15 818.88,-870.43 816.97,-870.71 815.01,-870.96 813.02,-871.19 811.02,-871.41 808.98,-871.61 806.91,-871.78 804.84,-871.95 802.74,-872.09 800.62,-872.21 798.5,-872.32 796.36,-872.41 794.2,-872.47 792.05,-872.53 789.89,-872.56 787.73,-872.56 785.56,-872.56 783.4,-872.53 781.25,-872.47 779.09,-872.41 776.95,-872.32 774.83,-872.21 772.71,-872.09 770.61,-871.95 768.54,-871.78 766.47,-871.61 764.43,-871.41 762.43,-871.19 760.44,-870.96 758.48,-870.71 756.57,-870.43 754.66,-870.15 752.81,-869.85 751.01,-869.52 749.21,-869.19 747.47,-868.84 745.8,-868.47 744.13,-868.1 742.52,-867.7 740.99,-867.28 739.46,-866.87 738.01,-866.43 736.64,-865.97 735.27,-865.52 733.98,-865.05 732.77,-864.56 731.57,-864.07 730.46,-863.56 729.44,-863.04 728.42,-862.52 727.5,-861.99 726.67,-861.44 725.84,-860.9 725.11,-860.34 724.48,-859.78 723.85,-859.22 723.33,-858.64 722.91,-858.07 722.48,-857.49 722.17,-856.91 721.95,-856.32 721.74,-855.73 721.64,-855.14 721.64,-854.56 721.64,-854.56 787.73,-854.56 787.73,-854.56"/>
<path fill="#ffcdd2" stroke="#2e7d32" stroke-width="0.5" d="M787.73,-854.56C787.73,-854.56 721.64,-854.56 721.64,-854.56 721.64,-853.97 721.74,-853.38 721.95,-852.79 722.17,-852.2 722.48,-851.62 722.91,-851.04 723.33,-850.47 723.85,-849.89 724.48,-849.33 725.11,-848.77 725.84,-848.21 726.67,-847.67 727.5,-847.12 728.42,-846.59 729.44,-846.07 730.46,-845.55 731.57,-845.04 732.77,-844.55 733.98,-844.07 735.27,-843.59 736.64,-843.14 738.01,-842.68 739.46,-842.24 740.99,-841.83 742.52,-841.41 744.13,-841.01 745.8,-840.64 747.47,-840.27 749.21,-839.92 751.01,-839.59 752.81,-839.26 754.66,-838.96 756.57,-838.68 758.48,-838.4 760.44,-838.15 762.43,-837.93 764.43,-837.7 766.47,-837.5 768.54,-837.33 770.61,-837.16 772.71,-837.02 774.83,-836.9 776.95,-836.79 779.09,-836.7 781.25,-836.64 783.4,-836.58 785.56,-836.56 787.73,-836.56 789.89,-836.56 792.05,-836.58 794.2,-836.64 796.36,-836.7 798.5,-836.79 800.62,-836.9 802.74,-837.02 804.84,-837.16 806.91,-837.33 808.98,-837.5 811.02,-837.7 813.02,-837.93 815.01,-838.15 816.97,-838.4 818.88,-838.68 820.79,-838.96 822.64,-839.26 824.44,-839.59 826.24,-839.92 827.98,-840.27 829.65,-840.64 831.32,-841.01 832.93,-841.41 834.46,-841.83 835.99,-842.24 837.44,-842.68 838.81,-843.14 840.19,-843.59 841.47,-844.07 842.68,-844.55 843.88,-845.04 844.99,-845.55 846.01,-846.07 847.03,-846.59 847.96,-847.12 848.78,-847.67 849.61,-848.21 850.34,-848.77 850.97,-849.33 851.6,-849.89 852.12,-850.47 852.54,-851.04 852.97,-851.62 853.28,-852.2 853.5,-852.79 853.71,-853.38 853.81,-853.97 853.81,-854.56 853.81,-854.56 787.73,-854.56 787.73,-854.56"/>
<ellipse fill="none" stroke="#2e7d32" stroke-width="2" cx="787.73" cy="-854.56" rx="66.09" ry="18"/>
<text text-anchor="middle" x="787.73" y="-850.86" font-family="Helvetica,Arial,sans-serif" font-size="14.00">Trial Chamber</text>
</g>
<!-- End_Village&#45;&gt;Trial_Chamber -->
<g id="edge44" class="edge">
<title>End_Village-&gt;Trial_Chamber</title>
<path fill="none" stroke="#c62828" d="M708.58,-815.55C723.16,-822.73 740.62,-831.34 755.42,-838.63"/>
</g>
<!-- EndJunction1 -->
<!-- End_Village&#45;&gt;EndJunction1 -->
<g id="edge48" class="edge">
<title>End_Village-&gt;EndJunction1</title>
<path fill="none" stroke="#4a148c" d="M678.74,-818.84C679.89,-848.09 682.01,-902.34 682.14,-905.7"/>
</g>
<!-- Dragon_Junction&#45;&gt;Mob_Grinder -->
<g id="edge6" class="edge">
<title>Dragon_Junction-&gt;Mob_Grinder</title>
<path fill="none" stroke="#4285f4" stroke-width="2" d="M842.54,-153.46C840.42,-154.57 795.81,-177.75 764.53,-194"/>
</g>
<!-- Dragon_Junction&#45;&gt;Guardian_Farm -->
<g id="edge8" class="edge">
<title>Dragon_Junction-&gt;Guardian_Farm</title>
<path fill="none" stroke="black" d="M842.65,-153.35C843.64,-151.1 866.99,-98.3 879.69,-69.59"/>
</g>
<!-- Junction2 -->
<!-- Junction2&#45;&gt;CUBO -->
<g id="edge26" class="edge">
<title>Junction2-&gt;CUBO</title>
<path fill="none" stroke="#c62828" d="M543.22,-398.96C544.91,-396.18 586.22,-328.15 606.13,-295.36"/>
</g>
<!-- Junction2&#45;&gt;Duncs_Mistake -->
<g id="edge24" class="edge">
<title>Junction2-&gt;Duncs_Mistake</title>
<path fill="none" stroke="#c62828" d="M543.1,-399.02C541.5,-398.39 512.47,-387.03 486.93,-377.03"/>
</g>
<!-- Junction3&#45;&gt;Hog_Farm -->
<g id="edge21" class="edge">
<title>Junction3-&gt;Hog_Farm</title>
<path fill="none" stroke="#c62828" d="M531.76,-528.69C529.53,-529.64 482.81,-549.42 449.69,-563.44"/>
</g>
<!-- Junction3&#45;&gt;Junction2 -->
<g id="edge20" class="edge">
<title>Junction3-&gt;Junction2</title>
<path fill="none" stroke="#c62828" d="M531.85,-528.56C532.19,-524.7 542.83,-402.94 543.16,-399.13"/>
</g>
<!-- Junction4 -->
<!-- Junction4&#45;&gt;CML_Memorial -->
<g id="edge33" class="edge">
<title>Junction4-&gt;CML_Memorial</title>
<path fill="none" stroke="#c62828" d="M210.3,-677.57C208.43,-676.66 171.01,-658.45 142.35,-644.5"/>
</g>
<!-- Junction4&#45;&gt;Sand_Mine -->
<g id="edge34" class="edge">
<title>Junction4-&gt;Sand_Mine</title>
<path fill="none" stroke="#c62828" d="M210.32,-677.67C208.79,-679.58 173.49,-723.68 153.21,-749.02"/>
</g>
<!-- Junction5&#45;&gt;Ancient_City -->
<g id="edge30" class="edge">
<title>Junction5-&gt;Ancient_City</title>
<path fill="none" stroke="#c62828" d="M322.55,-641.51C323.25,-643.84 339.84,-699.08 348.73,-728.68"/>
</g>
<!-- Junction5&#45;&gt;Junction4 -->
<g id="edge32" class="edge">
<title>Junction5-&gt;Junction4</title>
<path fill="none" stroke="#c62828" d="M322.45,-641.46C319.1,-642.54 213.74,-676.52 210.45,-677.58"/>
</g>
<!-- Junction6&#45;&gt;Baddylands -->
<g id="edge36" class="edge">
<title>Junction6-&gt;Baddylands</title>
<path fill="none" stroke="#c62828" d="M354.42,-266.96C352.68,-264.91 312.37,-217.37 289.83,-190.78"/>
</g>
<!-- Junction6&#45;&gt;Portal_Island -->
<g id="edge46" class="edge">
<title>Junction6-&gt;Portal_Island</title>
<path fill="none" stroke="#e53935" stroke-width="2" d="M354.44,-267.08C353.53,-268.53 333.72,-300.01 320.67,-320.75"/>
</g>
<!-- Junction7&#45;&gt;Frigidaire_ad -->
<g id="edge38" class="edge">
<title>Junction7-&gt;Frigidaire_ad</title>
<path fill="none" stroke="#c62828" d="M869.27,-661.79C869.55,-664.17 876.27,-720.66 879.83,-750.5"/>
</g>
<!-- Junction8 -->
<!-- Junction7&#45;&gt;Junction8 -->
<g id="edge39" class="edge">
<title>Junction7-&gt;Junction8</title>
<path fill="none" stroke="#c62828" d="M869.33,-661.71C872.32,-661.54 966.57,-656.09 969.51,-655.92"/>
</g>
<!-- Junction8&#45;&gt;Pillager -->
<g id="edge43" class="edge">
<title>Junction8-&gt;Pillager</title>
<path fill="none" stroke="#c62828" d="M969.65,-655.88C971.39,-654.95 1007.73,-635.38 1033.63,-621.44"/>
</g>
<!-- Junction8&#45;&gt;Mangrove_Station -->
<g id="edge41" class="edge">
<title>Junction8-&gt;Mangrove_Station</title>
<path fill="none" stroke="#c62828" d="M969.63,-655.97C970.97,-657.57 1000.7,-693.07 1019.38,-715.38"/>
</g>
<!-- Junction8&#45;&gt;vvitch -->
<g id="edge40" class="edge">
<title>Junction8-&gt;vvitch</title>
<path fill="none" stroke="#c62828" d="M969.53,-655.89C968.11,-655.3 940.27,-643.63 918.32,-634.43"/>
</g>
<!-- EndJunction1&#45;&gt;Enderman_Farm -->
<g id="edge49" class="edge">
<title>EndJunction1-&gt;Enderman_Farm</title>
<path fill="none" stroke="#4a148c" d="M682.21,-905.93C684.16,-907.82 728.83,-951.15 754.84,-976.38"/>
</g>
<!-- EndJunction1&#45;&gt;Shulker_Farm -->
<g id="edge50" class="edge">
<title>EndJunction1-&gt;Shulker_Farm</title>
<path fill="none" stroke="#4a148c" d="M682.1,-905.94C680.86,-908.01 651.83,-956.2 635.61,-983.15"/>
</g>
</g>
</g>
</svg>
