<?xml version='1.0' encoding='UTF-8'?>
<svg xmlns="http://www.w3.org/2000/svg" width="1962.19pt" height="1130.81pt" viewBox="0 0 1962.19 1130.81">
  <g transform="translate(50, 50)"><g id="graph0" class="graph" transform="scale(1 1) rotate(0) translate(4 275)">
<title>Legend</title>
<polygon fill="#f5f5f5" stroke="transparent" points="-4,4 -4,-275 229,-275 229,4 -4,4"/>
<text text-anchor="middle" x="112.5" y="-7" font-family="Helvetica,Arial,sans-serif" font-size="10.00">Legend</text>
<g id="clust1" class="cluster">
<title>cluster_stations</title>
<path fill="#f5f5f5" stroke="black" d="M20,-86C20,-86 73,-86 73,-86 79,-86 85,-92 85,-98 85,-98 85,-251 85,-251 85,-257 79,-263 73,-263 73,-263 20,-263 20,-263 14,-263 8,-257 8,-251 8,-251 8,-98 8,-98 8,-92 14,-86 20,-86"/>
<text text-anchor="middle" x="46.5" y="-251" font-family="Helvetica,Arial,sans-serif" font-size="10.00">Station Types</text>
</g>
<g id="clust2" class="cluster">
<title>cluster_connections</title>
<path fill="#f5f5f5" stroke="black" d="M105,-27C105,-27 205,-27 205,-27 211,-27 217,-33 217,-39 217,-39 217,-233 217,-233 217,-239 211,-245 205,-245 205,-245 105,-245 105,-245 99,-245 93,-239 93,-233 93,-233 93,-39 93,-39 93,-33 99,-27 105,-27"/>
<text text-anchor="middle" x="155" y="-233" font-family="Helvetica,Arial,sans-serif" font-size="10.00">Connection Types</text>
</g>
<!-- Overworld_Key -->
<g id="node1" class="node">
<title>Overworld_Key</title>
<polygon fill="#a5d6a7" stroke="#2e7d32" points="73,-236 19,-236 19,-200 73,-200 73,-236"/>
<text text-anchor="middle" x="46" y="-216.1" font-family="Helvetica,Arial,sans-serif" font-size="8.00">Overworld</text>
</g>
<!-- Nether_Key -->
<g id="node2" class="node">
<title>Nether_Key</title>
<polygon fill="#ffcdd2" stroke="#c62828" points="73,-183 19,-183 19,-147 73,-147 73,-183"/>
<text text-anchor="middle" x="46" y="-163.1" font-family="Helvetica,Arial,sans-serif" font-size="8.00">Nether</text>
</g>
<!-- Overworld_Key&#45;&gt;Nether_Key -->
<!-- End_Key -->
<g id="node3" class="node">
<title>End_Key</title>
<polygon fill="#e1bee7" stroke="#4a148c" points="73,-130 19,-130 19,-94 73,-94 73,-130"/>
<text text-anchor="middle" x="46" y="-110.1" font-family="Helvetica,Arial,sans-serif" font-size="8.00">The End</text>
</g>
<!-- Nether_Key&#45;&gt;End_Key -->
<!-- Intercont_Start -->
<g id="node4" class="node">
<title>Intercont_Start</title>
<ellipse fill="black" stroke="black" cx="101" cy="-218" rx="0" ry="0"/>
</g>
<!-- Intercont_End -->
<g id="node5" class="node">
<title>Intercont_End</title>
<ellipse fill="black" stroke="black" cx="209" cy="-218" rx="0" ry="0"/>
</g>
<!-- Intercont_Start&#45;&gt;Intercont_End -->
<g id="edge8" class="edge">
<title>Intercont_Start-&gt;Intercont_End</title>
<path fill="none" stroke="#4285f4" stroke-width="2" d="M101.08,-218C104.3,-218 205.75,-218 208.92,-218"/>
<text text-anchor="middle" x="155" y="-223.6" font-family="Helvetica,Arial,sans-serif" font-size="8.00">Intercontinental Railroad</text>
</g>
<!-- Overworld_Rail_Start -->
<g id="node6" class="node">
<title>Overworld_Rail_Start</title>
<ellipse fill="black" stroke="black" cx="101" cy="-165" rx="0" ry="0"/>
</g>
<!-- Intercont_Start&#45;&gt;Overworld_Rail_Start -->
<!-- Overworld_Rail_End -->
<g id="node7" class="node">
<title>Overworld_Rail_End</title>
<ellipse fill="black" stroke="black" cx="209" cy="-165" rx="0" ry="0"/>
</g>
<!-- Overworld_Rail_Start&#45;&gt;Overworld_Rail_End -->
<g id="edge9" class="edge">
<title>Overworld_Rail_Start-&gt;Overworld_Rail_End</title>
<path fill="none" stroke="black" d="M101.08,-165C104.3,-165 205.75,-165 208.92,-165"/>
<text text-anchor="middle" x="155" y="-170.6" font-family="Helvetica,Arial,sans-serif" font-size="8.00">Overworld Rail</text>
</g>
<!-- End_Rail_Start -->
<g id="node8" class="node">
<title>End_Rail_Start</title>
<ellipse fill="black" stroke="black" cx="101" cy="-112" rx="0" ry="0"/>
</g>
<!-- Overworld_Rail_Start&#45;&gt;End_Rail_Start -->
<!-- End_Rail_End -->
<g id="node9" class="node">
<title>End_Rail_End</title>
<ellipse fill="black" stroke="black" cx="209" cy="-112" rx="0" ry="0"/>
</g>
<!-- End_Rail_Start&#45;&gt;End_Rail_End -->
<g id="edge10" class="edge">
<title>End_Rail_Start-&gt;End_Rail_End</title>
<path fill="none" stroke="#4a148c" stroke-dasharray="5,2" d="M101.08,-112C104.3,-112 205.75,-112 208.92,-112"/>
<text text-anchor="middle" x="155" y="-117.6" font-family="Helvetica,Arial,sans-serif" font-size="8.00">End Rail</text>
</g>
<!-- Footpath_Key_Start -->
<g id="node10" class="node">
<title>Footpath_Key_Start</title>
<ellipse fill="black" stroke="black" cx="101" cy="-69" rx="0" ry="0"/>
</g>
<!-- End_Rail_Start&#45;&gt;Footpath_Key_Start -->
<!-- Footpath_Key_End -->
<g id="node11" class="node">
<title>Footpath_Key_End</title>
<ellipse fill="black" stroke="black" cx="209" cy="-69" rx="0" ry="0"/>
</g>
<!-- Footpath_Key_Start&#45;&gt;Footpath_Key_End -->
<g id="edge11" class="edge">
<title>Footpath_Key_Start-&gt;Footpath_Key_End</title>
<path fill="none" stroke="#795548" stroke-dasharray="5,2" d="M101.08,-69C104.3,-69 205.75,-69 208.92,-69"/>
<text text-anchor="middle" x="155" y="-74.6" font-family="Helvetica,Arial,sans-serif" font-size="8.00">Footpath</text>
</g>
<!-- Nether_Rail_Start -->
<g id="node12" class="node">
<title>Nether_Rail_Start</title>
<ellipse fill="black" stroke="black" cx="101" cy="-52" rx="0" ry="0"/>
</g>
<!-- Footpath_Key_Start&#45;&gt;Nether_Rail_Start -->
<!-- Nether_Rail_End -->
<g id="node13" class="node">
<title>Nether_Rail_End</title>
<ellipse fill="black" stroke="black" cx="209" cy="-52" rx="0" ry="0"/>
</g>
<!-- Nether_Rail_Start&#45;&gt;Nether_Rail_End -->
<g id="edge12" class="edge">
<title>Nether_Rail_Start-&gt;Nether_Rail_End</title>
<path fill="none" stroke="#c62828" stroke-dasharray="1,5" d="M101.08,-52C104.3,-52 205.75,-52 208.92,-52"/>
<text text-anchor="middle" x="155" y="-57.6" font-family="Helvetica,Arial,sans-serif" font-size="8.00">Nether Rail</text>
</g>
<!-- Nether_Express_Key_Start -->
<g id="node14" class="node">
<title>Nether_Express_Key_Start</title>
<ellipse fill="black" stroke="black" cx="101" cy="-35" rx="0" ry="0"/>
</g>
<!-- Nether_Rail_Start&#45;&gt;Nether_Express_Key_Start -->
<!-- Nether_Express_Key_End -->
<g id="node15" class="node">
<title>Nether_Express_Key_End</title>
<ellipse fill="black" stroke="black" cx="209" cy="-35" rx="0" ry="0"/>
</g>
<!-- Nether_Express_Key_Start&#45;&gt;Nether_Express_Key_End -->
<g id="edge13" class="edge">
<title>Nether_Express_Key_Start-&gt;Nether_Express_Key_End</title>
<path fill="none" stroke="#e53935" stroke-width="2" d="M101.08,-35C104.3,-35 205.75,-35 208.92,-35"/>
<text text-anchor="middle" x="155" y="-40.6" font-family="Helvetica,Arial,sans-serif" font-size="8.00">Nether Express Rail</text>
</g>
</g>
</g>
  <g transform="translate(333.0, 50)"><g id="graph0" class="graph" transform="scale(1 1) rotate(0) translate(4 1026.81)">
<title>MinecraftRailMap</title>
<polygon fill="white" stroke="transparent" points="-4,4 -4,-1026.81 1575.19,-1026.81 1575.19,4 -4,4"/>
<text text-anchor="middle" x="785.6" y="-7.8" font-family="Helvetica,Arial,sans-serif" font-size="14.00">Minecraft Transit Map</text>
<!-- Chapel -->
<g id="node1" class="node">
<title>Chapel</title>
<ellipse fill="#a5d6a7" stroke="#2e7d32" stroke-width="2" cx="442.19" cy="-868.85" rx="38.19" ry="18"/>
<text text-anchor="middle" x="442.19" y="-865.15" font-family="Helvetica,Arial,sans-serif" font-size="14.00">Chapel</text>
</g>
<!-- Drowned_Farm -->
<g id="node4" class="node">
<title>Drowned_Farm</title>
<ellipse fill="#a5d6a7" stroke="#2e7d32" stroke-width="2" cx="302.6" cy="-813.57" rx="69.59" ry="18"/>
<text text-anchor="middle" x="302.6" y="-809.87" font-family="Helvetica,Arial,sans-serif" font-size="14.00">Drowned Farm</text>
</g>
<!-- Chapel&#45;&gt;Drowned_Farm -->
<g id="edge4" class="edge">
<title>Chapel-&gt;Drowned_Farm</title>
<path fill="none" stroke="#4285f4" stroke-width="2" d="M412.58,-857.12C391.61,-848.82 363.31,-837.61 340.66,-828.64"/>
</g>
<!-- Cow_Farm -->
<g id="node2" class="node">
<title>Cow_Farm</title>
<ellipse fill="#a5d6a7" stroke="#2e7d32" stroke-width="2" cx="589.76" cy="-835.93" rx="51.99" ry="18"/>
<text text-anchor="middle" x="589.76" y="-832.23" font-family="Helvetica,Arial,sans-serif" font-size="14.00">Cow Farm</text>
</g>
<!-- Cow_Farm&#45;&gt;Chapel -->
<g id="edge3" class="edge">
<title>Cow_Farm-&gt;Chapel</title>
<path fill="none" stroke="#4285f4" stroke-width="2" d="M545.88,-845.72C523.96,-850.61 497.8,-856.44 477.24,-861.03"/>
</g>
<!-- Sheep_Farm -->
<g id="node3" class="node">
<title>Sheep_Farm</title>
<ellipse fill="#a5d6a7" stroke="#2e7d32" stroke-width="2" cx="723.26" cy="-744.74" rx="59.59" ry="18"/>
<text text-anchor="middle" x="723.26" y="-741.04" font-family="Helvetica,Arial,sans-serif" font-size="14.00">Sheep Farm</text>
</g>
<!-- Sheep_Farm&#45;&gt;Cow_Farm -->
<g id="edge2" class="edge">
<title>Sheep_Farm-&gt;Cow_Farm</title>
<path fill="none" stroke="#4285f4" stroke-width="2" d="M699.08,-761.26C674.74,-777.89 637.42,-803.37 613.3,-819.85"/>
</g>
<!-- Dragon_Junction -->
<!-- Drowned_Farm&#45;&gt;Dragon_Junction -->
<g id="edge5" class="edge">
<title>Drowned_Farm-&gt;Dragon_Junction</title>
<path fill="none" stroke="#4285f4" stroke-width="2" d="M287.75,-795.97C260.21,-763.33 203.81,-696.46 202.05,-694.38"/>
</g>
<!-- Mob_Grinder -->
<g id="node5" class="node">
<title>Mob_Grinder</title>
<ellipse fill="#a5d6a7" stroke="#2e7d32" stroke-width="2" cx="235.73" cy="-545.78" rx="60.39" ry="18"/>
<text text-anchor="middle" x="235.73" y="-542.08" font-family="Helvetica,Arial,sans-serif" font-size="14.00">Mob Grinder</text>
</g>
<!-- CUBO -->
<g id="node29" class="node">
<title>CUBO</title>
<path fill="#a5d6a7" stroke="#2e7d32" stroke-width="0.5" d="M327.01,-407.96C327.01,-407.96 363.31,-407.96 363.31,-407.96 363.31,-408.55 363.25,-409.14 363.13,-409.73 363.02,-410.31 362.84,-410.9 362.61,-411.48 362.38,-412.05 362.09,-412.63 361.75,-413.19 361.4,-413.75 361,-414.31 360.55,-414.85 360.09,-415.4 359.58,-415.93 359.02,-416.45 358.46,-416.97 357.85,-417.47 357.19,-417.96 356.53,-418.45 355.82,-418.93 355.07,-419.38 354.32,-419.84 353.52,-420.28 352.68,-420.69 351.84,-421.11 350.96,-421.5 350.04,-421.88 349.12,-422.25 348.17,-422.6 347.18,-422.93 346.19,-423.26 345.17,-423.56 344.12,-423.84 343.08,-424.12 342,-424.37 340.9,-424.59 339.81,-424.82 338.69,-425.02 337.55,-425.19 336.41,-425.36 335.26,-425.5 334.1,-425.62 332.93,-425.73 331.75,-425.82 330.57,-425.88 329.39,-425.93 328.2,-425.96 327.01,-425.96 325.83,-425.96 324.64,-425.93 323.46,-425.88 322.28,-425.82 321.1,-425.73 319.93,-425.62 318.77,-425.5 317.62,-425.36 316.48,-425.19 315.34,-425.02 314.22,-424.82 313.13,-424.59 312.03,-424.37 310.95,-424.12 309.91,-423.84 308.86,-423.56 307.84,-423.26 306.85,-422.93 305.86,-422.6 304.91,-422.25 303.99,-421.88 303.07,-421.5 302.19,-421.11 301.35,-420.69 300.51,-420.28 299.71,-419.84 298.96,-419.38 298.21,-418.93 297.5,-418.45 296.84,-417.96 296.18,-417.47 295.57,-416.97 295.01,-416.45 294.45,-415.93 293.94,-415.4 293.48,-414.85 293.03,-414.31 292.63,-413.75 292.28,-413.19 291.94,-412.63 291.65,-412.05 291.42,-411.48 291.19,-410.9 291.01,-410.31 290.9,-409.73 290.78,-409.14 290.72,-408.55 290.72,-407.96 290.72,-407.96 327.01,-407.96 327.01,-407.96"/>
<path fill="#ffcdd2" stroke="#2e7d32" stroke-width="0.5" d="M327.01,-407.96C327.01,-407.96 290.72,-407.96 290.72,-407.96 290.72,-407.37 290.78,-406.79 290.9,-406.2 291.01,-405.61 291.19,-405.03 291.42,-404.45 291.65,-403.87 291.94,-403.3 292.28,-402.74 292.63,-402.17 293.03,-401.62 293.48,-401.08 293.94,-400.53 294.45,-400 295.01,-399.48 295.57,-398.96 296.18,-398.45 296.84,-397.96 297.5,-397.47 298.21,-397 298.96,-396.54 299.71,-396.09 300.51,-395.65 301.35,-395.24 302.19,-394.82 303.07,-394.42 303.99,-394.05 304.91,-393.68 305.86,-393.32 306.85,-393 307.84,-392.67 308.86,-392.37 309.91,-392.09 310.95,-391.81 312.03,-391.56 313.13,-391.33 314.22,-391.11 315.34,-390.91 316.48,-390.74 317.62,-390.57 318.77,-390.42 319.93,-390.31 321.1,-390.19 322.28,-390.11 323.46,-390.05 324.64,-389.99 325.83,-389.96 327.01,-389.96 328.2,-389.96 329.39,-389.99 330.57,-390.05 331.75,-390.11 332.93,-390.19 334.1,-390.31 335.26,-390.42 336.41,-390.57 337.55,-390.74 338.69,-390.91 339.81,-391.11 340.9,-391.33 342,-391.56 343.08,-391.81 344.12,-392.09 345.17,-392.37 346.19,-392.67 347.18,-393 348.17,-393.32 349.12,-393.68 350.04,-394.05 350.96,-394.42 351.84,-394.82 352.68,-395.24 353.52,-395.65 354.32,-396.09 355.07,-396.54 355.82,-397 356.53,-397.47 357.19,-397.96 357.85,-398.45 358.46,-398.96 359.02,-399.48 359.58,-400 360.09,-400.53 360.55,-401.08 361,-401.62 361.4,-402.17 361.75,-402.74 362.09,-403.3 362.38,-403.87 362.61,-404.45 362.84,-405.03 363.02,-405.61 363.13,-406.2 363.25,-406.79 363.31,-407.37 363.31,-407.96 363.31,-407.96 327.01,-407.96 327.01,-407.96"/>
<ellipse fill="none" stroke="#2e7d32" stroke-width="2" cx="327.01" cy="-407.96" rx="36.29" ry="18"/>
<text text-anchor="middle" x="327.01" y="-404.26" font-family="Helvetica,Arial,sans-serif" font-size="14.00">CUBO</text>
</g>
<!-- Mob_Grinder&#45;&gt;CUBO -->
<g id="edge7" class="edge">
<title>Mob_Grinder-&gt;CUBO</title>
<path fill="none" stroke="#4285f4" stroke-width="2" d="M247.48,-528.05C265.1,-501.44 298.17,-451.51 315.6,-425.2"/>
</g>
<!-- Guardian_Farm -->
<g id="node6" class="node">
<title>Guardian_Farm</title>
<ellipse fill="#a5d6a7" stroke="#2e7d32" stroke-width="2" cx="70.84" cy="-752.39" rx="70.69" ry="18"/>
<text text-anchor="middle" x="70.84" y="-748.69" font-family="Helvetica,Arial,sans-serif" font-size="14.00">Guardian Farm</text>
</g>
<!-- Russells_Tower -->
<g id="node7" class="node">
<title>Russells_Tower</title>
<ellipse fill="#a5d6a7" stroke="#2e7d32" stroke-width="2" cx="866.14" cy="-749.15" rx="72.29" ry="18"/>
<text text-anchor="middle" x="866.14" y="-745.45" font-family="Helvetica,Arial,sans-serif" font-size="14.00">Russell's Tower</text>
</g>
<!-- Cliffertown -->
<g id="node8" class="node">
<title>Cliffertown</title>
<ellipse fill="#a5d6a7" stroke="#2e7d32" stroke-width="2" cx="811.87" cy="-804.71" rx="52.79" ry="18"/>
<text text-anchor="middle" x="811.87" y="-801.01" font-family="Helvetica,Arial,sans-serif" font-size="14.00">Cliffertown</text>
</g>
<!-- Slacktown -->
<g id="node11" class="node">
<title>Slacktown</title>
<ellipse fill="#a5d6a7" stroke="#2e7d32" stroke-width="2" cx="739.67" cy="-960.78" rx="51.19" ry="18"/>
<text text-anchor="middle" x="739.67" y="-957.08" font-family="Helvetica,Arial,sans-serif" font-size="14.00">Slacktown</text>
</g>
<!-- Cliffertown&#45;&gt;Slacktown -->
<g id="edge11" class="edge">
<title>Cliffertown-&gt;Slacktown</title>
<path fill="none" stroke="black" d="M803.59,-822.61C789.74,-852.56 762.01,-912.48 748.07,-942.6"/>
</g>
<!-- Mahjong_Parlour -->
<g id="node9" class="node">
<title>Mahjong_Parlour</title>
<ellipse fill="#a5d6a7" stroke="#2e7d32" stroke-width="2" cx="874.02" cy="-522.93" rx="75.29" ry="18"/>
<text text-anchor="middle" x="874.02" y="-519.23" font-family="Helvetica,Arial,sans-serif" font-size="14.00">Mahjong Parlour</text>
</g>
<!-- Desert_Village -->
<g id="node10" class="node">
<title>Desert_Village</title>
<ellipse fill="#a5d6a7" stroke="#2e7d32" stroke-width="2" cx="413" cy="-65.6" rx="65.79" ry="18"/>
<text text-anchor="middle" x="413" y="-61.9" font-family="Helvetica,Arial,sans-serif" font-size="14.00">Desert Village</text>
</g>
<!-- Sim_Tower -->
<g id="node12" class="node">
<title>Sim_Tower</title>
<ellipse fill="#a5d6a7" stroke="#2e7d32" stroke-width="2" cx="1014.39" cy="-692.56" rx="52.79" ry="18"/>
<text text-anchor="middle" x="1014.39" y="-688.86" font-family="Helvetica,Arial,sans-serif" font-size="14.00">Sim Tower</text>
</g>
<!-- Squid_Farm -->
<g id="node13" class="node">
<title>Squid_Farm</title>
<ellipse fill="#a5d6a7" stroke="#2e7d32" stroke-width="2" cx="185.33" cy="-420.31" rx="57.39" ry="18"/>
<text text-anchor="middle" x="185.33" y="-416.61" font-family="Helvetica,Arial,sans-serif" font-size="14.00">Squid Farm</text>
</g>
<!-- Worrton -->
<g id="node14" class="node">
<title>Worrton</title>
<ellipse fill="#a5d6a7" stroke="#2e7d32" stroke-width="2" cx="199.57" cy="-329.45" rx="42.49" ry="18"/>
<text text-anchor="middle" x="199.57" y="-325.75" font-family="Helvetica,Arial,sans-serif" font-size="14.00">Worrton</text>
</g>
<!-- Gold_Farm -->
<g id="node15" class="node">
<title>Gold_Farm</title>
<ellipse fill="#ffcdd2" stroke="#c62828" stroke-width="2" cx="1052.68" cy="-634.23" rx="53.09" ry="18"/>
<text text-anchor="middle" x="1052.68" y="-630.53" font-family="Helvetica,Arial,sans-serif" font-size="14.00">Gold Farm</text>
</g>
<!-- Bartering_Farm -->
<g id="node16" class="node">
<title>Bartering_Farm</title>
<ellipse fill="#ffcdd2" stroke="#c62828" stroke-width="2" cx="777.26" cy="-605.26" rx="70.39" ry="18"/>
<text text-anchor="middle" x="777.26" y="-601.56" font-family="Helvetica,Arial,sans-serif" font-size="14.00">Bartering Farm</text>
</g>
<!-- Wither_Skeleton_Farm -->
<g id="node17" class="node">
<title>Wither_Skeleton_Farm</title>
<ellipse fill="#ffcdd2" stroke="#c62828" stroke-width="2" cx="952.34" cy="-566.93" rx="96.68" ry="18"/>
<text text-anchor="middle" x="952.34" y="-563.23" font-family="Helvetica,Arial,sans-serif" font-size="14.00">Wither Skeleton Farm</text>
</g>
<!-- Hog_Farm -->
<g id="node18" class="node">
<title>Hog_Farm</title>
<ellipse fill="#ffcdd2" stroke="#c62828" stroke-width="2" cx="608.12" cy="-598.52" rx="50.09" ry="18"/>
<text text-anchor="middle" x="608.12" y="-594.82" font-family="Helvetica,Arial,sans-serif" font-size="14.00">Hog Farm</text>
</g>
<!-- CML_Memorial -->
<g id="node19" class="node">
<title>CML_Memorial</title>
<ellipse fill="#ffcdd2" stroke="#c62828" stroke-width="2" cx="1289.92" cy="-963.11" rx="69.59" ry="18"/>
<text text-anchor="middle" x="1289.92" y="-959.41" font-family="Helvetica,Arial,sans-serif" font-size="14.00">CML Memorial</text>
</g>
<!-- Frog -->
<g id="node20" class="node">
<title>Frog</title>
<ellipse fill="#ffcdd2" stroke="#c62828" stroke-width="2" cx="1510.75" cy="-823.1" rx="60.39" ry="18"/>
<text text-anchor="middle" x="1510.75" y="-819.4" font-family="Helvetica,Arial,sans-serif" font-size="14.00">Frog Bastion</text>
</g>
<!-- WTO_Memorial -->
<g id="node21" class="node">
<title>WTO_Memorial</title>
<ellipse fill="#ffcdd2" stroke="#c62828" stroke-width="2" cx="1377.17" cy="-249.43" rx="71.49" ry="18"/>
<text text-anchor="middle" x="1377.17" y="-245.73" font-family="Helvetica,Arial,sans-serif" font-size="14.00">WTO Memorial</text>
</g>
<!-- Enderman_Farm -->
<g id="node22" class="node">
<title>Enderman_Farm</title>
<ellipse fill="#e1bee7" stroke="#4a148c" stroke-width="2" cx="1011.33" cy="-992.52" rx="75.29" ry="18"/>
<text text-anchor="middle" x="1011.33" y="-988.82" font-family="Helvetica,Arial,sans-serif" font-size="14.00">Enderman Farm</text>
</g>
<!-- Home -->
<g id="node23" class="node">
<title>Home</title>
<path fill="#a5d6a7" stroke="#2e7d32" stroke-width="0.5" d="M905.52,-668.61C905.52,-668.61 939.92,-668.61 939.92,-668.61 939.92,-669.2 939.86,-669.79 939.75,-670.38 939.64,-670.97 939.47,-671.55 939.26,-672.13 939.04,-672.7 938.76,-673.28 938.44,-673.84 938.11,-674.4 937.73,-674.96 937.3,-675.5 936.87,-676.05 936.39,-676.58 935.85,-677.1 935.32,-677.62 934.75,-678.13 934.12,-678.62 933.49,-679.11 932.82,-679.58 932.11,-680.03 931.39,-680.49 930.64,-680.93 929.84,-681.34 929.05,-681.76 928.21,-682.16 927.34,-682.53 926.47,-682.9 925.57,-683.25 924.63,-683.58 923.69,-683.91 922.73,-684.21 921.74,-684.49 920.74,-684.77 919.72,-685.02 918.68,-685.24 917.64,-685.47 916.58,-685.67 915.51,-685.84 914.43,-686.01 913.34,-686.15 912.23,-686.27 911.13,-686.38 910.01,-686.47 908.89,-686.53 907.77,-686.59 906.65,-686.61 905.52,-686.61 904.4,-686.61 903.27,-686.59 902.15,-686.53 901.03,-686.47 899.92,-686.38 898.81,-686.27 897.71,-686.15 896.62,-686.01 895.54,-685.84 894.46,-685.67 893.4,-685.47 892.36,-685.24 891.32,-685.02 890.3,-684.77 889.31,-684.49 888.32,-684.21 887.35,-683.91 886.41,-683.58 885.48,-683.25 884.57,-682.9 883.7,-682.53 882.83,-682.16 882,-681.76 881.2,-681.34 880.41,-680.93 879.65,-680.49 878.94,-680.03 878.22,-679.58 877.55,-679.11 876.92,-678.62 876.3,-678.13 875.72,-677.62 875.19,-677.1 874.66,-676.58 874.18,-676.05 873.75,-675.5 873.32,-674.96 872.94,-674.4 872.61,-673.84 872.28,-673.28 872.01,-672.7 871.79,-672.13 871.57,-671.55 871.4,-670.97 871.29,-670.38 871.18,-669.79 871.13,-669.2 871.13,-668.61 871.13,-668.61 905.52,-668.61 905.52,-668.61"/>
<path fill="#ffcdd2" stroke="#2e7d32" stroke-width="0.5" d="M905.52,-668.61C905.52,-668.61 871.13,-668.61 871.13,-668.61 871.13,-668.03 871.18,-667.44 871.29,-666.85 871.4,-666.26 871.57,-665.68 871.79,-665.1 872.01,-664.53 872.28,-663.95 872.61,-663.39 872.94,-662.83 873.32,-662.27 873.75,-661.73 874.18,-661.18 874.66,-660.65 875.19,-660.13 875.72,-659.61 876.3,-659.1 876.92,-658.61 877.55,-658.12 878.22,-657.65 878.94,-657.2 879.65,-656.74 880.41,-656.3 881.2,-655.89 882,-655.47 882.83,-655.07 883.7,-654.7 884.57,-654.33 885.48,-653.98 886.41,-653.65 887.35,-653.32 888.32,-653.02 889.31,-652.74 890.3,-652.46 891.32,-652.21 892.36,-651.99 893.4,-651.76 894.46,-651.56 895.54,-651.39 896.62,-651.22 897.71,-651.08 898.81,-650.96 899.92,-650.85 901.03,-650.76 902.15,-650.7 903.27,-650.64 904.4,-650.61 905.52,-650.61 906.65,-650.61 907.77,-650.64 908.89,-650.7 910.01,-650.76 911.13,-650.85 912.23,-650.96 913.34,-651.08 914.43,-651.22 915.51,-651.39 916.58,-651.56 917.64,-651.76 918.68,-651.99 919.72,-652.21 920.74,-652.46 921.74,-652.74 922.73,-653.02 923.69,-653.32 924.63,-653.65 925.57,-653.98 926.47,-654.33 927.34,-654.7 928.21,-655.07 929.05,-655.47 929.84,-655.89 930.64,-656.3 931.39,-656.74 932.11,-657.2 932.82,-657.65 933.49,-658.12 934.12,-658.61 934.75,-659.1 935.32,-659.61 935.85,-660.13 936.39,-660.65 936.87,-661.18 937.3,-661.73 937.73,-662.27 938.11,-662.83 938.44,-663.39 938.76,-663.95 939.04,-664.53 939.26,-665.1 939.47,-665.68 939.64,-666.26 939.75,-666.85 939.86,-667.44 939.92,-668.03 939.92,-668.61 939.92,-668.61 905.52,-668.61 905.52,-668.61"/>
<ellipse fill="none" stroke="#2e7d32" stroke-width="2" cx="905.52" cy="-668.61" rx="34.39" ry="18"/>
<text text-anchor="middle" x="905.52" y="-664.91" font-family="Helvetica,Arial,sans-serif" font-size="14.00">Home</text>
</g>
<!-- Home&#45;&gt;Sheep_Farm -->
<g id="edge1" class="edge">
<title>Home-&gt;Sheep_Farm</title>
<path fill="none" stroke="#4285f4" stroke-width="2" d="M878.24,-680.01C846.26,-693.37 793.2,-715.53 758.23,-730.13"/>
</g>
<!-- Home&#45;&gt;Russells_Tower -->
<g id="edge9" class="edge">
<title>Home-&gt;Russells_Tower</title>
<path fill="none" stroke="black" d="M896.98,-686.09C890.46,-699.41 881.52,-717.7 874.94,-731.15"/>
</g>
<!-- Home&#45;&gt;Cliffertown -->
<g id="edge10" class="edge">
<title>Home-&gt;Cliffertown</title>
<path fill="none" stroke="black" d="M893.85,-685.58C876,-711.51 842.1,-760.78 823.99,-787.1"/>
</g>
<!-- Home&#45;&gt;Mahjong_Parlour -->
<g id="edge12" class="edge">
<title>Home-&gt;Mahjong_Parlour</title>
<path fill="none" stroke="black" d="M901.6,-650.46C895.56,-622.54 884.06,-569.37 878,-541.31"/>
</g>
<!-- Home&#45;&gt;Sim_Tower -->
<g id="edge13" class="edge">
<title>Home-&gt;Sim_Tower</title>
<path fill="none" stroke="black" d="M937.3,-675.61C947.47,-677.84 958.92,-680.36 969.83,-682.76"/>
</g>
<!-- Home&#45;&gt;Gold_Farm -->
<g id="edge47" class="edge">
<title>Home-&gt;Gold_Farm</title>
<path fill="none" stroke="#795548" stroke-dasharray="5,2" d="M937.09,-661.24C957.95,-656.36 985.59,-649.9 1008.6,-644.53"/>
</g>
<!-- Home&#45;&gt;Bartering_Farm -->
<g id="edge48" class="edge">
<title>Home-&gt;Bartering_Farm</title>
<path fill="none" stroke="#795548" stroke-dasharray="5,2" d="M880.49,-656.25C860.37,-646.31 831.94,-632.27 810.01,-621.44"/>
</g>
<!-- Home&#45;&gt;Wither_Skeleton_Farm -->
<g id="edge49" class="edge">
<title>Home-&gt;Wither_Skeleton_Farm</title>
<path fill="none" stroke="#795548" stroke-dasharray="5,2" d="M913.68,-650.9C922.17,-632.47 935.39,-603.74 943.96,-585.12"/>
</g>
<!-- Pale_Oak_Forest -->
<g id="node27" class="node">
<title>Pale_Oak_Forest</title>
<path fill="#a5d6a7" stroke="#2e7d32" stroke-width="0.5" d="M772.71,-677.25C772.71,-677.25 856.39,-677.25 856.39,-677.25 856.39,-677.84 856.26,-678.43 855.99,-679.01 855.72,-679.6 855.32,-680.18 854.79,-680.76 854.25,-681.34 853.59,-681.91 852.79,-682.47 852,-683.04 851.07,-683.59 850.02,-684.14 848.98,-684.68 847.8,-685.21 846.51,-685.73 845.22,-686.25 843.81,-686.76 842.29,-687.25 840.77,-687.74 839.14,-688.21 837.4,-688.67 835.66,-689.12 833.82,-689.56 831.88,-689.98 829.95,-690.39 827.92,-690.79 825.8,-691.16 823.68,-691.54 821.48,-691.89 819.2,-692.21 816.92,-692.54 814.57,-692.85 812.16,-693.12 809.74,-693.4 807.26,-693.65 804.73,-693.88 802.2,-694.1 799.62,-694.3 797,-694.47 794.38,-694.64 791.72,-694.79 789.03,-694.9 786.35,-695.02 783.64,-695.1 780.91,-695.16 778.19,-695.22 775.45,-695.25 772.71,-695.25 769.97,-695.25 767.23,-695.22 764.51,-695.16 761.78,-695.1 759.07,-695.02 756.38,-694.9 753.7,-694.79 751.04,-694.64 748.42,-694.47 745.79,-694.3 743.21,-694.1 740.68,-693.88 738.15,-693.65 735.68,-693.4 733.26,-693.12 730.84,-692.85 728.49,-692.54 726.22,-692.21 723.94,-691.89 721.74,-691.54 719.62,-691.16 717.5,-690.79 715.47,-690.39 713.53,-689.98 711.6,-689.56 709.76,-689.12 708.02,-688.67 706.28,-688.21 704.65,-687.74 703.13,-687.25 701.6,-686.76 700.2,-686.25 698.9,-685.73 697.61,-685.21 696.44,-684.68 695.39,-684.14 694.35,-683.59 693.42,-683.04 692.63,-682.47 691.83,-681.91 691.17,-681.34 690.63,-680.76 690.1,-680.18 689.69,-679.6 689.43,-679.01 689.16,-678.43 689.02,-677.84 689.02,-677.25 689.02,-677.25 772.71,-677.25 772.71,-677.25"/>
<path fill="#ffcdd2" stroke="#2e7d32" stroke-width="0.5" d="M772.71,-677.25C772.71,-677.25 689.02,-677.25 689.02,-677.25 689.02,-676.66 689.16,-676.07 689.43,-675.48 689.69,-674.9 690.1,-674.31 690.63,-673.74 691.17,-673.16 691.83,-672.59 692.63,-672.02 693.42,-671.46 694.35,-670.9 695.39,-670.36 696.44,-669.82 697.61,-669.28 698.9,-668.76 700.2,-668.24 701.6,-667.74 703.13,-667.25 704.65,-666.76 706.28,-666.28 708.02,-665.83 709.76,-665.37 711.6,-664.94 713.53,-664.52 715.47,-664.1 717.5,-663.71 719.62,-663.33 721.74,-662.96 723.94,-662.61 726.22,-662.28 728.49,-661.95 730.84,-661.65 733.26,-661.37 735.68,-661.1 738.15,-660.84 740.68,-660.62 743.21,-660.39 745.79,-660.19 748.42,-660.02 751.04,-659.85 753.7,-659.71 756.38,-659.59 759.07,-659.48 761.78,-659.39 764.51,-659.33 767.23,-659.28 769.97,-659.25 772.71,-659.25 775.45,-659.25 778.19,-659.28 780.91,-659.33 783.64,-659.39 786.35,-659.48 789.03,-659.59 791.72,-659.71 794.38,-659.85 797,-660.02 799.62,-660.19 802.2,-660.39 804.73,-660.62 807.26,-660.84 809.74,-661.1 812.16,-661.37 814.57,-661.65 816.92,-661.95 819.2,-662.28 821.48,-662.61 823.68,-662.96 825.8,-663.33 827.92,-663.71 829.95,-664.1 831.88,-664.52 833.82,-664.94 835.66,-665.37 837.4,-665.83 839.14,-666.28 840.77,-666.76 842.29,-667.25 843.81,-667.74 845.22,-668.24 846.51,-668.76 847.8,-669.28 848.98,-669.82 850.02,-670.36 851.07,-670.9 852,-671.46 852.79,-672.02 853.59,-672.59 854.25,-673.16 854.79,-673.74 855.32,-674.31 855.72,-674.9 855.99,-675.48 856.26,-676.07 856.39,-676.66 856.39,-677.25 856.39,-677.25 772.71,-677.25 772.71,-677.25"/>
<ellipse fill="none" stroke="#2e7d32" stroke-width="2" cx="772.71" cy="-677.25" rx="83.69" ry="18"/>
<text text-anchor="middle" x="772.71" y="-673.55" font-family="Helvetica,Arial,sans-serif" font-size="14.00">Click Clock Woods</text>
</g>
<!-- Home&#45;&gt;Pale_Oak_Forest -->
<g id="edge26" class="edge">
<title>Home-&gt;Pale_Oak_Forest</title>
<path fill="none" stroke="#c62828" d="M871.32,-670.84C865.55,-671.21 859.36,-671.62 852.99,-672.03"/>
</g>
<!-- Atlantis -->
<g id="node28" class="node">
<title>Atlantis</title>
<path fill="#a5d6a7" stroke="#2e7d32" stroke-width="0.5" d="M988.52,-782.53C988.52,-782.53 1028.32,-782.53 1028.32,-782.53 1028.32,-783.12 1028.25,-783.71 1028.13,-784.29 1028,-784.88 1027.81,-785.46 1027.55,-786.04 1027.3,-786.62 1026.98,-787.19 1026.6,-787.76 1026.23,-788.32 1025.79,-788.87 1025.29,-789.42 1024.79,-789.96 1024.23,-790.5 1023.62,-791.02 1023,-791.53 1022.33,-792.04 1021.61,-792.53 1020.89,-793.02 1020.11,-793.49 1019.28,-793.95 1018.46,-794.4 1017.58,-794.84 1016.66,-795.26 1015.74,-795.67 1014.78,-796.07 1013.77,-796.44 1012.76,-796.82 1011.72,-797.17 1010.63,-797.5 1009.55,-797.82 1008.43,-798.13 1007.28,-798.4 1006.13,-798.68 1004.96,-798.93 1003.75,-799.16 1002.55,-799.39 1001.32,-799.58 1000.08,-799.75 998.83,-799.93 997.56,-800.07 996.29,-800.18 995.01,-800.3 993.72,-800.39 992.42,-800.44 991.13,-800.5 989.83,-800.53 988.52,-800.53 987.22,-800.53 985.92,-800.5 984.62,-800.44 983.33,-800.39 982.04,-800.3 980.76,-800.18 979.48,-800.07 978.22,-799.93 976.97,-799.75 975.73,-799.58 974.5,-799.39 973.3,-799.16 972.09,-798.93 970.91,-798.68 969.77,-798.4 968.62,-798.13 967.5,-797.82 966.42,-797.5 965.33,-797.17 964.29,-796.82 963.28,-796.44 962.27,-796.07 961.31,-795.67 960.39,-795.26 959.46,-794.84 958.59,-794.4 957.76,-793.95 956.94,-793.49 956.16,-793.02 955.44,-792.53 954.71,-792.04 954.04,-791.53 953.43,-791.02 952.82,-790.5 952.26,-789.96 951.76,-789.42 951.26,-788.87 950.82,-788.32 950.44,-787.76 950.07,-787.19 949.75,-786.62 949.5,-786.04 949.24,-785.46 949.05,-784.88 948.92,-784.29 948.79,-783.71 948.73,-783.12 948.73,-782.53 948.73,-782.53 988.52,-782.53 988.52,-782.53"/>
<path fill="#ffcdd2" stroke="#2e7d32" stroke-width="0.5" d="M988.52,-782.53C988.52,-782.53 948.73,-782.53 948.73,-782.53 948.73,-781.94 948.79,-781.35 948.92,-780.77 949.05,-780.18 949.24,-779.6 949.5,-779.02 949.75,-778.44 950.07,-777.87 950.44,-777.3 950.82,-776.74 951.26,-776.19 951.76,-775.64 952.26,-775.1 952.82,-774.56 953.43,-774.04 954.04,-773.53 954.71,-773.02 955.44,-772.53 956.16,-772.04 956.94,-771.57 957.76,-771.11 958.59,-770.66 959.46,-770.22 960.39,-769.8 961.31,-769.39 962.27,-768.99 963.28,-768.62 964.29,-768.24 965.33,-767.89 966.42,-767.56 967.5,-767.24 968.62,-766.93 969.77,-766.66 970.91,-766.38 972.09,-766.13 973.3,-765.9 974.5,-765.67 975.73,-765.48 976.97,-765.3 978.22,-765.13 979.48,-764.99 980.76,-764.88 982.04,-764.76 983.33,-764.67 984.62,-764.62 985.92,-764.56 987.22,-764.53 988.52,-764.53 989.83,-764.53 991.13,-764.56 992.42,-764.62 993.72,-764.67 995.01,-764.76 996.29,-764.88 997.56,-764.99 998.83,-765.13 1000.08,-765.3 1001.32,-765.48 1002.55,-765.67 1003.75,-765.9 1004.96,-766.13 1006.13,-766.38 1007.28,-766.66 1008.43,-766.93 1009.55,-767.24 1010.63,-767.56 1011.72,-767.89 1012.76,-768.24 1013.77,-768.62 1014.78,-768.99 1015.74,-769.39 1016.66,-769.8 1017.58,-770.22 1018.46,-770.66 1019.28,-771.11 1020.11,-771.57 1020.89,-772.04 1021.61,-772.53 1022.33,-773.02 1023,-773.53 1023.62,-774.04 1024.23,-774.56 1024.79,-775.1 1025.29,-775.64 1025.79,-776.19 1026.23,-776.74 1026.6,-777.3 1026.98,-777.87 1027.3,-778.44 1027.55,-779.02 1027.81,-779.6 1028,-780.18 1028.13,-780.77 1028.25,-781.35 1028.32,-781.94 1028.32,-782.53 1028.32,-782.53 988.52,-782.53 988.52,-782.53"/>
<ellipse fill="none" stroke="#2e7d32" stroke-width="2" cx="988.52" cy="-782.53" rx="39.79" ry="18"/>
<text text-anchor="middle" x="988.52" y="-778.83" font-family="Helvetica,Arial,sans-serif" font-size="14.00">Atlantis</text>
</g>
<!-- Home&#45;&gt;Atlantis -->
<g id="edge15" class="edge">
<title>Home-&gt;Atlantis</title>
<path fill="none" stroke="black" d="M918.13,-685.92C933.82,-707.45 960.45,-744 976.07,-765.44"/>
</g>
<!-- vvitch -->
<g id="node36" class="node">
<title>vvitch</title>
<path fill="#a5d6a7" stroke="#2e7d32" stroke-width="0.5" d="M1090.42,-548.23C1090.42,-548.23 1123.72,-548.23 1123.72,-548.23 1123.72,-548.82 1123.66,-549.41 1123.56,-549.99 1123.45,-550.58 1123.29,-551.16 1123.08,-551.74 1122.87,-552.32 1122.6,-552.89 1122.28,-553.45 1121.97,-554.02 1121.6,-554.57 1121.18,-555.12 1120.77,-555.66 1120.3,-556.19 1119.79,-556.71 1119.27,-557.23 1118.71,-557.74 1118.11,-558.23 1117.5,-558.72 1116.85,-559.19 1116.16,-559.65 1115.47,-560.1 1114.74,-560.54 1113.97,-560.96 1113.2,-561.37 1112.39,-561.77 1111.54,-562.14 1110.7,-562.52 1109.83,-562.87 1108.92,-563.19 1108.01,-563.52 1107.08,-563.82 1106.12,-564.1 1105.16,-564.38 1104.17,-564.63 1103.16,-564.86 1102.16,-565.08 1101.13,-565.28 1100.09,-565.45 1099.04,-565.62 1097.99,-565.77 1096.92,-565.88 1095.85,-566 1094.77,-566.08 1093.69,-566.14 1092.6,-566.2 1091.51,-566.23 1090.42,-566.23 1089.33,-566.23 1088.24,-566.2 1087.16,-566.14 1086.07,-566.08 1085,-566 1083.93,-565.88 1082.86,-565.77 1081.8,-565.62 1080.76,-565.45 1079.71,-565.28 1078.69,-565.08 1077.68,-564.86 1076.67,-564.63 1075.69,-564.38 1074.73,-564.1 1073.77,-563.82 1072.83,-563.52 1071.93,-563.19 1071.02,-562.87 1070.14,-562.52 1069.3,-562.14 1068.46,-561.77 1067.65,-561.37 1066.88,-560.96 1066.11,-560.54 1065.38,-560.1 1064.69,-559.65 1063.99,-559.19 1063.34,-558.72 1062.74,-558.23 1062.13,-557.74 1061.57,-557.23 1061.06,-556.71 1060.55,-556.19 1060.08,-555.66 1059.66,-555.12 1059.25,-554.57 1058.88,-554.02 1058.56,-553.45 1058.25,-552.89 1057.98,-552.32 1057.77,-551.74 1057.56,-551.16 1057.4,-550.58 1057.29,-549.99 1057.18,-549.41 1057.13,-548.82 1057.13,-548.23 1057.13,-548.23 1090.42,-548.23 1090.42,-548.23"/>
<path fill="#ffcdd2" stroke="#2e7d32" stroke-width="0.5" d="M1090.42,-548.23C1090.42,-548.23 1057.13,-548.23 1057.13,-548.23 1057.13,-547.64 1057.18,-547.05 1057.29,-546.46 1057.4,-545.88 1057.56,-545.29 1057.77,-544.72 1057.98,-544.14 1058.25,-543.57 1058.56,-543 1058.88,-542.44 1059.25,-541.88 1059.66,-541.34 1060.08,-540.8 1060.55,-540.26 1061.06,-539.74 1061.57,-539.22 1062.13,-538.72 1062.74,-538.23 1063.34,-537.74 1063.99,-537.26 1064.69,-536.81 1065.38,-536.35 1066.11,-535.92 1066.88,-535.5 1067.65,-535.08 1068.46,-534.69 1069.3,-534.31 1070.14,-533.94 1071.02,-533.59 1071.93,-533.26 1072.83,-532.93 1073.77,-532.63 1074.73,-532.35 1075.69,-532.08 1076.67,-531.82 1077.68,-531.6 1078.69,-531.37 1079.71,-531.17 1080.76,-531 1081.8,-530.83 1082.86,-530.69 1083.93,-530.57 1085,-530.46 1086.07,-530.37 1087.16,-530.31 1088.24,-530.26 1089.33,-530.23 1090.42,-530.23 1091.51,-530.23 1092.6,-530.26 1093.69,-530.31 1094.77,-530.37 1095.85,-530.46 1096.92,-530.57 1097.99,-530.69 1099.04,-530.83 1100.09,-531 1101.13,-531.17 1102.16,-531.37 1103.16,-531.6 1104.17,-531.82 1105.16,-532.08 1106.12,-532.35 1107.08,-532.63 1108.01,-532.93 1108.92,-533.26 1109.83,-533.59 1110.7,-533.94 1111.54,-534.31 1112.39,-534.69 1113.2,-535.08 1113.97,-535.5 1114.74,-535.92 1115.47,-536.35 1116.16,-536.81 1116.85,-537.26 1117.5,-537.74 1118.11,-538.23 1118.71,-538.72 1119.27,-539.22 1119.79,-539.74 1120.3,-540.26 1120.77,-540.8 1121.18,-541.34 1121.6,-541.88 1121.97,-542.44 1122.28,-543 1122.6,-543.57 1122.87,-544.14 1123.08,-544.72 1123.29,-545.29 1123.45,-545.88 1123.56,-546.46 1123.66,-547.05 1123.72,-547.64 1123.72,-548.23 1123.72,-548.23 1090.42,-548.23 1090.42,-548.23"/>
<ellipse fill="none" stroke="#2e7d32" stroke-width="2" cx="1090.42" cy="-548.23" rx="33.29" ry="18"/>
<text text-anchor="middle" x="1090.42" y="-544.53" font-family="Helvetica,Arial,sans-serif" font-size="14.00">vvitch</text>
</g>
<!-- Home&#45;&gt;vvitch -->
<g id="edge45" class="edge">
<title>Home-&gt;vvitch</title>
<path fill="none" stroke="#e53935" stroke-width="2" d="M927.09,-654.57C962.72,-631.37 1033.45,-585.32 1068.99,-562.18"/>
</g>
<!-- End_Village -->
<g id="node38" class="node">
<title>End_Village</title>
<path fill="#a5d6a7" stroke="#2e7d32" stroke-width="0.5" d="M921.43,-848.74C921.43,-848.74 976.92,-848.74 976.92,-848.74 976.92,-849.4 976.81,-850.05 976.59,-850.71 976.37,-851.36 976.03,-852.01 975.59,-852.66 975.15,-853.3 974.6,-853.93 973.94,-854.56 973.29,-855.18 972.52,-855.79 971.66,-856.39 970.8,-856.98 969.84,-857.56 968.78,-858.13 967.72,-858.69 966.56,-859.23 965.32,-859.75 964.08,-860.27 962.75,-860.77 961.34,-861.24 959.93,-861.72 958.44,-862.17 956.88,-862.59 955.31,-863.01 953.68,-863.4 951.99,-863.76 950.29,-864.12 948.54,-864.46 946.73,-864.76 944.92,-865.06 943.06,-865.33 941.17,-865.56 939.27,-865.79 937.33,-865.99 935.37,-866.16 933.4,-866.33 931.41,-866.46 929.4,-866.55 927.39,-866.64 925.37,-866.7 923.34,-866.73 921.31,-866.75 919.28,-866.73 917.25,-866.69 915.23,-866.64 913.21,-866.55 911.22,-866.43 911.22,-866.43 921.43,-848.74 921.43,-848.74"/>
<path fill="#ffcdd2" stroke="#2e7d32" stroke-width="0.5" d="M921.43,-848.74C921.43,-848.74 911.22,-866.43 911.22,-866.43 909.64,-866.33 908.08,-866.22 906.54,-866.08 904.99,-865.94 903.47,-865.78 901.97,-865.59 900.47,-865.41 898.99,-865.21 897.55,-864.98 896.1,-864.76 894.69,-864.52 893.3,-864.25 891.92,-863.99 890.58,-863.71 889.27,-863.41 887.97,-863.1 886.7,-862.78 885.48,-862.45 884.26,-862.11 883.09,-861.76 881.96,-861.39 880.83,-861.02 879.76,-860.63 878.73,-860.23 877.71,-859.83 876.74,-859.42 875.83,-858.99 874.92,-858.57 874.06,-858.13 873.26,-857.67 872.47,-857.22 871.73,-856.76 871.06,-856.29 870.39,-855.82 869.78,-855.34 869.24,-854.85 868.69,-854.36 868.21,-853.86 867.8,-853.36 867.39,-852.86 867.05,-852.35 866.77,-851.84 866.49,-851.33 866.29,-850.81 866.15,-850.29 866.01,-849.78 865.94,-849.26 865.94,-848.74 865.94,-848.22 866.01,-847.7 866.15,-847.18 866.29,-846.66 866.49,-846.15 866.77,-845.63 867.05,-845.12 867.39,-844.61 867.8,-844.11 868.21,-843.61 868.69,-843.11 869.24,-842.62 869.78,-842.14 870.39,-841.66 871.06,-841.18 871.73,-840.71 872.47,-840.25 873.26,-839.8 874.06,-839.35 874.92,-838.91 875.83,-838.48 876.74,-838.05 877.71,-837.64 878.73,-837.24 879.76,-836.84 880.83,-836.45 881.96,-836.08 883.09,-835.71 884.26,-835.36 885.48,-835.02 886.7,-834.69 887.97,-834.37 889.27,-834.07 890.58,-833.77 891.92,-833.48 893.3,-833.22 894.69,-832.96 896.1,-832.71 897.55,-832.49 898.99,-832.27 900.47,-832.06 901.97,-831.88 903.47,-831.7 904.99,-831.54 906.54,-831.4 908.08,-831.26 909.64,-831.14 911.22,-831.04 911.22,-831.04 921.43,-848.74 921.43,-848.74"/>
<path fill="#e1bee7" stroke="#2e7d32" stroke-width="0.5" d="M921.43,-848.74C921.43,-848.74 911.22,-831.04 911.22,-831.04 913.21,-830.92 915.23,-830.84 917.25,-830.79 919.28,-830.74 921.31,-830.72 923.34,-830.75 925.37,-830.77 927.39,-830.83 929.4,-830.92 931.41,-831.02 933.4,-831.15 935.37,-831.31 937.33,-831.48 939.27,-831.68 941.17,-831.91 943.06,-832.15 944.92,-832.42 946.73,-832.72 948.54,-833.02 950.29,-833.35 951.99,-833.71 953.68,-834.07 955.31,-834.47 956.88,-834.89 958.44,-835.31 959.93,-835.76 961.34,-836.23 962.75,-836.7 964.08,-837.2 965.32,-837.72 966.56,-838.24 967.72,-838.79 968.78,-839.35 969.84,-839.91 970.8,-840.49 971.66,-841.09 972.52,-841.68 973.29,-842.29 973.94,-842.92 974.6,-843.54 975.15,-844.17 975.59,-844.82 976.03,-845.46 976.37,-846.11 976.59,-846.76 976.81,-847.42 976.92,-848.08 976.92,-848.74 976.92,-848.74 921.43,-848.74 921.43,-848.74"/>
<ellipse fill="none" stroke="#2e7d32" stroke-width="2" cx="921.43" cy="-848.74" rx="55.49" ry="18"/>
<text text-anchor="middle" x="921.43" y="-845.04" font-family="Helvetica,Arial,sans-serif" font-size="14.00">End Village</text>
</g>
<!-- Home&#45;&gt;End_Village -->
<g id="edge25" class="edge">
<title>Home-&gt;End_Village</title>
<path fill="none" stroke="#c62828" d="M907.14,-686.88C910.19,-721.49 916.8,-796.25 919.84,-830.69"/>
</g>
<!-- Junction2 -->
<!-- Home&#45;&gt;Junction2 -->
<g id="edge18" class="edge">
<title>Home-&gt;Junction2</title>
<path fill="none" stroke="#c62828" d="M882.86,-654.84C834.29,-625.31 724.24,-558.4 720.81,-556.31"/>
</g>
<!-- Junction3 -->
<!-- Home&#45;&gt;Junction3 -->
<g id="edge27" class="edge">
<title>Home-&gt;Junction3</title>
<path fill="none" stroke="#c62828" d="M931.87,-680.6C980.75,-702.84 1080.87,-748.38 1083.99,-749.8"/>
</g>
<!-- Junction7 -->
<!-- Home&#45;&gt;Junction7 -->
<g id="edge35" class="edge">
<title>Home-&gt;Junction7</title>
<path fill="none" stroke="#c62828" d="M916.76,-651.33C944.86,-608.08 1016.11,-498.44 1018.33,-495.02"/>
</g>
<!-- Baddylands -->
<g id="node24" class="node">
<title>Baddylands</title>
<path fill="#a5d6a7" stroke="#2e7d32" stroke-width="0.5" d="M572.22,-41C572.22,-41 628.81,-41 628.81,-41 628.81,-41.59 628.72,-42.18 628.54,-42.76 628.36,-43.35 628.09,-43.93 627.73,-44.51 627.36,-45.09 626.91,-45.66 626.38,-46.23 625.84,-46.79 625.21,-47.34 624.51,-47.89 623.8,-48.43 623,-48.97 622.13,-49.49 621.26,-50 620.3,-50.51 619.28,-51 618.25,-51.49 617.14,-51.96 615.97,-52.42 614.79,-52.87 613.55,-53.31 612.24,-53.73 610.93,-54.14 609.55,-54.54 608.12,-54.91 606.69,-55.29 605.2,-55.64 603.66,-55.97 602.12,-56.29 600.53,-56.6 598.9,-56.87 597.27,-57.15 595.59,-57.4 593.88,-57.63 592.17,-57.86 590.42,-58.05 588.65,-58.22 586.88,-58.4 585.08,-58.54 583.26,-58.65 581.45,-58.77 579.61,-58.86 577.77,-58.91 575.93,-58.97 574.07,-59 572.22,-59 570.37,-59 568.52,-58.97 566.68,-58.91 564.83,-58.86 563,-58.77 561.18,-58.65 559.37,-58.54 557.57,-58.4 555.8,-58.22 554.02,-58.05 552.28,-57.86 550.57,-57.63 548.86,-57.4 547.18,-57.15 545.55,-56.87 543.91,-56.6 542.32,-56.29 540.78,-55.97 539.24,-55.64 537.75,-55.29 536.32,-54.91 534.89,-54.54 533.52,-54.14 532.21,-53.73 530.9,-53.31 529.65,-52.87 528.48,-52.42 527.3,-51.96 526.2,-51.49 525.17,-51 524.14,-50.51 523.19,-50 522.31,-49.49 521.44,-48.97 520.65,-48.43 519.94,-47.89 519.23,-47.34 518.61,-46.79 518.07,-46.23 517.53,-45.66 517.08,-45.09 516.72,-44.51 516.36,-43.93 516.09,-43.35 515.91,-42.76 515.72,-42.18 515.63,-41.59 515.63,-41 515.63,-41 572.22,-41 572.22,-41"/>
<path fill="#ffcdd2" stroke="#2e7d32" stroke-width="0.5" d="M572.22,-41C572.22,-41 515.63,-41 515.63,-41 515.63,-40.41 515.72,-39.82 515.91,-39.24 516.09,-38.65 516.36,-38.07 516.72,-37.49 517.08,-36.91 517.53,-36.34 518.07,-35.77 518.61,-35.21 519.23,-34.66 519.94,-34.11 520.65,-33.57 521.44,-33.03 522.31,-32.51 523.19,-32 524.14,-31.49 525.17,-31 526.2,-30.51 527.3,-30.04 528.48,-29.58 529.65,-29.13 530.9,-28.69 532.21,-28.27 533.52,-27.86 534.89,-27.46 536.32,-27.09 537.75,-26.71 539.24,-26.36 540.78,-26.03 542.32,-25.71 543.91,-25.4 545.55,-25.13 547.18,-24.85 548.86,-24.6 550.57,-24.37 552.28,-24.14 554.02,-23.95 555.8,-23.78 557.57,-23.6 559.37,-23.46 561.18,-23.35 563,-23.23 564.83,-23.14 566.68,-23.09 568.52,-23.03 570.37,-23 572.22,-23 574.07,-23 575.93,-23.03 577.77,-23.09 579.61,-23.14 581.45,-23.23 583.26,-23.35 585.08,-23.46 586.88,-23.6 588.65,-23.78 590.42,-23.95 592.17,-24.14 593.88,-24.37 595.59,-24.6 597.27,-24.85 598.9,-25.13 600.53,-25.4 602.12,-25.71 603.66,-26.03 605.2,-26.36 606.69,-26.71 608.12,-27.09 609.55,-27.46 610.93,-27.86 612.24,-28.27 613.55,-28.69 614.79,-29.13 615.97,-29.58 617.14,-30.04 618.25,-30.51 619.28,-31 620.3,-31.49 621.26,-32 622.13,-32.51 623,-33.03 623.8,-33.57 624.51,-34.11 625.21,-34.66 625.84,-35.21 626.38,-35.77 626.91,-36.34 627.36,-36.91 627.73,-37.49 628.09,-38.07 628.36,-38.65 628.54,-39.24 628.72,-39.82 628.81,-40.41 628.81,-41 628.81,-41 572.22,-41 572.22,-41"/>
<ellipse fill="none" stroke="#2e7d32" stroke-width="2" cx="572.22" cy="-41" rx="56.59" ry="18"/>
<text text-anchor="middle" x="572.22" y="-37.3" font-family="Helvetica,Arial,sans-serif" font-size="14.00">Baddylands</text>
</g>
<!-- Portal_Island -->
<g id="node25" class="node">
<title>Portal_Island</title>
<path fill="#a5d6a7" stroke="#2e7d32" stroke-width="0.5" d="M454.82,-214.14C454.82,-214.14 514.41,-214.14 514.41,-214.14 514.41,-214.73 514.31,-215.31 514.12,-215.9 513.93,-216.49 513.64,-217.07 513.26,-217.65 512.88,-218.23 512.41,-218.8 511.84,-219.36 511.27,-219.93 510.62,-220.48 509.87,-221.03 509.12,-221.57 508.29,-222.1 507.37,-222.62 506.45,-223.14 505.45,-223.65 504.36,-224.14 503.28,-224.63 502.12,-225.1 500.88,-225.56 499.64,-226.01 498.33,-226.45 496.95,-226.86 495.57,-227.28 494.13,-227.68 492.62,-228.05 491.11,-228.42 489.54,-228.78 487.92,-229.1 486.3,-229.43 484.63,-229.73 482.91,-230.01 481.19,-230.29 479.42,-230.54 477.62,-230.77 475.82,-230.99 473.98,-231.19 472.11,-231.36 470.25,-231.53 468.35,-231.68 466.44,-231.79 464.53,-231.91 462.6,-231.99 460.66,-232.05 458.72,-232.11 456.77,-232.14 454.82,-232.14 452.86,-232.14 450.92,-232.11 448.97,-232.05 447.03,-231.99 445.1,-231.91 443.19,-231.79 441.28,-231.68 439.38,-231.53 437.52,-231.36 435.65,-231.19 433.81,-230.99 432.01,-230.77 430.21,-230.54 428.44,-230.29 426.72,-230.01 425,-229.73 423.33,-229.43 421.71,-229.1 420.09,-228.78 418.52,-228.42 417.01,-228.05 415.5,-227.68 414.06,-227.28 412.68,-226.86 411.3,-226.45 409.99,-226.01 408.75,-225.56 407.51,-225.1 406.35,-224.63 405.27,-224.14 404.18,-223.65 403.18,-223.14 402.26,-222.62 401.34,-222.1 400.51,-221.57 399.76,-221.03 399.01,-220.48 398.36,-219.93 397.79,-219.36 397.22,-218.8 396.75,-218.23 396.37,-217.65 395.99,-217.07 395.7,-216.49 395.51,-215.9 395.32,-215.31 395.23,-214.73 395.23,-214.14 395.23,-214.14 454.82,-214.14 454.82,-214.14"/>
<path fill="#ffcdd2" stroke="#2e7d32" stroke-width="0.5" d="M454.82,-214.14C454.82,-214.14 395.23,-214.14 395.23,-214.14 395.23,-213.55 395.32,-212.96 395.51,-212.37 395.7,-211.79 395.99,-211.2 396.37,-210.63 396.75,-210.05 397.22,-209.48 397.79,-208.91 398.36,-208.35 399.01,-207.79 399.76,-207.25 400.51,-206.7 401.34,-206.17 402.26,-205.65 403.18,-205.13 404.18,-204.63 405.27,-204.14 406.35,-203.65 407.51,-203.17 408.75,-202.72 409.99,-202.26 411.3,-201.83 412.68,-201.41 414.06,-200.99 415.5,-200.6 417.01,-200.22 418.52,-199.85 420.09,-199.5 421.71,-199.17 423.33,-198.84 425,-198.54 426.72,-198.26 428.44,-197.98 430.21,-197.73 432.01,-197.51 433.81,-197.28 435.65,-197.08 437.52,-196.91 439.38,-196.74 441.28,-196.6 443.19,-196.48 445.1,-196.37 447.03,-196.28 448.97,-196.22 450.92,-196.17 452.86,-196.14 454.82,-196.14 456.77,-196.14 458.72,-196.17 460.66,-196.22 462.6,-196.28 464.53,-196.37 466.44,-196.48 468.35,-196.6 470.25,-196.74 472.11,-196.91 473.98,-197.08 475.82,-197.28 477.62,-197.51 479.42,-197.73 481.19,-197.98 482.91,-198.26 484.63,-198.54 486.3,-198.84 487.92,-199.17 489.54,-199.5 491.11,-199.85 492.62,-200.22 494.13,-200.6 495.57,-200.99 496.95,-201.41 498.33,-201.83 499.64,-202.26 500.88,-202.72 502.12,-203.17 503.28,-203.65 504.36,-204.14 505.45,-204.63 506.45,-205.13 507.37,-205.65 508.29,-206.17 509.12,-206.7 509.87,-207.25 510.62,-207.79 511.27,-208.35 511.84,-208.91 512.41,-209.48 512.88,-210.05 513.26,-210.63 513.64,-211.2 513.93,-211.79 514.12,-212.37 514.31,-212.96 514.41,-213.55 514.41,-214.14 514.41,-214.14 454.82,-214.14 454.82,-214.14"/>
<ellipse fill="none" stroke="#2e7d32" stroke-width="2" cx="454.82" cy="-214.14" rx="59.59" ry="18"/>
<text text-anchor="middle" x="454.82" y="-210.44" font-family="Helvetica,Arial,sans-serif" font-size="14.00">Portal Island</text>
</g>
<!-- Portal_Island&#45;&gt;Desert_Village -->
<g id="edge14" class="edge">
<title>Portal_Island-&gt;Desert_Village</title>
<path fill="none" stroke="black" d="M449.69,-195.92C441.66,-167.42 426.22,-112.56 418.17,-83.96"/>
</g>
<!-- _2UBO -->
<g id="node26" class="node">
<title>_2UBO</title>
<path fill="#a5d6a7" stroke="#2e7d32" stroke-width="0.5" d="M264.62,-269.72C264.62,-269.72 299.82,-269.72 299.82,-269.72 299.82,-270.31 299.76,-270.9 299.65,-271.48 299.53,-272.07 299.37,-272.65 299.14,-273.23 298.92,-273.81 298.64,-274.38 298.3,-274.95 297.97,-275.51 297.58,-276.06 297.14,-276.61 296.7,-277.15 296.2,-277.69 295.66,-278.21 295.12,-278.72 294.53,-279.23 293.89,-279.72 293.25,-280.21 292.56,-280.68 291.83,-281.14 291.1,-281.59 290.32,-282.03 289.51,-282.45 288.69,-282.86 287.84,-283.26 286.95,-283.63 286.06,-284.01 285.13,-284.36 284.18,-284.69 283.22,-285.01 282.23,-285.32 281.21,-285.59 280.2,-285.87 279.15,-286.12 278.09,-286.35 277.03,-286.58 275.94,-286.77 274.84,-286.94 273.74,-287.12 272.62,-287.26 271.49,-287.37 270.36,-287.49 269.22,-287.58 268.07,-287.63 266.93,-287.69 265.77,-287.72 264.62,-287.72 263.47,-287.72 262.32,-287.69 261.17,-287.63 260.03,-287.58 258.89,-287.49 257.76,-287.37 256.63,-287.26 255.51,-287.12 254.41,-286.94 253.3,-286.77 252.22,-286.58 251.15,-286.35 250.09,-286.12 249.05,-285.87 248.03,-285.59 247.02,-285.32 246.03,-285.01 245.07,-284.69 244.11,-284.36 243.19,-284.01 242.3,-283.63 241.41,-283.26 240.55,-282.86 239.74,-282.45 238.92,-282.03 238.15,-281.59 237.42,-281.14 236.69,-280.68 236,-280.21 235.36,-279.72 234.72,-279.23 234.13,-278.72 233.58,-278.21 233.04,-277.69 232.55,-277.15 232.11,-276.61 231.67,-276.06 231.28,-275.51 230.94,-274.95 230.61,-274.38 230.33,-273.81 230.1,-273.23 229.88,-272.65 229.71,-272.07 229.6,-271.48 229.49,-270.9 229.43,-270.31 229.43,-269.72 229.43,-269.72 264.62,-269.72 264.62,-269.72"/>
<path fill="#ffcdd2" stroke="#2e7d32" stroke-width="0.5" d="M264.62,-269.72C264.62,-269.72 229.43,-269.72 229.43,-269.72 229.43,-269.13 229.49,-268.54 229.6,-267.96 229.71,-267.37 229.88,-266.79 230.1,-266.21 230.33,-265.63 230.61,-265.06 230.94,-264.49 231.28,-263.93 231.67,-263.38 232.11,-262.83 232.55,-262.29 233.04,-261.75 233.58,-261.23 234.13,-260.72 234.72,-260.21 235.36,-259.72 236,-259.23 236.69,-258.76 237.42,-258.3 238.15,-257.85 238.92,-257.41 239.74,-256.99 240.55,-256.58 241.41,-256.18 242.3,-255.81 243.19,-255.43 244.11,-255.08 245.07,-254.75 246.03,-254.43 247.02,-254.12 248.03,-253.85 249.05,-253.57 250.09,-253.32 251.15,-253.09 252.22,-252.86 253.3,-252.67 254.41,-252.5 255.51,-252.32 256.63,-252.18 257.76,-252.07 258.89,-251.95 260.03,-251.86 261.17,-251.81 262.32,-251.75 263.47,-251.72 264.62,-251.72 265.77,-251.72 266.93,-251.75 268.07,-251.81 269.22,-251.86 270.36,-251.95 271.49,-252.07 272.62,-252.18 273.74,-252.32 274.84,-252.5 275.94,-252.67 277.03,-252.86 278.09,-253.09 279.15,-253.32 280.2,-253.57 281.21,-253.85 282.23,-254.12 283.22,-254.43 284.18,-254.75 285.13,-255.08 286.06,-255.43 286.95,-255.81 287.84,-256.18 288.69,-256.58 289.51,-256.99 290.32,-257.41 291.1,-257.85 291.83,-258.3 292.56,-258.76 293.25,-259.23 293.89,-259.72 294.53,-260.21 295.12,-260.72 295.66,-261.23 296.2,-261.75 296.7,-262.29 297.14,-262.83 297.58,-263.38 297.97,-263.93 298.3,-264.49 298.64,-265.06 298.92,-265.63 299.14,-266.21 299.37,-266.79 299.53,-267.37 299.65,-267.96 299.76,-268.54 299.82,-269.13 299.82,-269.72 299.82,-269.72 264.62,-269.72 264.62,-269.72"/>
<ellipse fill="none" stroke="#2e7d32" stroke-width="2" cx="264.62" cy="-269.72" rx="35.19" ry="18"/>
<text text-anchor="middle" x="264.62" y="-266.02" font-family="Helvetica,Arial,sans-serif" font-size="14.00">2UBO</text>
</g>
<!-- CUBO&#45;&gt;Squid_Farm -->
<g id="edge16" class="edge">
<title>CUBO-&gt;Squid_Farm</title>
<path fill="none" stroke="black" d="M290.89,-411.11C275.64,-412.44 257.54,-414.02 240.67,-415.49"/>
<text text-anchor="middle" x="265.78" y="-402.1" font-family="Helvetica,Arial,sans-serif" font-size="14.00">scenic</text>
</g>
<!-- CUBO&#45;&gt;Worrton -->
<g id="edge17" class="edge">
<title>CUBO-&gt;Worrton</title>
<path fill="none" stroke="black" d="M304.23,-393.93C281.61,-379.99 247.04,-358.69 223.89,-344.43"/>
</g>
<!-- CUBO&#45;&gt;_2UBO -->
<g id="edge24" class="edge">
<title>CUBO-&gt;_2UBO</title>
<path fill="none" stroke="#c62828" d="M318.99,-390.17C307.01,-363.63 284.58,-313.95 272.62,-287.44"/>
</g>
<!-- Sand_Mine -->
<g id="node30" class="node">
<title>Sand_Mine</title>
<path fill="#a5d6a7" stroke="#2e7d32" stroke-width="0.5" d="M1381.14,-793.46C1381.14,-793.46 1434.23,-793.46 1434.23,-793.46 1434.23,-794.05 1434.15,-794.64 1433.98,-795.22 1433.81,-795.81 1433.55,-796.39 1433.21,-796.97 1432.87,-797.55 1432.45,-798.12 1431.95,-798.68 1431.44,-799.25 1430.86,-799.8 1430.19,-800.35 1429.53,-800.89 1428.78,-801.42 1427.96,-801.94 1427.15,-802.46 1426.25,-802.97 1425.29,-803.46 1424.32,-803.95 1423.28,-804.42 1422.18,-804.88 1421.08,-805.33 1419.91,-805.77 1418.68,-806.19 1417.45,-806.6 1416.17,-807 1414.82,-807.37 1413.48,-807.75 1412.08,-808.1 1410.64,-808.43 1409.19,-808.75 1407.7,-809.06 1406.17,-809.33 1404.64,-809.61 1403.06,-809.86 1401.46,-810.09 1399.85,-810.31 1398.22,-810.51 1396.55,-810.68 1394.89,-810.85 1393.2,-811 1391.5,-811.11 1389.8,-811.23 1388.08,-811.31 1386.35,-811.37 1384.62,-811.43 1382.88,-811.46 1381.14,-811.46 1379.4,-811.46 1377.67,-811.43 1375.94,-811.37 1374.21,-811.31 1372.49,-811.23 1370.78,-811.11 1369.08,-811 1367.39,-810.85 1365.73,-810.68 1364.07,-810.51 1362.43,-810.31 1360.82,-810.09 1359.22,-809.86 1357.65,-809.61 1356.12,-809.33 1354.58,-809.06 1353.09,-808.75 1351.65,-808.43 1350.2,-808.1 1348.8,-807.75 1347.46,-807.37 1346.12,-807 1344.83,-806.6 1343.6,-806.19 1342.37,-805.77 1341.2,-805.33 1340.1,-804.88 1339,-804.42 1337.96,-803.95 1337,-803.46 1336.03,-802.97 1335.14,-802.46 1334.32,-801.94 1333.5,-801.42 1332.76,-800.89 1332.09,-800.35 1331.43,-799.8 1330.84,-799.25 1330.34,-798.68 1329.83,-798.12 1329.41,-797.55 1329.07,-796.97 1328.73,-796.39 1328.48,-795.81 1328.31,-795.22 1328.14,-794.64 1328.05,-794.05 1328.05,-793.46 1328.05,-793.46 1381.14,-793.46 1381.14,-793.46"/>
<path fill="#ffcdd2" stroke="#2e7d32" stroke-width="0.5" d="M1381.14,-793.46C1381.14,-793.46 1328.05,-793.46 1328.05,-793.46 1328.05,-792.87 1328.14,-792.28 1328.31,-791.69 1328.48,-791.11 1328.73,-790.53 1329.07,-789.95 1329.41,-789.37 1329.83,-788.8 1330.34,-788.23 1330.84,-787.67 1331.43,-787.12 1332.09,-786.57 1332.76,-786.03 1333.5,-785.49 1334.32,-784.97 1335.14,-784.45 1336.03,-783.95 1337,-783.46 1337.96,-782.97 1339,-782.5 1340.1,-782.04 1341.2,-781.58 1342.37,-781.15 1343.6,-780.73 1344.83,-780.31 1346.12,-779.92 1347.46,-779.54 1348.8,-779.17 1350.2,-778.82 1351.65,-778.49 1353.09,-778.17 1354.58,-777.86 1356.12,-777.58 1357.65,-777.31 1359.22,-777.05 1360.82,-776.83 1362.43,-776.6 1364.07,-776.41 1365.73,-776.23 1367.39,-776.06 1369.08,-775.92 1370.78,-775.8 1372.49,-775.69 1374.21,-775.6 1375.94,-775.55 1377.67,-775.49 1379.4,-775.46 1381.14,-775.46 1382.88,-775.46 1384.62,-775.49 1386.35,-775.55 1388.08,-775.6 1389.8,-775.69 1391.5,-775.8 1393.2,-775.92 1394.89,-776.06 1396.55,-776.23 1398.22,-776.41 1399.85,-776.6 1401.46,-776.83 1403.06,-777.05 1404.64,-777.31 1406.17,-777.58 1407.7,-777.86 1409.19,-778.17 1410.64,-778.49 1412.08,-778.82 1413.48,-779.17 1414.82,-779.54 1416.17,-779.92 1417.45,-780.31 1418.68,-780.73 1419.91,-781.15 1421.08,-781.58 1422.18,-782.04 1423.28,-782.5 1424.32,-782.97 1425.29,-783.46 1426.25,-783.95 1427.15,-784.45 1427.96,-784.97 1428.78,-785.49 1429.53,-786.03 1430.19,-786.57 1430.86,-787.12 1431.44,-787.67 1431.95,-788.23 1432.45,-788.8 1432.87,-789.37 1433.21,-789.95 1433.55,-790.53 1433.81,-791.11 1433.98,-791.69 1434.15,-792.28 1434.23,-792.87 1434.23,-793.46 1434.23,-793.46 1381.14,-793.46 1381.14,-793.46"/>
<ellipse fill="none" stroke="#2e7d32" stroke-width="2" cx="1381.14" cy="-793.46" rx="53.09" ry="18"/>
<text text-anchor="middle" x="1381.14" y="-789.76" font-family="Helvetica,Arial,sans-serif" font-size="14.00">Sand Mine</text>
</g>
<!-- Sand_Mine&#45;&gt;Frog -->
<g id="edge33" class="edge">
<title>Sand_Mine-&gt;Frog</title>
<path fill="none" stroke="#c62828" d="M1425.38,-803.58C1437.41,-806.33 1450.49,-809.32 1462.72,-812.12"/>
</g>
<!-- Ancient_City -->
<g id="node31" class="node">
<title>Ancient_City</title>
<path fill="#a5d6a7" stroke="#2e7d32" stroke-width="0.5" d="M1107.72,-892.31C1107.72,-892.31 1165.41,-892.31 1165.41,-892.31 1165.41,-892.9 1165.31,-893.49 1165.13,-894.08 1164.94,-894.66 1164.67,-895.25 1164.3,-895.83 1163.93,-896.4 1163.47,-896.97 1162.92,-897.54 1162.38,-898.1 1161.74,-898.66 1161.02,-899.2 1160.29,-899.75 1159.49,-900.28 1158.6,-900.8 1157.71,-901.32 1156.73,-901.82 1155.69,-902.31 1154.64,-902.8 1153.51,-903.28 1152.31,-903.73 1151.11,-904.19 1149.85,-904.62 1148.51,-905.04 1147.18,-905.46 1145.78,-905.85 1144.32,-906.23 1142.86,-906.6 1141.34,-906.95 1139.77,-907.28 1138.2,-907.61 1136.58,-907.91 1134.91,-908.19 1133.25,-908.47 1131.54,-908.72 1129.79,-908.94 1128.05,-909.17 1126.27,-909.37 1124.46,-909.54 1122.66,-909.71 1120.82,-909.85 1118.97,-909.97 1117.12,-910.08 1115.25,-910.17 1113.37,-910.23 1111.49,-910.28 1109.61,-910.31 1107.72,-910.31 1105.83,-910.31 1103.94,-910.28 1102.06,-910.23 1100.18,-910.17 1098.31,-910.08 1096.46,-909.97 1094.61,-909.85 1092.78,-909.71 1090.97,-909.54 1089.16,-909.37 1087.38,-909.17 1085.64,-908.94 1083.9,-908.72 1082.19,-908.47 1080.52,-908.19 1078.86,-907.91 1077.24,-907.61 1075.67,-907.28 1074.1,-906.95 1072.58,-906.6 1071.12,-906.23 1069.66,-905.85 1068.26,-905.46 1066.92,-905.04 1065.59,-904.62 1064.32,-904.19 1063.12,-903.73 1061.92,-903.28 1060.8,-902.8 1059.75,-902.31 1058.7,-901.82 1057.73,-901.32 1056.84,-900.8 1055.95,-900.28 1055.14,-899.75 1054.42,-899.2 1053.7,-898.66 1053.06,-898.1 1052.51,-897.54 1051.96,-896.97 1051.5,-896.4 1051.14,-895.83 1050.77,-895.25 1050.49,-894.66 1050.31,-894.08 1050.12,-893.49 1050.03,-892.9 1050.03,-892.31 1050.03,-892.31 1107.72,-892.31 1107.72,-892.31"/>
<path fill="#ffcdd2" stroke="#2e7d32" stroke-width="0.5" d="M1107.72,-892.31C1107.72,-892.31 1050.03,-892.31 1050.03,-892.31 1050.03,-891.72 1050.12,-891.14 1050.31,-890.55 1050.49,-889.96 1050.77,-889.38 1051.14,-888.8 1051.5,-888.22 1051.96,-887.65 1052.51,-887.09 1053.06,-886.52 1053.7,-885.97 1054.42,-885.43 1055.14,-884.88 1055.95,-884.35 1056.84,-883.83 1057.73,-883.31 1058.7,-882.8 1059.75,-882.31 1060.8,-881.82 1061.92,-881.35 1063.12,-880.89 1064.32,-880.44 1065.59,-880 1066.92,-879.59 1068.26,-879.17 1069.66,-878.77 1071.12,-878.4 1072.58,-878.03 1074.1,-877.67 1075.67,-877.35 1077.24,-877.02 1078.86,-876.72 1080.52,-876.44 1082.19,-876.16 1083.9,-875.91 1085.64,-875.68 1087.38,-875.46 1089.16,-875.26 1090.97,-875.09 1092.78,-874.92 1094.61,-874.77 1096.46,-874.66 1098.31,-874.54 1100.18,-874.46 1102.06,-874.4 1103.94,-874.34 1105.83,-874.31 1107.72,-874.31 1109.61,-874.31 1111.49,-874.34 1113.37,-874.4 1115.25,-874.46 1117.12,-874.54 1118.97,-874.66 1120.82,-874.77 1122.66,-874.92 1124.46,-875.09 1126.27,-875.26 1128.05,-875.46 1129.79,-875.68 1131.54,-875.91 1133.25,-876.16 1134.91,-876.44 1136.58,-876.72 1138.2,-877.02 1139.77,-877.35 1141.34,-877.67 1142.86,-878.03 1144.32,-878.4 1145.78,-878.77 1147.18,-879.17 1148.51,-879.59 1149.85,-880 1151.11,-880.44 1152.31,-880.89 1153.51,-881.35 1154.64,-881.82 1155.69,-882.31 1156.73,-882.8 1157.71,-883.31 1158.6,-883.83 1159.49,-884.35 1160.29,-884.88 1161.02,-885.43 1161.74,-885.97 1162.38,-886.52 1162.92,-887.09 1163.47,-887.65 1163.93,-888.22 1164.3,-888.8 1164.67,-889.38 1164.94,-889.96 1165.13,-890.55 1165.31,-891.14 1165.41,-891.72 1165.41,-892.31 1165.41,-892.31 1107.72,-892.31 1107.72,-892.31"/>
<ellipse fill="none" stroke="#2e7d32" stroke-width="2" cx="1107.72" cy="-892.31" rx="57.69" ry="18"/>
<text text-anchor="middle" x="1107.72" y="-888.61" font-family="Helvetica,Arial,sans-serif" font-size="14.00">Ancient City</text>
</g>
<!-- Ancient_City&#45;&gt;Atlantis -->
<g id="edge29" class="edge">
<title>Ancient_City-&gt;Atlantis</title>
<path fill="none" stroke="#c62828" d="M1089.09,-875.16C1066.44,-854.29 1028.48,-819.33 1006.24,-798.85"/>
</g>
<!-- Duncs_Mistake -->
<g id="node32" class="node">
<title>Duncs_Mistake</title>
<path fill="#a5d6a7" stroke="#2e7d32" stroke-width="0.5" d="M488.13,-355.8C488.13,-355.8 558.81,-355.8 558.81,-355.8 558.81,-356.39 558.7,-356.98 558.47,-357.57 558.25,-358.15 557.91,-358.74 557.45,-359.31 557,-359.89 556.44,-360.46 555.77,-361.03 555.1,-361.59 554.32,-362.15 553.43,-362.69 552.55,-363.24 551.56,-363.77 550.47,-364.29 549.38,-364.81 548.19,-365.31 546.9,-365.8 545.61,-366.29 544.24,-366.77 542.77,-367.22 541.3,-367.68 539.75,-368.11 538.11,-368.53 536.47,-368.95 534.76,-369.34 532.97,-369.72 531.18,-370.09 529.32,-370.44 527.4,-370.77 525.47,-371.1 523.49,-371.4 521.45,-371.68 519.41,-371.96 517.31,-372.21 515.18,-372.43 513.04,-372.66 510.86,-372.86 508.64,-373.03 506.43,-373.2 504.19,-373.34 501.92,-373.46 499.65,-373.57 497.36,-373.66 495.05,-373.72 492.75,-373.77 490.44,-373.8 488.13,-373.8 485.81,-373.8 483.5,-373.77 481.2,-373.72 478.89,-373.66 476.6,-373.57 474.33,-373.46 472.07,-373.34 469.82,-373.2 467.61,-373.03 465.39,-372.86 463.21,-372.66 461.07,-372.43 458.94,-372.21 456.84,-371.96 454.8,-371.68 452.76,-371.4 450.78,-371.1 448.85,-370.77 446.93,-370.44 445.07,-370.09 443.28,-369.72 441.49,-369.34 439.78,-368.95 438.14,-368.53 436.51,-368.11 434.95,-367.68 433.48,-367.22 432.02,-366.77 430.64,-366.29 429.35,-365.8 428.07,-365.31 426.87,-364.81 425.78,-364.29 424.69,-363.77 423.7,-363.24 422.82,-362.69 421.93,-362.15 421.15,-361.59 420.48,-361.03 419.81,-360.46 419.25,-359.89 418.8,-359.31 418.34,-358.74 418,-358.15 417.78,-357.57 417.55,-356.98 417.44,-356.39 417.44,-355.8 417.44,-355.8 488.13,-355.8 488.13,-355.8"/>
<path fill="#ffcdd2" stroke="#2e7d32" stroke-width="0.5" d="M488.13,-355.8C488.13,-355.8 417.44,-355.8 417.44,-355.8 417.44,-355.21 417.55,-354.63 417.78,-354.04 418,-353.45 418.34,-352.87 418.8,-352.29 419.25,-351.71 419.81,-351.14 420.48,-350.58 421.15,-350.01 421.93,-349.46 422.82,-348.91 423.7,-348.37 424.69,-347.84 425.78,-347.32 426.87,-346.8 428.07,-346.29 429.35,-345.8 430.64,-345.31 432.02,-344.84 433.48,-344.38 434.95,-343.93 436.51,-343.49 438.14,-343.08 439.78,-342.66 441.49,-342.26 443.28,-341.89 445.07,-341.52 446.93,-341.16 448.85,-340.84 450.78,-340.51 452.76,-340.21 454.8,-339.93 456.84,-339.65 458.94,-339.4 461.07,-339.17 463.21,-338.95 465.39,-338.75 467.61,-338.58 469.82,-338.41 472.07,-338.26 474.33,-338.15 476.6,-338.03 478.89,-337.95 481.2,-337.89 483.5,-337.83 485.81,-337.8 488.13,-337.8 490.44,-337.8 492.75,-337.83 495.05,-337.89 497.36,-337.95 499.65,-338.03 501.92,-338.15 504.19,-338.26 506.43,-338.41 508.64,-338.58 510.86,-338.75 513.04,-338.95 515.18,-339.17 517.31,-339.4 519.41,-339.65 521.45,-339.93 523.49,-340.21 525.47,-340.51 527.4,-340.84 529.32,-341.16 531.18,-341.52 532.97,-341.89 534.76,-342.26 536.47,-342.66 538.11,-343.08 539.75,-343.49 541.3,-343.93 542.77,-344.38 544.24,-344.84 545.61,-345.31 546.9,-345.8 548.19,-346.29 549.38,-346.8 550.47,-347.32 551.56,-347.84 552.55,-348.37 553.43,-348.91 554.32,-349.46 555.1,-350.01 555.77,-350.58 556.44,-351.14 557,-351.71 557.45,-352.29 557.91,-352.87 558.25,-353.45 558.47,-354.04 558.7,-354.63 558.81,-355.21 558.81,-355.8 558.81,-355.8 488.13,-355.8 488.13,-355.8"/>
<ellipse fill="none" stroke="#2e7d32" stroke-width="2" cx="488.13" cy="-355.8" rx="70.69" ry="18"/>
<text text-anchor="middle" x="488.13" y="-352.1" font-family="Helvetica,Arial,sans-serif" font-size="14.00">Dunc's Mistake</text>
</g>
<!-- Duncs_Mistake&#45;&gt;Portal_Island -->
<g id="edge22" class="edge">
<title>Duncs_Mistake-&gt;Portal_Island</title>
<path fill="none" stroke="#c62828" d="M483.84,-337.57C477.44,-310.37 465.47,-259.46 459.09,-232.3"/>
<text text-anchor="middle" x="451.96" y="-288.73" font-family="Helvetica,Arial,sans-serif" font-size="14.00">scenic</text>
</g>
<!-- Duncs_Mistake&#45;&gt;CUBO -->
<g id="edge23" class="edge">
<title>Duncs_Mistake-&gt;CUBO</title>
<path fill="none" stroke="#c62828" d="M444.1,-370.06C416.62,-378.95 381.93,-390.18 357.47,-398.1"/>
</g>
<!-- Junction6 -->
<!-- Duncs_Mistake&#45;&gt;Junction6 -->
<g id="edge43" class="edge">
<title>Duncs_Mistake-&gt;Junction6</title>
<path fill="none" stroke="#e53935" stroke-width="2" d="M495.07,-337.76C510.73,-297.08 547.52,-201.54 548.66,-198.57"/>
</g>
<!-- Frigidaire_ad -->
<g id="node33" class="node">
<title>Frigidaire_ad</title>
<path fill="#a5d6a7" stroke="#2e7d32" stroke-width="0.5" d="M997.45,-348.31C997.45,-348.31 1061.64,-348.31 1061.64,-348.31 1061.64,-348.9 1061.54,-349.49 1061.33,-350.08 1061.13,-350.66 1060.82,-351.25 1060.41,-351.82 1060,-352.4 1059.49,-352.97 1058.88,-353.54 1058.27,-354.1 1057.56,-354.66 1056.75,-355.2 1055.95,-355.75 1055.05,-356.28 1054.06,-356.8 1053.07,-357.32 1051.99,-357.82 1050.82,-358.31 1049.66,-358.8 1048.4,-359.28 1047.07,-359.73 1045.74,-360.19 1044.33,-360.62 1042.84,-361.04 1041.35,-361.46 1039.8,-361.85 1038.17,-362.23 1036.55,-362.6 1034.86,-362.95 1033.11,-363.28 1031.37,-363.61 1029.56,-363.91 1027.71,-364.19 1025.86,-364.47 1023.96,-364.72 1022.02,-364.94 1020.07,-365.17 1018.1,-365.37 1016.09,-365.54 1014.07,-365.71 1012.04,-365.85 1009.97,-365.97 1007.91,-366.08 1005.83,-366.17 1003.74,-366.23 1001.65,-366.28 999.55,-366.31 997.45,-366.31 995.35,-366.31 993.25,-366.28 991.16,-366.23 989.07,-366.17 986.99,-366.08 984.93,-365.97 982.87,-365.85 980.83,-365.71 978.82,-365.54 976.81,-365.37 974.83,-365.17 972.89,-364.94 970.95,-364.72 969.05,-364.47 967.19,-364.19 965.34,-363.91 963.54,-363.61 961.79,-363.28 960.04,-362.95 958.36,-362.6 956.73,-362.23 955.11,-361.85 953.55,-361.46 952.06,-361.04 950.58,-360.62 949.17,-360.19 947.83,-359.73 946.5,-359.28 945.25,-358.8 944.08,-358.31 942.91,-357.82 941.83,-357.32 940.84,-356.8 939.85,-356.28 938.95,-355.75 938.15,-355.2 937.35,-354.66 936.64,-354.1 936.03,-353.54 935.42,-352.97 934.91,-352.4 934.5,-351.82 934.09,-351.25 933.78,-350.66 933.57,-350.08 933.37,-349.49 933.26,-348.9 933.26,-348.31 933.26,-348.31 997.45,-348.31 997.45,-348.31"/>
<path fill="#ffcdd2" stroke="#2e7d32" stroke-width="0.5" d="M997.45,-348.31C997.45,-348.31 933.26,-348.31 933.26,-348.31 933.26,-347.72 933.37,-347.13 933.57,-346.55 933.78,-345.96 934.09,-345.38 934.5,-344.8 934.91,-344.22 935.42,-343.65 936.03,-343.09 936.64,-342.52 937.35,-341.97 938.15,-341.42 938.95,-340.88 939.85,-340.35 940.84,-339.83 941.83,-339.31 942.91,-338.8 944.08,-338.31 945.25,-337.82 946.5,-337.35 947.83,-336.89 949.17,-336.44 950.58,-336 952.06,-335.59 953.55,-335.17 955.11,-334.77 956.73,-334.4 958.36,-334.03 960.04,-333.67 961.79,-333.35 963.54,-333.02 965.34,-332.72 967.19,-332.44 969.05,-332.16 970.95,-331.91 972.89,-331.68 974.83,-331.46 976.81,-331.26 978.82,-331.09 980.83,-330.92 982.87,-330.77 984.93,-330.66 986.99,-330.54 989.07,-330.46 991.16,-330.4 993.25,-330.34 995.35,-330.31 997.45,-330.31 999.55,-330.31 1001.65,-330.34 1003.74,-330.4 1005.83,-330.46 1007.91,-330.54 1009.97,-330.66 1012.04,-330.77 1014.07,-330.92 1016.09,-331.09 1018.1,-331.26 1020.07,-331.46 1022.02,-331.68 1023.96,-331.91 1025.86,-332.16 1027.71,-332.44 1029.56,-332.72 1031.37,-333.02 1033.11,-333.35 1034.86,-333.67 1036.55,-334.03 1038.17,-334.4 1039.8,-334.77 1041.35,-335.17 1042.84,-335.59 1044.33,-336 1045.74,-336.44 1047.07,-336.89 1048.4,-337.35 1049.66,-337.82 1050.82,-338.31 1051.99,-338.8 1053.07,-339.31 1054.06,-339.83 1055.05,-340.35 1055.95,-340.88 1056.75,-341.42 1057.56,-341.97 1058.27,-342.52 1058.88,-343.09 1059.49,-343.65 1060,-344.22 1060.41,-344.8 1060.82,-345.38 1061.13,-345.96 1061.33,-346.55 1061.54,-347.13 1061.64,-347.72 1061.64,-348.31 1061.64,-348.31 997.45,-348.31 997.45,-348.31"/>
<ellipse fill="none" stroke="#2e7d32" stroke-width="2" cx="997.45" cy="-348.31" rx="64.19" ry="18"/>
<text text-anchor="middle" x="997.45" y="-344.61" font-family="Helvetica,Arial,sans-serif" font-size="14.00">Frigidaire #ad</text>
</g>
<!-- Pillager -->
<g id="node34" class="node">
<title>Pillager</title>
<path fill="#a5d6a7" stroke="#2e7d32" stroke-width="0.5" d="M1167.21,-265.59C1167.21,-265.59 1207.31,-265.59 1207.31,-265.59 1207.31,-266.18 1207.24,-266.77 1207.12,-267.36 1206.99,-267.94 1206.79,-268.52 1206.54,-269.1 1206.28,-269.68 1205.96,-270.25 1205.58,-270.82 1205.2,-271.38 1204.76,-271.93 1204.26,-272.48 1203.75,-273.02 1203.19,-273.56 1202.57,-274.08 1201.96,-274.6 1201.28,-275.1 1200.55,-275.59 1199.82,-276.08 1199.04,-276.55 1198.21,-277.01 1197.37,-277.47 1196.49,-277.9 1195.56,-278.32 1194.64,-278.74 1193.66,-279.13 1192.65,-279.51 1191.64,-279.88 1190.58,-280.23 1189.49,-280.56 1188.4,-280.88 1187.27,-281.19 1186.11,-281.47 1184.96,-281.74 1183.77,-282 1182.56,-282.22 1181.35,-282.45 1180.11,-282.64 1178.85,-282.82 1177.6,-282.99 1176.32,-283.13 1175.04,-283.25 1173.75,-283.36 1172.45,-283.45 1171.14,-283.5 1169.84,-283.56 1168.53,-283.59 1167.21,-283.59 1165.9,-283.59 1164.59,-283.56 1163.28,-283.5 1161.98,-283.45 1160.68,-283.36 1159.39,-283.25 1158.11,-283.13 1156.83,-282.99 1155.58,-282.82 1154.32,-282.64 1153.08,-282.45 1151.87,-282.22 1150.66,-282 1149.47,-281.74 1148.31,-281.47 1147.16,-281.19 1146.03,-280.88 1144.94,-280.56 1143.85,-280.23 1142.79,-279.88 1141.78,-279.51 1140.76,-279.13 1139.79,-278.74 1138.86,-278.32 1137.94,-277.9 1137.05,-277.47 1136.22,-277.01 1135.39,-276.55 1134.61,-276.08 1133.88,-275.59 1133.15,-275.1 1132.47,-274.6 1131.85,-274.08 1131.24,-273.56 1130.67,-273.02 1130.17,-272.48 1129.67,-271.93 1129.23,-271.38 1128.85,-270.82 1128.47,-270.25 1128.15,-269.68 1127.89,-269.1 1127.63,-268.52 1127.44,-267.94 1127.31,-267.36 1127.18,-266.77 1127.12,-266.18 1127.12,-265.59 1127.12,-265.59 1167.21,-265.59 1167.21,-265.59"/>
<path fill="#ffcdd2" stroke="#2e7d32" stroke-width="0.5" d="M1167.21,-265.59C1167.21,-265.59 1127.12,-265.59 1127.12,-265.59 1127.12,-265 1127.18,-264.41 1127.31,-263.83 1127.44,-263.24 1127.63,-262.66 1127.89,-262.08 1128.15,-261.5 1128.47,-260.93 1128.85,-260.37 1129.23,-259.8 1129.67,-259.25 1130.17,-258.7 1130.67,-258.16 1131.24,-257.63 1131.85,-257.11 1132.47,-256.59 1133.15,-256.08 1133.88,-255.59 1134.61,-255.1 1135.39,-254.63 1136.22,-254.17 1137.05,-253.72 1137.94,-253.28 1138.86,-252.86 1139.79,-252.45 1140.76,-252.05 1141.78,-251.68 1142.79,-251.3 1143.85,-250.95 1144.94,-250.62 1146.03,-250.3 1147.16,-249.99 1148.31,-249.72 1149.47,-249.44 1150.66,-249.19 1151.87,-248.96 1153.08,-248.74 1154.32,-248.54 1155.58,-248.37 1156.83,-248.2 1158.11,-248.05 1159.39,-247.94 1160.68,-247.82 1161.98,-247.74 1163.28,-247.68 1164.59,-247.62 1165.9,-247.59 1167.21,-247.59 1168.53,-247.59 1169.84,-247.62 1171.14,-247.68 1172.45,-247.74 1173.75,-247.82 1175.04,-247.94 1176.32,-248.05 1177.6,-248.2 1178.85,-248.37 1180.11,-248.54 1181.35,-248.74 1182.56,-248.96 1183.77,-249.19 1184.96,-249.44 1186.11,-249.72 1187.27,-249.99 1188.4,-250.3 1189.49,-250.62 1190.58,-250.95 1191.64,-251.3 1192.65,-251.68 1193.66,-252.05 1194.64,-252.45 1195.56,-252.86 1196.49,-253.28 1197.37,-253.72 1198.21,-254.17 1199.04,-254.63 1199.82,-255.1 1200.55,-255.59 1201.28,-256.08 1201.96,-256.59 1202.57,-257.11 1203.19,-257.63 1203.75,-258.16 1204.26,-258.7 1204.76,-259.25 1205.2,-259.8 1205.58,-260.37 1205.96,-260.93 1206.28,-261.5 1206.54,-262.08 1206.79,-262.66 1206.99,-263.24 1207.12,-263.83 1207.24,-264.41 1207.31,-265 1207.31,-265.59 1207.31,-265.59 1167.21,-265.59 1167.21,-265.59"/>
<ellipse fill="none" stroke="#2e7d32" stroke-width="2" cx="1167.21" cy="-265.59" rx="40.09" ry="18"/>
<text text-anchor="middle" x="1167.21" y="-261.89" font-family="Helvetica,Arial,sans-serif" font-size="14.00">Pillager</text>
</g>
<!-- Mangrove_Station -->
<g id="node35" class="node">
<title>Mangrove_Station</title>
<path fill="#a5d6a7" stroke="#2e7d32" stroke-width="0.5" d="M1292.96,-366.25C1292.96,-366.25 1372.84,-366.25 1372.84,-366.25 1372.84,-366.84 1372.72,-367.43 1372.46,-368.01 1372.2,-368.6 1371.82,-369.18 1371.31,-369.76 1370.8,-370.34 1370.16,-370.91 1369.4,-371.47 1368.64,-372.04 1367.76,-372.59 1366.76,-373.14 1365.76,-373.68 1364.64,-374.21 1363.41,-374.73 1362.18,-375.25 1360.83,-375.76 1359.38,-376.25 1357.93,-376.74 1356.37,-377.21 1354.71,-377.67 1353.05,-378.12 1351.29,-378.56 1349.45,-378.98 1347.6,-379.39 1345.66,-379.79 1343.64,-380.16 1341.62,-380.54 1339.51,-380.89 1337.34,-381.21 1335.17,-381.54 1332.92,-381.84 1330.62,-382.12 1328.31,-382.4 1325.94,-382.65 1323.53,-382.88 1321.11,-383.1 1318.65,-383.3 1316.15,-383.47 1313.65,-383.64 1311.11,-383.79 1308.54,-383.9 1305.98,-384.02 1303.39,-384.1 1300.79,-384.16 1298.19,-384.22 1295.57,-384.25 1292.96,-384.25 1290.34,-384.25 1287.73,-384.22 1285.13,-384.16 1282.53,-384.1 1279.94,-384.02 1277.37,-383.9 1274.81,-383.79 1272.27,-383.64 1269.77,-383.47 1267.27,-383.3 1264.8,-383.1 1262.39,-382.88 1259.97,-382.65 1257.61,-382.4 1255.3,-382.12 1252.99,-381.84 1250.75,-381.54 1248.58,-381.21 1246.4,-380.89 1244.3,-380.54 1242.28,-380.16 1240.26,-379.79 1238.32,-379.39 1236.47,-378.98 1234.62,-378.56 1232.86,-378.12 1231.21,-377.67 1229.55,-377.21 1227.99,-376.74 1226.54,-376.25 1225.08,-375.76 1223.74,-375.25 1222.5,-374.73 1221.27,-374.21 1220.15,-373.68 1219.15,-373.14 1218.15,-372.59 1217.27,-372.04 1216.51,-371.47 1215.75,-370.91 1215.12,-370.34 1214.61,-369.76 1214.1,-369.18 1213.71,-368.6 1213.46,-368.01 1213.2,-367.43 1213.07,-366.84 1213.07,-366.25 1213.07,-366.25 1292.96,-366.25 1292.96,-366.25"/>
<path fill="#ffcdd2" stroke="#2e7d32" stroke-width="0.5" d="M1292.96,-366.25C1292.96,-366.25 1213.07,-366.25 1213.07,-366.25 1213.07,-365.66 1213.2,-365.07 1213.46,-364.48 1213.71,-363.9 1214.1,-363.31 1214.61,-362.74 1215.12,-362.16 1215.75,-361.59 1216.51,-361.02 1217.27,-360.46 1218.15,-359.9 1219.15,-359.36 1220.15,-358.82 1221.27,-358.28 1222.5,-357.76 1223.74,-357.24 1225.08,-356.74 1226.54,-356.25 1227.99,-355.76 1229.55,-355.28 1231.21,-354.83 1232.86,-354.37 1234.62,-353.94 1236.47,-353.52 1238.32,-353.1 1240.26,-352.71 1242.28,-352.33 1244.3,-351.96 1246.4,-351.61 1248.58,-351.28 1250.75,-350.95 1252.99,-350.65 1255.3,-350.37 1257.61,-350.1 1259.97,-349.84 1262.39,-349.62 1264.8,-349.39 1267.27,-349.19 1269.77,-349.02 1272.27,-348.85 1274.81,-348.71 1277.37,-348.59 1279.94,-348.48 1282.53,-348.39 1285.13,-348.33 1287.73,-348.28 1290.34,-348.25 1292.96,-348.25 1295.57,-348.25 1298.19,-348.28 1300.79,-348.33 1303.39,-348.39 1305.98,-348.48 1308.54,-348.59 1311.11,-348.71 1313.65,-348.85 1316.15,-349.02 1318.65,-349.19 1321.11,-349.39 1323.53,-349.62 1325.94,-349.84 1328.31,-350.1 1330.62,-350.37 1332.92,-350.65 1335.17,-350.95 1337.34,-351.28 1339.51,-351.61 1341.62,-351.96 1343.64,-352.33 1345.66,-352.71 1347.6,-353.1 1349.45,-353.52 1351.29,-353.94 1353.05,-354.37 1354.71,-354.83 1356.37,-355.28 1357.93,-355.76 1359.38,-356.25 1360.83,-356.74 1362.18,-357.24 1363.41,-357.76 1364.64,-358.28 1365.76,-358.82 1366.76,-359.36 1367.76,-359.9 1368.64,-360.46 1369.4,-361.02 1370.16,-361.59 1370.8,-362.16 1371.31,-362.74 1371.82,-363.31 1372.2,-363.9 1372.46,-364.48 1372.72,-365.07 1372.84,-365.66 1372.84,-366.25 1372.84,-366.25 1292.96,-366.25 1292.96,-366.25"/>
<ellipse fill="none" stroke="#2e7d32" stroke-width="2" cx="1292.96" cy="-366.25" rx="79.89" ry="18"/>
<text text-anchor="middle" x="1292.96" y="-362.55" font-family="Helvetica,Arial,sans-serif" font-size="14.00">Mangrove Station</text>
</g>
<!-- Mangrove_Station&#45;&gt;WTO_Memorial -->
<g id="edge40" class="edge">
<title>Mangrove_Station-&gt;WTO_Memorial</title>
<path fill="none" stroke="#c62828" d="M1305.93,-348.25C1321.8,-326.23 1348.5,-289.19 1364.32,-267.25"/>
</g>
<!-- Trial_Chamber -->
<g id="node37" class="node">
<title>Trial_Chamber</title>
<path fill="#a5d6a7" stroke="#2e7d32" stroke-width="0.5" d="M861.45,-1004.81C861.45,-1004.81 927.54,-1004.81 927.54,-1004.81 927.54,-1005.4 927.43,-1005.99 927.22,-1006.58 927.01,-1007.16 926.69,-1007.75 926.27,-1008.32 925.85,-1008.9 925.32,-1009.47 924.69,-1010.04 924.06,-1010.6 923.33,-1011.16 922.51,-1011.7 921.68,-1012.24 920.75,-1012.78 919.73,-1013.3 918.71,-1013.82 917.6,-1014.32 916.4,-1014.81 915.2,-1015.3 913.91,-1015.78 912.54,-1016.23 911.16,-1016.69 909.71,-1017.12 908.18,-1017.54 906.65,-1017.96 905.05,-1018.35 903.37,-1018.73 901.7,-1019.1 899.96,-1019.45 898.17,-1019.78 896.37,-1020.11 894.51,-1020.41 892.6,-1020.69 890.69,-1020.96 888.74,-1021.22 886.74,-1021.44 884.74,-1021.67 882.7,-1021.87 880.63,-1022.04 878.56,-1022.21 876.46,-1022.35 874.34,-1022.47 872.22,-1022.58 870.08,-1022.67 867.93,-1022.73 865.77,-1022.78 863.61,-1022.81 861.45,-1022.81 859.29,-1022.81 857.12,-1022.78 854.97,-1022.73 852.82,-1022.67 850.68,-1022.58 848.56,-1022.47 846.43,-1022.35 844.33,-1022.21 842.26,-1022.04 840.19,-1021.87 838.16,-1021.67 836.16,-1021.44 834.16,-1021.22 832.2,-1020.96 830.29,-1020.69 828.39,-1020.41 826.53,-1020.11 824.73,-1019.78 822.93,-1019.45 821.19,-1019.1 819.52,-1018.73 817.85,-1018.35 816.25,-1017.96 814.72,-1017.54 813.19,-1017.12 811.73,-1016.69 810.36,-1016.23 808.99,-1015.78 807.7,-1015.3 806.5,-1014.81 805.3,-1014.32 804.18,-1013.82 803.16,-1013.3 802.14,-1012.78 801.22,-1012.24 800.39,-1011.7 799.56,-1011.16 798.83,-1010.6 798.21,-1010.04 797.58,-1009.47 797.05,-1008.9 796.63,-1008.32 796.21,-1007.75 795.89,-1007.16 795.68,-1006.58 795.47,-1005.99 795.36,-1005.4 795.36,-1004.81 795.36,-1004.81 861.45,-1004.81 861.45,-1004.81"/>
<path fill="#ffcdd2" stroke="#2e7d32" stroke-width="0.5" d="M861.45,-1004.81C861.45,-1004.81 795.36,-1004.81 795.36,-1004.81 795.36,-1004.22 795.47,-1003.63 795.68,-1003.05 795.89,-1002.46 796.21,-1001.88 796.63,-1001.3 797.05,-1000.72 797.58,-1000.15 798.21,-999.59 798.83,-999.02 799.56,-998.47 800.39,-997.92 801.22,-997.38 802.14,-996.85 803.16,-996.33 804.18,-995.81 805.3,-995.3 806.5,-994.81 807.7,-994.32 808.99,-993.85 810.36,-993.39 811.73,-992.94 813.19,-992.5 814.72,-992.08 816.25,-991.67 817.85,-991.27 819.52,-990.9 821.19,-990.52 822.93,-990.17 824.73,-989.85 826.53,-989.52 828.39,-989.22 830.29,-988.94 832.2,-988.66 834.16,-988.41 836.16,-988.18 838.16,-987.96 840.19,-987.76 842.26,-987.59 844.33,-987.42 846.43,-987.27 848.56,-987.16 850.68,-987.04 852.82,-986.96 854.97,-986.9 857.12,-986.84 859.29,-986.81 861.45,-986.81 863.61,-986.81 865.77,-986.84 867.93,-986.9 870.08,-986.96 872.22,-987.04 874.34,-987.16 876.46,-987.27 878.56,-987.42 880.63,-987.59 882.7,-987.76 884.74,-987.96 886.74,-988.18 888.74,-988.41 890.69,-988.66 892.6,-988.94 894.51,-989.22 896.37,-989.52 898.17,-989.85 899.96,-990.17 901.7,-990.52 903.37,-990.9 905.05,-991.27 906.65,-991.67 908.18,-992.08 909.71,-992.5 911.16,-992.94 912.54,-993.39 913.91,-993.85 915.2,-994.32 916.4,-994.81 917.6,-995.3 918.71,-995.81 919.73,-996.33 920.75,-996.85 921.68,-997.38 922.51,-997.92 923.33,-998.47 924.06,-999.02 924.69,-999.59 925.32,-1000.15 925.85,-1000.72 926.27,-1001.3 926.69,-1001.88 927.01,-1002.46 927.22,-1003.05 927.43,-1003.63 927.54,-1004.22 927.54,-1004.81 927.54,-1004.81 861.45,-1004.81 861.45,-1004.81"/>
<ellipse fill="none" stroke="#2e7d32" stroke-width="2" cx="861.45" cy="-1004.81" rx="66.09" ry="18"/>
<text text-anchor="middle" x="861.45" y="-1001.11" font-family="Helvetica,Arial,sans-serif" font-size="14.00">Trial Chamber</text>
</g>
<!-- End_Village&#45;&gt;Enderman_Farm -->
<g id="edge46" class="edge">
<title>End_Village-&gt;Enderman_Farm</title>
<path fill="none" stroke="#4a148c" d="M932.64,-866.66C949.86,-894.21 982.68,-946.69 999.99,-974.37"/>
</g>
<!-- End_Village&#45;&gt;Trial_Chamber -->
<g id="edge42" class="edge">
<title>End_Village-&gt;Trial_Chamber</title>
<path fill="none" stroke="#c62828" d="M914.55,-866.64C903.04,-896.59 880.01,-956.51 868.43,-986.64"/>
</g>
<!-- Dragon_Junction&#45;&gt;Mob_Grinder -->
<g id="edge6" class="edge">
<title>Dragon_Junction-&gt;Mob_Grinder</title>
<path fill="none" stroke="#4285f4" stroke-width="2" d="M202.03,-694.23C202.83,-690.72 222.85,-602.53 231.65,-563.77"/>
</g>
<!-- Dragon_Junction&#45;&gt;Guardian_Farm -->
<g id="edge8" class="edge">
<title>Dragon_Junction-&gt;Guardian_Farm</title>
<path fill="none" stroke="black" d="M201.92,-694.38C199.32,-695.52 144.34,-719.86 106.41,-736.65"/>
</g>
<!-- Junction2&#45;&gt;Hog_Farm -->
<g id="edge19" class="edge">
<title>Junction2-&gt;Hog_Farm</title>
<path fill="none" stroke="#c62828" d="M720.65,-556.29C718.51,-557.09 675.09,-573.39 642.83,-585.5"/>
</g>
<!-- Junction5 -->
<!-- Junction2&#45;&gt;Junction5 -->
<g id="edge20" class="edge">
<title>Junction2-&gt;Junction5</title>
<path fill="none" stroke="#c62828" d="M720.66,-556.18C717.74,-552.61 625.69,-440.25 622.82,-436.74"/>
</g>
<!-- Junction3&#45;&gt;Ancient_City -->
<g id="edge28" class="edge">
<title>Junction3-&gt;Ancient_City</title>
<path fill="none" stroke="#c62828" d="M1084.08,-749.94C1084.63,-753.28 1098.47,-836.62 1104.71,-874.21"/>
</g>
<!-- Junction4 -->
<!-- Junction3&#45;&gt;Junction4 -->
<g id="edge30" class="edge">
<title>Junction3-&gt;Junction4</title>
<path fill="none" stroke="#c62828" d="M1084.17,-749.88C1088.72,-751.62 1232.14,-806.57 1236.62,-808.29"/>
</g>
<!-- Junction4&#45;&gt;CML_Memorial -->
<g id="edge31" class="edge">
<title>Junction4-&gt;CML_Memorial</title>
<path fill="none" stroke="#c62828" d="M1236.77,-808.44C1238.03,-812.12 1269.92,-904.91 1283.69,-944.97"/>
</g>
<!-- Junction4&#45;&gt;Sand_Mine -->
<g id="edge32" class="edge">
<title>Junction4-&gt;Sand_Mine</title>
<path fill="none" stroke="#c62828" d="M1236.84,-808.32C1239.42,-808.06 1289.49,-802.9 1329.93,-798.73"/>
</g>
<!-- Junction5&#45;&gt;Duncs_Mistake -->
<g id="edge21" class="edge">
<title>Junction5-&gt;Duncs_Mistake</title>
<path fill="none" stroke="#c62828" d="M622.65,-436.59C619.79,-434.87 554.44,-395.63 515.9,-372.48"/>
</g>
<!-- Junction6&#45;&gt;Baddylands -->
<g id="edge34" class="edge">
<title>Junction6-&gt;Baddylands</title>
<path fill="none" stroke="#c62828" d="M548.71,-198.38C549.26,-194.64 563.44,-99.75 569.51,-59.15"/>
</g>
<!-- Junction6&#45;&gt;Portal_Island -->
<g id="edge44" class="edge">
<title>Junction6-&gt;Portal_Island</title>
<path fill="none" stroke="#e53935" stroke-width="2" d="M548.62,-198.51C547.33,-198.72 527.95,-201.95 507.14,-205.42"/>
</g>
<!-- Junction7&#45;&gt;Frigidaire_ad -->
<g id="edge36" class="edge">
<title>Junction7-&gt;Frigidaire_ad</title>
<path fill="none" stroke="#c62828" d="M1018.37,-494.83C1017.88,-491.38 1005.51,-404.76 1000.03,-366.36"/>
</g>
<!-- Junction8 -->
<!-- Junction7&#45;&gt;Junction8 -->
<g id="edge37" class="edge">
<title>Junction7-&gt;Junction8</title>
<path fill="none" stroke="#c62828" d="M1018.49,-494.89C1022.6,-492.69 1152.14,-423.39 1156.19,-421.23"/>
</g>
<!-- Junction8&#45;&gt;Pillager -->
<g id="edge41" class="edge">
<title>Junction8-&gt;Pillager</title>
<path fill="none" stroke="#c62828" d="M1156.3,-421.07C1156.56,-417.38 1163.11,-324.1 1165.93,-283.82"/>
</g>
<!-- Junction8&#45;&gt;Mangrove_Station -->
<g id="edge39" class="edge">
<title>Junction8-&gt;Mangrove_Station</title>
<path fill="none" stroke="#c62828" d="M1156.39,-421.14C1159.04,-420.07 1214.34,-397.85 1253.75,-382.01"/>
</g>
<!-- Junction8&#45;&gt;vvitch -->
<g id="edge38" class="edge">
<title>Junction8-&gt;vvitch</title>
<path fill="none" stroke="#c62828" d="M1156.24,-421.27C1154.72,-424.21 1117.14,-496.7 1099.46,-530.8"/>
</g>
</g>
</g>
</svg>
